<svg version="1.1" id="Layer_1" xmlns="http://www.w3.org/2000/svg" x="0" y="0" viewBox="0 0 186 55"
    xml:space="preserve">
    <style>
        .st0 {
            fill: #fff
        }

        .st1 {
            fill: #c41230
        }

        .st2 {
            fill: #989a9d
        }

        .st3 {
            fill: #005288
        }

        .st5 {
            fill: #cfab7a
        }

        .st6 {
            fill: #5e9732
        }

        .st7 {
            fill: #0078ae
        }
    </style>

    <!-- CBP Logo Full Text -->
    <g class="cbp-logo-text">
        <path class="st0" 
            d="M62.59 15.06h4.52v.86h-1.45v5.23c0 2.49 1.21 3.59 2.75 3.59 1.47 0 2.75-.9 2.75-3.71v-5.11h-1.42v-.86H74v.86h-1.4v5.37c0 2.78-1.52 4.32-4.27 4.32-2.57 0-4.35-1.19-4.35-4.64v-5.04h-1.4v-.87zM75.58 24.49c0 .6-.49 1.09-1.09 1.09-.6 0-1.09-.48-1.09-1.09 0-.6.49-1.09 1.09-1.09.61 0 1.09.49 1.09 1.09zM77.74 22.3h.86v1.31c.69.83 1.37 1.19 2.09 1.19.97 0 1.73-.72 1.73-1.66 0-1.75-2.4-2.09-3.8-3.49-.67-.68-.93-1.38-.93-2.09 0-1.37 1.14-2.68 2.94-2.68.75 0 1.42.14 2.01.52v-.55h.86v2.81h-.86v-1.12c-.43-.55-1.09-.88-1.8-.88-1.16 0-1.66.69-1.66 1.49 0 1.62 2.36 1.86 3.85 3.35.66.66.88 1.24.88 2.09 0 1.76-1.24 2.99-3.11 2.99-.8 0-1.42-.24-2.19-.73v.76h-.86V22.3zM87.22 24.49c0 .6-.49 1.09-1.09 1.09-.6 0-1.09-.48-1.09-1.09 0-.6.48-1.09 1.09-1.09.61 0 1.09.49 1.09 1.09zM100.24 24.37c-1 .83-2.28 1.24-3.75 1.24-3.09 0-5.25-2.35-5.25-5.27 0-3.16 2.28-5.49 5.41-5.49.86 0 1.69.15 2.49.45l.12-.59h.64v3.02h-.76c-.29-1.28-1.22-2.02-2.56-2.02-1.99 0-3.32 1.75-3.32 4.39 0 2.78 1.5 4.65 3.75 4.65 1 0 2.04-.38 3.23-1.26v.88zM100.83 18.19h2.89v4.97c0 .93.5 1.49 1.31 1.49.48 0 1.11-.26 1.76-.74V18.9h-1.28v-.71h2.87v6.51h1.29v.71h-2.89v-.86c-.9.76-1.74 1.07-2.59 1.07-1.28 0-2.08-.72-2.08-2.21V18.9h-1.3v-.71zM110.58 23.18h.38c.24 1.07 1.05 1.73 1.9 1.73.76 0 1.28-.38 1.28-.95 0-1.12-1.69-1.12-2.9-2.33-.47-.47-.69-1-.69-1.52 0-1.17 1.07-2.12 2.38-2.12.5 0 .86.1 1.43.41V18h.53v1.92h-.41c-.21-.78-.76-1.23-1.48-1.23-.62 0-1.11.41-1.11.95 0 1.02 1.87 1.31 2.99 2.44.42.42.6.9.6 1.42 0 1.26-1 2.12-2.45 2.12-.69 0-1.09-.12-1.85-.53l-.11.5h-.5v-2.41zM116.06 18.89l2.59-2.68v1.97h2.02v.71h-2.02v4.18c0 1.14.31 1.68.97 1.68.69 0 1.04-.55 1.21-.55.1 0 .17.14.17.22 0 .19-.64 1.19-1.9 1.19-1.31 0-2.04-.84-2.04-2.4v-4.32h-1zM123.45 21.8c0-1.95.83-3.11 2.19-3.11 1.38 0 2.19 1.16 2.19 3.11s-.81 3.11-2.19 3.11c-1.36-.01-2.19-1.16-2.19-3.11zm-1.78 0c0 2.14 1.74 3.82 3.97 3.82 2.23 0 3.97-1.67 3.97-3.82 0-2.14-1.74-3.82-3.97-3.82-2.22 0-3.97 1.67-3.97 3.82zM130.48 24.7h1.28v-5.8h-1.28v-.71h2.87v.83c1.11-.59 1.94-1.03 2.85-1.03.83 0 1.5.45 1.78 1.21.74-.57 1.93-1.21 2.9-1.21 1.35 0 2.07.87 2.07 2.42v4.3h1.26v.71h-4.06v-.72h1.21v-3.83c0-1.24-.43-1.83-1.33-1.83-.54 0-1.24.33-1.88.78v4.89h1.26v.71h-4.06v-.72h1.21v-3.61c0-1.22-.18-2.05-1.3-2.05-.66 0-1.1.28-1.92.78v4.89h1.23v.71h-4.1v-.72zM145.13 23.18h.38c.24 1.07 1.05 1.73 1.9 1.73.76 0 1.28-.38 1.28-.95 0-1.12-1.69-1.12-2.9-2.33-.47-.47-.69-1-.69-1.52 0-1.17 1.08-2.12 2.39-2.12.5 0 .86.1 1.43.41V18h.53v1.92h-.42c-.21-.78-.76-1.23-1.48-1.23-.62 0-1.11.41-1.11.95 0 1.02 1.87 1.31 2.99 2.44.41.42.61.9.61 1.42 0 1.26-1.01 2.12-2.46 2.12-.69 0-1.09-.12-1.85-.53l-.11.5h-.5v-2.41zM154.7 19.17c.86-.76 1.89-1.19 2.75-1.19 1.4 0 2.26.96 2.26 2.54v2.96c0 .72.31 1.17.74 1.17.14 0 .59-.07.74-.1v.48c-.54.38-1.07.59-1.57.59-.55 0-.93-.31-1.31-1.07-.87.64-1.49 1.07-2.11 1.07-.95 0-1.68-.85-1.68-1.9 0-1.07.59-1.68 2-2.02l1.59-.4v-.97c0-.85-.26-1.43-1.21-1.43-.55 0-1.17.24-2.04.78l-.16-.51zm1.32 4.34c0 .55.39.97.93.97.35 0 .73-.17 1.18-.54V22c-1.51.36-2.11.8-2.11 1.51zM161.67 24.7h1.31v-5.81h-1.31v-.71h2.9V19c.85-.62 1.71-1.02 2.68-1.02 1.14 0 1.99.72 1.99 2.11v4.61h1.28v.71h-4.01v-.71h1.14v-4.25c0-.99-.54-1.5-1.28-1.5-.54 0-1.19.28-1.8.76v4.99h1.19v.71h-4.09v-.71zM176.25 24.7h-.69c-1.71 0-2.94-.81-2.94-3.02 0-1.76.72-2.78 1.93-2.78.55 0 1.15.28 1.69.81v4.99zm-1.28-9.95h1.28v4.14c-.71-.6-1.47-.91-2.19-.91-1.74 0-3.21 1.67-3.21 3.7 0 2.28 1.62 3.73 4.13 3.73h4.15v-.71h-1.28V14.04h-2.87v.71zM65.65 39.67v-3.96h.93c1.97 0 2.54 1.02 2.54 2 0 .95-.55 1.95-2.18 1.95h-1.29zm-3.06.86h4.94c2.12 0 3.49-1.09 3.49-2.8 0-1.29-.97-2.4-2.87-2.62v-.04c1.19-.31 1.92-1.21 1.92-2.35 0-1.07-.83-2.54-3.58-2.54h-3.91v.86h1.38v8.62h-1.38v.87zm3.06-5.68v-3.8h.52c1.33 0 2 .62 2 1.85 0 1.3-.57 1.95-1.92 1.95h-.6zM73.77 36.92c0-1.95.83-3.11 2.19-3.11 1.38 0 2.19 1.16 2.19 3.11s-.81 3.11-2.19 3.11c-1.36 0-2.19-1.15-2.19-3.11zm-1.78 0c0 2.14 1.74 3.82 3.97 3.82 2.23 0 3.97-1.67 3.97-3.82 0-2.14-1.74-3.82-3.97-3.82-2.23.01-3.97 1.68-3.97 3.82zM80.5 39.82h1.3v-5.8h-1.3v-.71h2.89v1.21h.03c.87-1.07 1.3-1.41 1.76-1.41.43 0 .81.2 1.23.69-.14.72-.36 1.31-.66 1.78-.41-.76-.66-1.02-1.14-1.02-.47 0-.83.31-1.23.86v4.4h1.29v.71H80.5v-.71zM92.58 39.82h-.69c-1.71 0-2.94-.81-2.94-3.02 0-1.76.73-2.78 1.94-2.78.55 0 1.16.28 1.69.81v4.99zm-1.28-9.94h1.28v4.15c-.71-.6-1.47-.91-2.19-.91-1.74 0-3.21 1.67-3.21 3.69 0 2.28 1.62 3.73 4.13 3.73h4.15v-.71h-1.28V29.17H91.3v.71zM97.58 35.64c.1-1.22.5-1.83 1.45-1.83.92 0 1.49.66 1.62 1.83h-3.07zm4.77.71c-.28-2.09-1.42-3.25-3.22-3.25-1.99 0-3.28 1.41-3.28 3.61 0 2.02 1.33 4.03 3.78 4.03.99 0 1.54-.19 2.72-.92l.12-.78c-.87.55-1.67.83-2.41.83-1.54 0-2.49-1.45-2.49-3.52h4.78zM103.17 39.82h1.29v-5.8h-1.29v-.71h2.88v1.21h.04c.86-1.07 1.29-1.41 1.76-1.41.43 0 .81.2 1.23.69-.14.72-.37 1.31-.66 1.78-.41-.76-.66-1.02-1.14-1.02-.47 0-.83.31-1.23.86v4.4h1.3v.71h-4.18v-.71z" />
    
        <path class="st0"
            d="M117.52 31.05h.36c1.63 0 2.52.79 2.52 2.21 0 1.19-.71 1.94-1.81 1.94-.35 0-.69-.05-1.07-.16v-3.99zm-3.09 9.48h4.53v-.86h-1.43v-3.71c.43.14 1.09.24 1.54.24 1.88 0 3.18-1.21 3.18-2.95 0-1.66-1.16-3.06-3.72-3.06h-4.09v.86h1.42v8.62h-1.42v.86zM123.14 39.82h1.29v-5.8h-1.29v-.71h2.88v1.21h.03c.86-1.07 1.3-1.41 1.76-1.41.43 0 .81.2 1.22.69-.14.72-.36 1.31-.65 1.78-.42-.76-.66-1.02-1.14-1.02-.47 0-.83.31-1.23.86v4.4h1.3v.71h-4.18v-.71zM131.45 36.92c0-1.95.83-3.11 2.19-3.11 1.38 0 2.19 1.16 2.19 3.11s-.81 3.11-2.19 3.11c-1.36 0-2.19-1.15-2.19-3.11zm-1.78 0c0 2.14 1.75 3.82 3.97 3.82 2.23 0 3.97-1.67 3.97-3.82 0-2.14-1.74-3.82-3.97-3.82-2.22.01-3.97 1.68-3.97 3.82zM138.2 34.02l2.59-2.68v1.97h2.02v.71h-2.02v4.18c0 1.14.31 1.68.97 1.68.69 0 1.04-.55 1.21-.55.1 0 .18.14.18.22 0 .19-.64 1.19-1.9 1.19-1.31 0-2.04-.85-2.04-2.4v-4.32h-1.01zM145.58 35.64c.1-1.22.5-1.83 1.45-1.83.92 0 1.49.66 1.62 1.83h-3.07zm4.77.71c-.28-2.09-1.42-3.25-3.21-3.25-1.99 0-3.28 1.41-3.28 3.61 0 2.02 1.33 4.03 3.78 4.03.98 0 1.54-.19 2.71-.92l.12-.78c-.86.55-1.66.83-2.4.83-1.54 0-2.49-1.45-2.49-3.52h4.77zM157.34 35.39h-.5c-.19-1.06-.95-1.57-1.73-1.57-1.16 0-1.93.85-1.93 2.7 0 2.12.81 3.26 2.32 3.26 1.17 0 1.87-.79 2.04-.79.14 0 .24.31.24.43 0 .29-1.19 1.33-2.82 1.33-2.02 0-3.56-1.73-3.56-3.99 0-2.12 1.43-3.64 3.45-3.64.6 0 1.05.1 1.85.45l.14-.43h.5v2.25zM158.37 34.02l2.59-2.68v1.97h2.02v.71h-2.02v4.18c0 1.14.31 1.68.97 1.68.69 0 1.04-.55 1.21-.55.1 0 .17.14.17.22 0 .19-.64 1.19-1.9 1.19-1.31 0-2.04-.85-2.04-2.4v-4.32h-1zM163.99 39.82h1.26v-5.8h-1.26v-.71h2.85v6.51h1.23v.71h-4.08v-.71zm2.88-9.06c0 .54-.45.99-.98.99-.54 0-.99-.45-.99-.99 0-.53.45-.98.99-.98.53-.01.98.44.98.98zM170.55 36.92c0-1.95.83-3.11 2.19-3.11 1.38 0 2.2 1.16 2.2 3.11s-.81 3.11-2.2 3.11c-1.36 0-2.19-1.15-2.19-3.11zm-1.78 0c0 2.14 1.74 3.82 3.97 3.82 2.23 0 3.97-1.67 3.97-3.82 0-2.14-1.75-3.82-3.97-3.82-2.22.01-3.97 1.68-3.97 3.82zM176.88 39.82h1.31v-5.8h-1.31v-.71h2.9v.81c.84-.62 1.71-1.02 2.67-1.02 1.14 0 1.99.73 1.99 2.1v4.61h1.28v.71h-4.01v-.71h1.14v-4.25c0-.99-.54-1.5-1.28-1.5-.54 0-1.19.28-1.8.76v4.99h1.19v.71h-4.09v-.7z" />
    </g>

    <!-- CBP Seal -->
    <g class="cbp-logo-seal">
        <circle class="st0" cx="27.72" cy="27.52" r="26.4" />
        <circle class="st0" cx="27.72" cy="27.52" r="19.68" />
        <path class="st1"
            d="M27.72 47.45c-10.99 0-19.94-8.94-19.94-19.94S16.72 7.58 27.72 7.58s19.94 8.94 19.94 19.94-8.95 19.93-19.94 19.93zm0-39.36C17 8.09 8.29 16.8 8.29 27.52S17 46.95 27.72 46.95s19.43-8.72 19.43-19.43S38.43 8.09 27.72 8.09z" />
        <circle class="st2" cx="27.72" cy="27.52" r="18.65" />
        <path class="st2"
            d="M27.72 54.82c-7.29 0-14.15-2.84-19.31-8-5.16-5.16-8-12.01-8-19.31 0-7.29 2.84-14.15 8-19.31 5.16-5.16 12.01-8 19.31-8 7.29 0 14.15 2.84 19.31 8 5.16 5.16 8 12.01 8 19.31 0 7.29-2.84 14.15-8 19.31s-12.02 8-19.31 8zm0-52.79c-14.05 0-25.49 11.43-25.49 25.49s11.43 25.49 25.49 25.49 25.49-11.43 25.49-25.49S41.77 2.03 27.72 2.03z" />
        <path class="st3"
            d="M27.64 44.22c-1.36 0-2.6-.16-3.7-.48-1.91-.55-3.02-1.16-3.29-1.79-.12-.27-.04-.45-.02-.48l.95-1.83.01-.01c.02-.02.38-.49.99-.49.1 0 .19.01.29.03-.05-.03-.1-.06-.16-.08-.01 0-.04-.01-.12-.01-.26 0-.91.09-2.22.72-1.6.76-3.38 1.5-3.4 1.5-.06.02-1.44.59-2.75.59-.37 0-.7-.05-.99-.14l-.04-.01-3.53-3.04.97.3c.01 0 .97.3 2.02.3.39 0 .74-.04 1.05-.12 1.37-.35 3.65-1.18 3.78-1.22.12-.05 1.76-.74 2.48-.92.14-.03.28-.05.42-.05.6 0 1.07.29 1.09.3l1.54 1.08c.36.16 1.86.86 1.52 1.68-.08.19-.25.41-.62.51.88.29 2.26.63 3.9.63 1.37 0 2.69-.23 3.94-.7-.23-.07-.39-.19-.47-.36-.16-.33-.01-.77.45-1.35.38-.48.48-.65.5-.7l-.08-.09c.05-.05 1.15-1.11 2.62-1.11.32 0 .63.05.93.15 2.02.67 4.04 1.51 4.07 1.51.01 0 1.66.62 2.77.62.1 0 .19-.01.27-.01 1.12-.13 2.38-.4 2.39-.41l.86-.18-3.43 2.79-.01.01c-.02.02-.59.38-1.63.38-.77 0-1.6-.2-2.46-.59-2.49-1.14-3.59-1.63-3.59-1.63s-.97-.41-1.84-.41c-.23 0-.43.03-.6.08.1-.01.21-.02.32-.02.38 0 .64.08.79.26.34.38.96 1.85 1.03 2.01.01.03.27.72-.81 1.5-.68.49-2.36.84-2.43.86-.04.03-1.65.42-3.76.42z" />
        <path class="st0"
            d="M34.77 37.11c.28 0 .57.04.87.14 2.03.68 4.05 1.51 4.05 1.51s1.69.64 2.85.64c.1 0 .21-.01.3-.02 1.14-.14 2.41-.41 2.41-.41l-2.74 2.23s-.53.34-1.51.34c-.62 0-1.41-.13-2.37-.57-2.49-1.14-3.59-1.63-3.59-1.63s-1.01-.43-1.93-.43c-.29 0-.57.04-.82.15-.39.18-.27.44-.27.44s.41-.1.81-.1c.26 0 .51.04.64.19.33.36.99 1.95.99 1.95s.22.55-.74 1.25c-.65.47-2.35.82-2.35.82s-1.62.39-3.73.39c-1.14 0-2.41-.12-3.64-.47-3.65-1.06-3.18-1.98-3.18-1.98l.94-1.81s.31-.4.82-.4c.23 0 .49.08.79.3 0 0-.08-.59-.59-.75 0 0-.05-.02-.18-.02-.29 0-.96.1-2.31.74-1.61.77-3.39 1.5-3.39 1.5s-1.39.58-2.67.58c-.32 0-.64-.04-.92-.13l-2.74-2.36s.99.31 2.09.31c.37 0 .74-.03 1.1-.13 1.43-.36 3.8-1.23 3.8-1.23s1.73-.73 2.45-.91c.13-.03.25-.04.37-.04.55 0 .98.27.98.27l1.55 1.09s1.72.73 1.43 1.41c-.15.37-.58.45-.95.45-.31 0-.58-.06-.58-.06s2.09 1.05 5 1.05c1.48 0 3.17-.27 4.92-1.09 0 0-.2.03-.44.03-.57 0-1.38-.19-.39-1.43.55-.69.59-.83.53-.83-.04 0-.12.06-.12.06s1.06-1.04 2.46-1.04m0-.42c-1.55 0-2.71 1.12-2.76 1.17l.55.63c-.02.01-.07.03-.13.03-.13 0-.26-.07-.34-.18a.375.375 0 0 1-.04-.33c-.01.01-.07.15-.48.66-.19.24-.77.97-.48 1.57.03.07.09.15.16.22-1.1.36-2.25.53-3.44.53-1.34 0-2.51-.23-3.36-.48.15-.13.23-.27.27-.38.41-.98-1.18-1.76-1.61-1.94l-1.52-1.07-.01-.01-.01-.01c-.05-.03-.55-.34-1.2-.34-.16 0-.32.02-.47.06-.72.18-2.35.86-2.5.93-.17.06-2.4.87-3.75 1.21-.29.07-.63.11-1 .11-1.02 0-1.95-.28-1.96-.29l-1.94-.6 1.53 1.32 2.74 2.36.07.06.08.03c.31.1.66.15 1.05.15 1.36 0 2.77-.58 2.83-.61.02-.01 1.81-.75 3.41-1.51.34-.16.64-.29.89-.39l-.91 1.76c-.04.07-.14.32.01.67.31.7 1.43 1.33 3.43 1.91 1.11.32 2.38.49 3.76.49 2.08 0 3.7-.37 3.83-.4.21-.04 1.81-.39 2.5-.89 1.18-.86.91-1.65.88-1.74-.11-.25-.61-1.45-.97-1.96.52.11.95.28 1 .3l3.58 1.63c.89.4 1.74.61 2.54.61 1.08 0 1.68-.37 1.74-.41l.02-.01.02-.01 2.74-2.23 1.36-1.11-1.72.37c-.01 0-1.26.27-2.37.4-.08.01-.16.01-.25.01-1.04 0-2.6-.57-2.7-.61-.13-.05-2.11-.86-4.07-1.52a3.08 3.08 0 0 0-1-.16z" />
        <path fill="none" stroke="#005288" stroke-width=".176" stroke-miterlimit="10" d="M27.52 12.67v-.51" />
        <ellipse class="st0" cx="27.52" cy="20.44" rx="9.05" ry="8.78" />
        <path class="st3"
            d="M27.52 12.14a6.5 6.5 0 0 0-1.52.17c-.25.06-.49.14-.71.26-.11.06-.22.13-.31.21-.09.09-.15.19-.15.31 0 .11.07.22.16.3.09.08.2.15.31.2.22.11.47.18.71.24.49.11 1 .15 1.51.15s1.01-.04 1.51-.15c.25-.06.49-.13.71-.24.11-.05.22-.12.31-.2.09-.08.16-.19.16-.3 0-.12-.07-.22-.15-.31a.945.945 0 0 0-.31-.21c-.22-.12-.47-.2-.71-.26a6.5 6.5 0 0 0-1.52-.17zm0-.01c.51 0 1.02.05 1.52.16.25.06.49.14.72.25.11.06.22.13.32.22.09.09.17.2.17.34 0 .13-.08.25-.17.34-.09.09-.2.16-.32.22-.23.12-.47.19-.72.25-.5.12-1.01.16-1.52.17a6.5 6.5 0 0 1-1.52-.17 3.61 3.61 0 0 1-.72-.25 1.66 1.66 0 0 1-.32-.22c-.09-.09-.17-.2-.17-.34 0-.13.08-.25.17-.34.09-.09.2-.16.32-.22.23-.12.47-.19.72-.25.5-.12 1.01-.16 1.52-.16z" />
        <path class="st3"
            d="M22.69 13.6c-.16.2-.23.47-.17.71s.24.43.44.58c.41.29.89.47 1.38.61.49.13.99.23 1.5.3l.19.02h.1l.1.01.38.02c.26.01.51.01.77.01 1.02.01 2.05-.04 3.05-.26.25-.06.49-.13.72-.23.12-.05.23-.1.35-.15.11-.06.23-.11.34-.18.22-.12.43-.27.63-.43.19-.17.37-.36.48-.59h.01c-.11.24-.28.43-.47.61-.19.18-.4.33-.62.46-.11.07-.22.13-.34.19-.12.05-.23.11-.35.16-.24.1-.48.19-.73.25-.5.13-1.01.19-1.53.23-.51.04-1.03.06-1.54.06-.26 0-.52-.01-.77-.02-.26-.01-.52-.02-.77-.06-.51-.07-1.02-.17-1.51-.32s-.98-.34-1.4-.65c-.2-.16-.38-.37-.44-.62-.07-.25.02-.52.2-.71z" />
        <path class="st3"
            d="M20.67 15.45c-.1.28-.06.6.07.85.14.26.36.46.61.61.51.29 1.07.5 1.64.68.28.09.57.17.86.23.29.07.58.13.87.17.59.08 1.18.14 1.77.17 1.19.06 2.38.05 3.55-.14.59-.09 1.17-.21 1.75-.35.29-.07.57-.16.85-.26s.56-.22.8-.37h.01a2.572 2.572 0 0 0 .71-.59 1.468 1.468 0 0 0 .34-.85h.01c0 .16-.03.31-.09.46-.05.15-.13.29-.23.41-.09.13-.2.24-.32.34-.12.1-.24.2-.38.28-.25.17-.53.28-.81.39-.28.11-.57.2-.85.27-.58.16-1.16.28-1.75.37-1.18.19-2.38.22-3.58.15-.6-.04-1.19-.09-1.78-.18-.59-.08-1.17-.24-1.74-.42-.57-.19-1.13-.41-1.64-.71-.25-.16-.48-.37-.61-.64s-.16-.59-.05-.87h-.01z" />
        <path class="st3"
            d="M19.37 17.89c.05.29.19.55.36.78.17.23.39.43.64.58.12.08.25.15.38.22s.26.14.39.2.26.12.4.18c.07.03.13.05.2.07l.1.03c.03.01.07.01.09.02h.02c.57.18 1.17.31 1.76.42.59.11 1.19.2 1.79.24.6.04 1.21.06 1.81.06.61 0 1.21 0 1.82-.03l.45-.02.23-.01c.07-.01.15-.02.22-.02.3-.04.6-.08.9-.13.6-.1 1.19-.21 1.78-.37.29-.08.58-.17.86-.28.28-.11.56-.24.83-.36.27-.13.54-.27.79-.44.24-.18.46-.4.64-.64l.01.01c-.17.25-.38.48-.62.66-.24.19-.51.33-.78.47-.27.13-.55.26-.83.38-.28.12-.57.21-.86.3-.59.16-1.18.28-1.78.39-.3.05-.6.1-.9.13-.15.02-.3.03-.45.04l-.46.03c-1.21.05-2.43.05-3.65-.04-.61-.05-1.21-.14-1.81-.25-.6-.12-1.19-.26-1.77-.45-.15-.02-.29-.07-.42-.13-.14-.06-.27-.12-.4-.18a7.15 7.15 0 0 1-.76-.44c-.24-.16-.46-.37-.63-.61-.17-.24-.3-.51-.35-.8v-.01zM20.82 15.25l.33-.32.17-.16.18-.15.36-.28c.13-.09.26-.17.38-.26l.19-.13c.07-.04.14-.07.2-.11.14-.07.27-.15.41-.22.28-.13.56-.26.85-.36.58-.21 1.17-.38 1.78-.48l.46-.07c.15-.01.31-.03.46-.04.31-.02.61-.03.92-.01v.01c-.61 0-1.22.07-1.82.18-.6.11-1.19.28-1.76.49-.29.1-.57.23-.84.35-.14.07-.27.14-.41.21-.07.04-.14.07-.2.11l-.19.12c-.13.08-.26.16-.39.25l-.37.27c-.06.05-.12.09-.18.14l-.17.15-.36.31z" />
        <path class="st3"
            d="M20.03 22.28c-.01-.54.06-1.08.15-1.61a9.788 9.788 0 0 1 1.15-3.01c.27-.47.58-.92.92-1.34.08-.11.18-.21.26-.31l.27-.3.28-.29.3-.28c.1-.09.2-.18.31-.27.1-.09.2-.18.31-.26.22-.16.43-.33.66-.48.11-.07.22-.15.34-.22l.35-.21c.23-.14.47-.26.71-.39.24-.12.49-.23.73-.35.25-.11.5-.2.75-.31v.01c-.99.41-1.95.91-2.83 1.53-.88.61-1.68 1.34-2.36 2.17-.68.83-1.23 1.77-1.62 2.77-.4 1.01-.66 2.07-.68 3.15z" />
        <path class="st3"
            d="M27.52 12.67c-.29.34-.53.71-.75 1.09-.23.38-.43.77-.61 1.17-.37.8-.67 1.63-.9 2.47l-.17.64c-.06.21-.1.43-.15.64-.1.43-.16.86-.24 1.3-.04.22-.06.44-.09.65l-.08.66c-.04.44-.08.88-.11 1.32h-.01c.03-.44.05-.88.08-1.32l.07-.66c.02-.22.04-.44.08-.66.07-.44.13-.87.23-1.3.05-.22.09-.43.14-.65l.17-.64c.25-.85.55-1.68.93-2.48l.15-.3.07-.15.08-.14.16-.29c.05-.1.11-.19.17-.28.23-.38.48-.75.78-1.07z" />
        <path class="st3"
            d="M27.52 12.67c.31.31.57.67.8 1.04.12.18.22.38.33.57.1.19.19.39.29.59.36.8.62 1.65.83 2.5.05.21.1.43.14.64l.11.65c.02.11.04.22.05.32l.04.33c.03.22.05.44.07.65.03.44.05.88.08 1.31l-.01 1.31h-.01l-.03-1.31c-.03-.44-.06-.87-.1-1.31l-.08-.65L30 19c-.02-.11-.04-.22-.06-.32l-.11-.65c-.04-.21-.1-.43-.14-.64-.2-.85-.46-1.69-.81-2.49-.09-.2-.18-.4-.28-.59-.1-.19-.2-.39-.32-.57a5.9 5.9 0 0 0-.76-1.07z" />
        <path class="st3"
            d="M27.52 12.66c1.14.26 2.23.77 3.19 1.44.48.33.93.72 1.34 1.15.41.42.78.89 1.1 1.38.31.5.59 1.02.8 1.57.03.07.06.14.08.2l.07.21a8.295 8.295 0 0 1 .35 1.28c.03.14.06.29.08.43l.06.44.03.22c.01.07.01.15.02.22l.03.44c.01.15.01.29.01.44l.01.44-.03.88h-.01c.05-1.17-.02-2.34-.27-3.49-.05-.29-.14-.57-.22-.85-.04-.14-.09-.28-.14-.42l-.07-.21c-.02-.07-.06-.14-.08-.2-.21-.55-.49-1.06-.8-1.56a9 9 0 0 0-2.4-2.52 9.97 9.97 0 0 0-1.51-.89c-.53-.24-1.08-.45-1.64-.6z" />
        <path class="st3"
            d="M27.52 12.67c.23-.02.46-.03.69-.04a9.09 9.09 0 0 1 2.06.25c.11.03.22.05.34.09.11.03.22.06.33.1.22.08.44.15.65.24.11.05.21.09.32.14l.31.16c.1.05.2.11.3.17l.3.18c-.4-.23-.81-.45-1.24-.61-.21-.09-.43-.16-.65-.24-.11-.03-.22-.06-.33-.1l-.33-.09c-.45-.11-.9-.19-1.36-.23-.47-.03-.93-.05-1.39-.02zM27.51 12.68c-.01 0-.63-.38-1.24-.41v-.02c.62.04 1.25.41 1.25.41l-.01.02z" />
        <path class="st3"
            d="M27.52 12.68l-.01-.02c.01 0 .63-.33 1.54-.37v.02c-.9.04-1.52.36-1.53.37zM28.45 26.32l.05-.62-.18-.17-.37-.15-.28-.22-.19-.47-.24-.2s-.16-.11-.17-.15l-.04-.15v-.14l.09-.07v-.2l.1-.19.01-.16s.16-.09.24-.11c.08-.02.1-.17.1-.17v-.16l-.1-.24v-.14l-.22-.04-.09.1-.21.02-.26-.12-.16-.24-.17-.19-.16-.19-.26-.12s-.09 0-.13-.01-.21-.1-.21-.1l-.17-.17-.08-.07h-.27l-.35-.05-.43-.15-.17-.21-.16-.27-.14-.24-.04-.35-.17-.2-.08-.29-.13-.22-.08-.2-.16-.05.25.87.09.22-.1.05-.14-.17-.01-.21-.13-.17-.09-.14.07-.13-.01-.1-.1-.26-.01-.24-.05-.12-.14-.25s-.07-.11-.08-.15c-.01-.04.04-.57.04-.57l.08-.36.26-.31.16-.29-.14-.32.14-.22v-.66l.07-.52-.21-.29-.47.2-.59.06.5-.27.14-.32.19-.17.44-.15.1-.29.47-.15.38-.14.24.05.11.27.05.17.14.04.28.05.2.27.39.2.73.04.34-.25.42-.04.25.56-.44.35-.49.33-.16.16v.32l.2.16.33.12.12.14.2.43s.22.23.29 0c.07-.23-.07-.37-.07-.37s.35-.17.16-.56c-.2-.39.06-.42.06-.42l.31-.05.37.36.29-.1.29.32v.19l.37.14.18.14v.09s.03.22-.18.38c-.22.16-.55 0-.55 0l-.38.38.47-.2.14.2v.25l-.27.19-.27.11-.08.42-.29.12-.19.15-.11.22v.27l-.08.14-.24.07-.18.1s-.13.08-.01.47c.12.4-.05.47-.05.47l-.17-.15-.19-.48-.46-.1-.32.01-.11.17-.26-.11-.3.04-.36.16.1.14-.01.11-.14.1.08.16-.05.19.13.3.33.13.3.07.23-.24.27-.14.1.16-.22.52h.27l.25.12.16.1-.04.35.16.26h.53l.19.17.29-.21h.48s1.57.87 1.52 2.61l-1.48 1.35zM27.94 12.97l-.11.24-.13.29.06.21.24.08.28.17.14.25.24.15-.06.16.21.17.07.16.07.16.19.24s.2.15.28.2c.08.06.49.19.49.19l-.11-.7.05-.15.14-.27.06-.26-.08-.19-.28-.22-.15-.24-.4-.13-.18-.16-.1-.17-.22-.04-.23-.06-.14-.14h-.35v.06z" />
        <path class="st3"
            d="M25.46 14.06l.14-.28.22.07.14.21.16-.05.15.05v.35l-.2.09h-.21l-.28-.08zM26.95 14.27l.25.14.05.15h.29l.25.23-.09.24-.16.13-.07.16h.33l.35.19.14-.21-.16-.33.26.05v-.24l-.46-.19-.05-.22-.36-.24-.24-.18.09-.36.15-.15.07-.15-.23-.13-.35.26-.27.17s-.19-.06-.19 0v.18l-.13.28.05.21.42-.21.17.08-.11.14zM35.11 16.88l-.05.24h-.64l-.26.41-.13.35v.64l-.08.24v.69l-.04.29.15.32s.03.35.04.38.11.14.18.19.28.26.28.26l.31.14h.24l.25-.23.2-.16.18-.12.09.02.08.32.13.6.06-1.4-.27-1.68-.35-1.04-.28-.47h-.09zM31.17 13.1l.14.68.4.23s.15.21.16.26c.01.05.15.23.15.23l.31.12h.25l.13-.12-.35-.29-.42-.15-.23-.41.23.21.48.2.29.21.22.3v.4l.13.35.06.26v.22l-.1.17.03.18.49.15.09.16-.18.23-.15.12.07.35.39.31.21-.08.13-.17-.11-.52-.07-.33.1-.16h.2s.15-.06.17-.11c.02-.05 0-.27 0-.27l.01-.28-.34-.49-.49-.52-.77-.64-.69-.47-.71-.33-.18-.15-.05.15z" />
        <path class="st3"
            d="M32.8 15.4l-.38-.26-.32-.22-.06.13.38.39s.1.06.16.12.21.34.21.34l.09.06.05-.33v-.19l-.13-.04zM24.31 12.73l-.08.37-.29.23-.22.34-.39.11h-.42l-.13-.18.25-.29.64-.32z" />
        <path class="st3"
            d="M27.52 28.85c-4.77 0-8.66-3.77-8.66-8.4s3.88-8.4 8.66-8.4c4.77 0 8.66 3.77 8.66 8.4s-3.89 8.4-8.66 8.4zm0-16.63c-4.68 0-8.48 3.69-8.48 8.22s3.81 8.22 8.48 8.22c4.68 0 8.48-3.69 8.48-8.22s-3.81-8.22-8.48-8.22z" />
        <path class="st0"
            d="M16.33 22.84c.27.2 5.39 2.39 5.7 2.59.31.19 8.78-1.27 8.78-1.27l3.71.66 2.75-.81v6.15l-9.59 3.13-8.38-1.56-2.98-5.34v-3.2M12.88 16.76H9.81l-.46 1.45 2.83 2.3.34.88zM46.47 17.7l-3.49-.78-.49 1.57.21 1.84.54.02z" />
        <path class="st3"
            d="M31.27 28.99l.64.46c.08.02.29.08.56.08.68 0 1.18-.33 1.49-.97.66-1.38-.94-2.61-.96-2.62l-.03-.02-.02-.03c-.03-.04-.78-1.06.28-2.41 1.35-1.73 4.59-4.99 8.17-6.27.09-.03 2.07-.68 3.48-.68.22 0 .41.02.58.05l.58.11-.48.34c-1.26.88-1.92 1.49-2.25 1.83h.21c.55 0 1.13-.08 1.14-.08l.77-.11-.56.53c-.04.04-.82.77-2.17 1.55l1.61.05-.43.41c-.03.03-.7.65-1.88 1.22l1.56.26-1.92 1.24 1.75.53-1.74.92 1.47.49-1.71.9 1.45.72-1.8.73 1.32.96-1.95.4.82 1.09-1.66.17.58 1.09h-1.61l.12 1.34-1.31-.21-.04 1.45-1.21-.47-.28 1.22-1.18-.46-.45 1.25-1.21-.68-1.71 2.44v-8.82z" />
        <path class="st0"
            d="M44.87 16.77c.19 0 .37.01.54.04-2.14 1.5-2.59 2.21-2.59 2.21.19.05.43.07.69.07.57 0 1.17-.09 1.17-.09s-1.09 1.03-2.93 1.95l1.94.06s-.94.88-2.58 1.5l1.76.29-1.83 1.19 1.69.51-1.73.91 1.47.49-1.63.85 1.39.69-1.71.69 1.23.89-1.79.37.79 1.05-1.59.16.56 1.05h-1.47l.12 1.3-1.27-.2-.04 1.38-1.15-.45-.28 1.22-1.15-.45-.44 1.22-1.15-.65-1.39 1.99v-7.54l.28.2s.28.1.67.1c.54 0 1.27-.19 1.71-1.11.75-1.58-1.03-2.92-1.03-2.92s-.68-.89.28-2.11c.95-1.22 4.2-4.81 8.06-6.19.01 0 2.03-.67 3.4-.67m.01-.49c-1.44 0-3.46.66-3.55.69h-.02c-3.63 1.3-6.92 4.6-8.28 6.35-1.17 1.5-.32 2.66-.28 2.71l.04.06.06.04c.06.04 1.45 1.12.88 2.32-.27.56-.68.83-1.27.83-.2 0-.37-.03-.45-.06l-.21-.15-.78-.57v10.07l.89-1.28 1.13-1.62.76.43.51.29.2-.55.27-.74.68.26.53.21.13-.55.15-.66.62.24.65.25.02-.7.02-.82.72.11.63.1-.06-.63-.07-.76h1.75l-.38-.72-.22-.41.86-.09.87-.09-.52-.7-.33-.43 1.02-.21 1.1-.22-.91-.66-.51-.37.88-.36 1.02-.41-.98-.48-.53-.26.77-.4 1.03-.54-1.1-.36-.37-.12.7-.37 1.06-.56-1.15-.35-.67-.2.94-.61 1.06-.69-1.25-.21-.22-.04c.81-.47 1.27-.89 1.29-.92l.87-.81-1.19-.04-.2-.01c.94-.62 1.48-1.12 1.51-1.15l1.13-1.07-1.54.22s-.31.04-.69.07c.38-.34.94-.79 1.76-1.37l.96-.67-1.15-.21c-.15-.03-.36-.05-.59-.05z" />
        <path class="st5"
            d="M26.86 20.88a77.57 77.57 0 0 1 .02-5.73c.06-1.42.13-2.61.3-3.82.05-.31.1-.63.18-.96.04-.15.09-.32.18-.49.03-.04.06-.09.11-.13.02-.01.03-.02.05-.03l.01-.01c.02-.01.03-.02.05-.02.02-.01.04-.01.06-.01.03 0 .06 0 .08.01.08.03.12.08.15.12.04.04.06.09.08.12.08.16.13.31.18.47.04.14.07.28.11.47.06.31.1.51.15.83l-.1.02c-.06-.27-.12-.44-.19-.69l-.03-.12c-.06-.18-.1-.32-.15-.45-.05-.14-.11-.29-.19-.41-.02-.02-.04-.05-.06-.08l-.02-.02c-.01.01-.02.02-.03.05-.06.12-.09.27-.12.42-.05.31-.08.63-.1.93-.07 1.27-.03 2.56.02 3.78.05 1.19.14 2.43.26 3.78.06.68.12 1.29.19 1.88l.22 1.93-1.37.1-.04-1.94z" />
        <path class="st5"
            d="M27.83 9.74c.02 0 .05 0 .06.01.07.03.1.07.13.1.03.04.05.08.07.11.08.15.13.31.17.46.04.15.08.31.11.47.07.31.1.51.15.82-.07-.31-.13-.5-.23-.81-.05-.15-.09-.3-.15-.45a2.71 2.71 0 0 0-.2-.42l-.06-.09c-.02-.02-.05-.04-.06-.04-.01 0 0 0-.02.01-.02.02-.03.04-.05.07-.06.13-.09.28-.12.43-.05.31-.08.62-.1.93-.07 1.26-.03 2.52.02 3.78.06 1.26.15 2.52.26 3.78.06.63.12 1.26.19 1.89l.21 1.88-1.27.1-.06-1.91c-.02-.64-.03-1.27-.04-1.91-.01-1.27.01-2.55.06-3.82.05-1.27.12-2.55.3-3.81.05-.32.1-.63.18-.95.04-.16.09-.32.18-.47.03-.04.05-.08.1-.12.01-.01.03-.02.04-.03.02-.01.03-.02.05-.02.04.01.06.01.08.01m0-.1c-.03 0-.05 0-.08.01s-.05.02-.06.02h-.03c-.02.01-.03.02-.05.03-.06.05-.09.1-.12.14-.1.17-.15.34-.19.5a7 7 0 0 0-.18.96c-.17 1.21-.24 2.4-.3 3.82a92.87 92.87 0 0 0-.06 3.82c0 .68.01 1.31.04 1.91l.06 1.91v.11l.11-.01 1.27-.1.1-.01-.01-.1-.21-1.88c-.07-.59-.13-1.21-.19-1.88-.12-1.35-.21-2.59-.26-3.78-.05-1.21-.09-2.51-.02-3.77.02-.29.04-.61.1-.92.02-.14.06-.28.11-.39.01.01.02.03.03.04.08.12.14.26.19.4.05.13.09.27.15.44l.04.12c.07.24.13.42.19.68l.2-.04c-.05-.32-.08-.52-.15-.83-.04-.19-.08-.34-.12-.47-.05-.15-.1-.32-.18-.48a.913.913 0 0 0-.08-.13c-.04-.04-.09-.1-.18-.13-.05.02-.09.01-.12.01z" />
        <path class="st6"
            d="M28.91 24.28c-.78-.44-1.56-.89-2.32-1.37-.38-.24-.76-.49-1.13-.75a30.2 30.2 0 0 1-1.08-.8c-.71-.54-1.41-1.11-2.08-1.71-.67-.59-1.32-1.21-1.93-1.87-.31-.33-.6-.67-.88-1.03s-.54-.73-.76-1.12c-.11-.2-.21-.41-.29-.63a1.81 1.81 0 0 1-.12-.7c.01-.12.04-.25.09-.36.06-.12.15-.21.25-.28.21-.14.45-.19.67-.2.46-.03.9.06 1.34.16.43.11.5.14.92.3-.42-.13-.5-.14-.93-.23-.43-.08-.88-.14-1.31-.09-.21.03-.42.08-.58.21-.16.12-.23.3-.23.5s.06.4.14.6c.08.2.19.38.3.57.23.37.5.71.79 1.04.29.33.59.64.91.95.63.61 1.3 1.18 2 1.73.69.54 1.41 1.06 2.14 1.55.36.25.73.49 1.11.72.37.23.75.46 1.13.67.76.43 1.54.84 2.33 1.23" />
        <path class="st6"
            d="M28.88 24.32c-.85-.47-1.61-.92-2.32-1.37-.42-.27-.79-.51-1.13-.75a30.2 30.2 0 0 1-1.08-.8c-.75-.58-1.44-1.13-2.08-1.71-.74-.65-1.37-1.27-1.94-1.88-.33-.35-.62-.69-.88-1.03a9.13 9.13 0 0 1-.77-1.13c-.13-.23-.22-.43-.29-.63-.1-.27-.14-.5-.13-.72.01-.14.04-.27.1-.38.06-.12.15-.22.27-.3.23-.16.49-.2.7-.21.49-.03.96.07 1.35.17.38.1.48.13.78.25l.14.05-.03.1c-.39-.12-.48-.14-.83-.21l-.09-.02c-.36-.07-.83-.14-1.29-.09-.24.03-.43.1-.55.2-.14.1-.21.27-.21.46 0 .17.05.36.14.58.07.18.17.36.3.56.2.32.45.65.79 1.03.27.31.57.62.91.95.58.56 1.24 1.13 1.99 1.72.66.52 1.37 1.04 2.13 1.55.36.24.73.49 1.1.72.34.21.71.43 1.12.67.71.41 1.48.81 2.33 1.23l-.04.09a38.276 38.276 0 0 1-3.47-1.9c-.37-.24-.75-.48-1.11-.72-.76-.51-1.48-1.04-2.14-1.56a26.3 26.3 0 0 1-2-1.73c-.34-.33-.64-.64-.91-.95-.34-.39-.59-.72-.8-1.04-.13-.2-.23-.39-.31-.57-.1-.23-.15-.43-.15-.62 0-.22.09-.42.25-.54.14-.11.34-.18.6-.22.31-.04.62-.02.9.02-.28-.05-.59-.09-.9-.07-.19.01-.44.05-.65.2-.1.07-.18.16-.23.26a.95.95 0 0 0-.09.34c-.01.21.03.42.12.68.07.2.16.4.29.62.19.35.43.7.76 1.12.26.34.55.67.87 1.02.56.61 1.19 1.22 1.93 1.87a43.05 43.05 0 0 0 3.16 2.5c.34.24.71.48 1.12.75.71.45 1.47.9 2.32 1.37l-.05.07z" />
        <path class="st7"
            d="M26.02 23.23c.79-.41 1.57-.86 2.34-1.33a51.5 51.5 0 0 0 4.45-3.05c.71-.55 1.41-1.12 2.07-1.73.66-.61 1.31-1.24 1.85-1.94.13-.18.26-.36.36-.55.1-.19.19-.39.21-.59 0-.1-.01-.19-.07-.26a.388.388 0 0 0-.24-.14c-.2-.05-.43-.04-.65-.02-.44.06-.88.18-1.3.33-.43.15-.7.21-1.11.39.41-.2.67-.28 1.09-.45.42-.16.85-.31 1.31-.39.23-.04.46-.06.7-.01.12.03.25.08.34.19.09.1.13.25.13.37 0 .26-.1.48-.2.69-.1.21-.23.41-.35.6-.52.76-1.15 1.43-1.79 2.07-.65.64-1.32 1.25-2.01 1.84a49.616 49.616 0 0 1-4.35 3.29c-.76.51-1.53 1-2.32 1.46" />
        <path class="st7"
            d="M26.44 24.06c-.02 0-.03-.01-.04-.02a.053.053 0 0 1 .02-.07c.75-.44 1.53-.93 2.32-1.46 1.54-1.04 3-2.15 4.35-3.29.75-.64 1.41-1.24 2.01-1.84.61-.61 1.24-1.28 1.79-2.06.15-.22.26-.41.35-.59.1-.2.19-.42.19-.67 0-.08-.01-.23-.11-.34a.539.539 0 0 0-.31-.17c-.24-.05-.48-.02-.68.01-.18.03-.36.08-.53.12.17-.04.35-.08.53-.1.19-.02.44-.04.67.02.12.03.21.09.27.16.06.07.09.17.08.29-.01.22-.12.44-.21.61-.09.17-.21.35-.37.56-.57.75-1.26 1.41-1.85 1.95-.62.56-1.3 1.13-2.07 1.73-1.38 1.07-2.88 2.1-4.45 3.05-.79.48-1.58.93-2.34 1.33-.02.01-.06 0-.07-.02-.01-.02 0-.06.02-.07.76-.4 1.54-.84 2.33-1.32 1.57-.96 3.06-1.98 4.44-3.05.77-.6 1.45-1.16 2.07-1.72.59-.54 1.28-1.2 1.84-1.94.15-.2.27-.38.36-.55.09-.16.19-.37.2-.57 0-.1-.02-.17-.06-.22-.04-.06-.12-.1-.22-.13-.2-.05-.44-.04-.63-.02-.47.06-.92.2-1.29.33-.13.05-.25.08-.37.12-.25.08-.46.15-.74.27l-.04-.09c.3-.15.52-.23.79-.33.1-.04.2-.07.31-.12.38-.15.84-.31 1.32-.4.21-.03.46-.07.72-.01.11.02.26.08.36.2.12.14.14.31.14.41 0 .27-.1.5-.2.71-.09.19-.21.38-.36.6-.55.79-1.22 1.49-1.8 2.08-.6.6-1.26 1.2-2.02 1.85a51.296 51.296 0 0 1-4.36 3.3c-.78.53-1.57 1.02-2.32 1.46-.02 0-.03.01-.04.01z" />
        <g>
            <path class="st3"
                d="M24.46 27.8c.62-1.34 1.98-2.7 2.21-2.93.02-.04.02-.07.03-.09h-.03c-.91-.02-1.41-.33-1.53-.42a.464.464 0 0 0-.19-.04c-.2 0-.3.18-.3.18l-.29.54-.09-.61c-.07-.47.03-.86.3-1.16.49-.57 1.42-.66 1.8-.67.08-.15.23-.22.44-.22.12 0 .27.02.46.05.22.03.5.07.84.09 1.14.07 1.86.57 1.89.59l.19.14-.2.2c.22.38.23 1.15.22 1.52.19 2.09.76 2.77.77 2.78l.02.03.01.02.46.91-7.56.02.55-.93z" />
            <path class="st0"
                d="M26.82 22.59c.24 0 .65.1 1.29.14 1.09.07 1.78.56 1.78.56l-.16.16c.33.2.29 1.54.29 1.54.2 2.22.82 2.91.82 2.91l.31.62-6.88.02.38-.64c.65-1.42 2.21-2.91 2.21-2.91.16-.38-.05-.41-.13-.41h-.03c-.96-.02-1.44-.39-1.44-.39a.656.656 0 0 0-.29-.06c-.33 0-.48.29-.48.29-.22-1.53 1.66-1.6 1.99-1.6h.05c.02-.17.12-.23.29-.23m0-.4c-.28 0-.45.1-.55.23-.46.03-1.34.15-1.85.73-.3.35-.42.8-.34 1.32l.21 1.42.55-1.29c.01-.02.05-.07.12-.07.03 0 .06.01.09.02.15.1.56.34 1.25.41-.48.5-1.5 1.63-2.02 2.75l-.37.62-.36.61h.71l6.88-.02h.65l-.29-.58-.31-.62-.03-.06-.03-.03c-.04-.05-.54-.73-.71-2.65.01-.49-.02-1.07-.18-1.47l.27-.27-.39-.28c-.03-.02-.79-.56-1.99-.63-.34-.02-.61-.06-.82-.09-.2-.03-.35-.05-.49-.05z" />
        </g>
        <path class="st3"
            d="M22.39 35.34l-1.21.68-.45-1.25-1.18.46-.28-1.22-1.21.47-.04-1.45-1.31.21.12-1.34h-1.61l.58-1.09-1.66-.17.82-1.09-1.95-.4 1.32-.96-1.8-.73 1.45-.72-1.71-.9 1.51-.5-1.75-1.03 1.69-.42-1.89-1.22 1.56-.26c-1.18-.57-1.85-1.19-1.88-1.22l-.43-.41 1.61-.05c-1.35-.78-2.13-1.51-2.17-1.55l-.56-.53.77.11c.01 0 .59.08 1.14.08h.21c-.32-.34-.99-.94-2.25-1.83l-.48-.34.58-.11c.17-.03.36-.05.58-.05 1.4 0 3.39.65 3.47.68 3.58 1.28 6.83 4.55 8.18 6.27 1.06 1.35.31 2.37.28 2.41l-.02.03-.03.02c-.07.05-1.62 1.24-.96 2.62.31.65.81.97 1.49.97.27 0 .48-.05.56-.08l.64-.46v8.81l-1.73-2.44z" />
        <path class="st0"
            d="M10.49 16.76c1.38 0 3.39.67 3.39.67 3.86 1.38 7.11 4.97 8.06 6.19.95 1.22.28 2.11.28 2.11s-1.79 1.34-1.03 2.92c.44.92 1.17 1.11 1.71 1.11.39 0 .67-.1.67-.1l.28-.2V37l-1.39-1.99-1.15.65-.44-1.22-1.15.45-.28-1.22-1.15.45-.04-1.38-1.27.2.12-1.3h-1.47l.56-1.05-1.59-.16.79-1.05-1.79-.37 1.23-.89-1.71-.69 1.39-.69-1.63-.85 1.47-.49-1.7-1 1.66-.41-1.83-1.19 1.76-.29c-1.64-.63-2.58-1.5-2.58-1.5l1.94-.06c-1.82-.92-2.92-1.95-2.92-1.95s.6.09 1.17.09c.25 0 .5-.02.69-.07 0 0-.45-.71-2.59-2.21.17-.03.35-.05.54-.05m0-.49c-.23 0-.44.02-.63.05l-1.15.21.96.67c.82.58 1.39 1.03 1.76 1.37-.37-.02-.68-.07-.69-.07l-1.54-.22 1.13 1.07c.03.03.57.53 1.51 1.15l-.2.01-1.19.04.87.81c.03.03.48.45 1.29.92l-.22.04-1.25.21 1.06.69.88.57-.56.14-1.16.29 1.03.61.77.45-.44.15-1.1.36 1.03.54.77.4-.53.26-.98.49 1.02.41.88.36-.51.37-.91.66 1.1.22 1.02.21-.33.43-.52.7.87.09.86.09-.22.41-.38.72h1.75l-.07.76-.06.63.63-.1.72-.11.02.82.02.7.65-.25.62-.24.15.66.13.55.53-.21.68-.26.27.74.2.55.51-.29.76-.43 1.13 1.62.89 1.28V28.5l-.78.57-.21.15c-.08.02-.25.06-.45.06-.59 0-1-.27-1.27-.83-.57-1.19.82-2.27.88-2.32l.05-.04.04-.06c.04-.05.89-1.21-.28-2.71-1.37-1.75-4.65-5.05-8.28-6.35H14c-.04-.03-2.06-.7-3.51-.7zM28.02 23.36s-.41-.12-.8-.09c0 0-.1.08-.07.16.04.09.35.26.59.17s.28-.24.28-.24z" />
        <g>
            <path class="st0"
                d="M14.16 39.94c-.07.36-.16.72-.2 1.09-.04.01-.08.01-.13.02-.18-.32-.33-.65-.5-.98.04-.01.09-.02.13-.02.14.27.26.54.41.8.04-.31.11-.6.17-.9.04.01.08 0 .12-.01zM14.72 40.93c-.05.01-.11.02-.16.02-.08-.34-.14-.69-.21-1.03.05-.01.1-.01.15-.02.07.34.15.68.22 1.03zM15.87 40.14c.06.17.11.35.16.52-.03.01-.06.02-.09.02-.03-.04-.05-.08-.08-.12-.07.12-.15.18-.3.22-.15.03-.3.02-.43-.07-.13-.09-.2-.2-.24-.34-.03-.15-.03-.28.05-.41.07-.13.18-.2.33-.23.21-.05.37.02.5.18-.04.02-.08.05-.12.07a.332.332 0 0 0-.16-.13.415.415 0 0 0-.19-.01c-.11.03-.18.07-.23.18s-.03.21-.01.32c.03.11.09.22.18.29.09.07.2.07.3.05.1-.02.15-.05.2-.12.05-.07.04-.14.03-.22 0-.01-.01-.04-.02-.05-.1.03-.2.05-.3.07l-.03-.11c.15-.04.3-.07.45-.11zM16.45 40.51c-.04.02-.09.03-.14.04-.1-.34-.23-.67-.33-1 .04-.01.09-.03.13-.04.11.34.23.67.34 1zM17.29 40.04c.01.04.03.07.04.11-.19.09-.39.18-.59.26-.11-.33-.24-.66-.34-.99.04-.01.08-.03.13-.04.1.29.2.58.31.87l.45-.21zM18.17 39.73c-.04.02-.08.04-.13.06-.07-.08-.15-.16-.22-.24-.12.06-.24.12-.35.18l.03.33c-.03.02-.07.03-.1.05-.02-.38-.05-.77-.09-1.15.05-.02.09-.04.14-.06.24.29.48.56.72.83zm-.41-.26c-.11-.13-.23-.26-.34-.4.02.18.03.37.05.55.1-.05.19-.1.29-.15zM19.06 39.37c-.04.02-.08.03-.12.05-.28-.22-.57-.43-.86-.64l.03.06.03.06.3.72c-.03.01-.07.03-.1.04-.14-.32-.27-.64-.4-.96.05-.02.11-.04.16-.07.27.19.54.39.81.6a.488.488 0 0 1-.03-.07.488.488 0 0 1-.03-.07c-.09-.22-.18-.44-.26-.66.03-.01.07-.03.1-.04.11.33.24.66.37.98zM19.86 38.68l.14-.03c.01.23-.06.39-.28.48-.14.06-.26.05-.38-.02s-.21-.19-.26-.32a.581.581 0 0 1-.02-.41c.05-.13.13-.21.27-.26.2-.08.37-.01.51.16-.04.03-.08.05-.12.08-.08-.11-.23-.18-.35-.13-.12.05-.15.09-.18.2-.03.11 0 .23.03.34s.11.2.2.25c.09.05.16.06.26.02.15-.07.19-.2.18-.36zM20.97 38.48c.02.04.03.07.05.11-.22.1-.45.19-.68.28-.13-.33-.27-.65-.4-.97.22-.09.43-.18.65-.27.02.03.03.07.05.1-.17.07-.34.15-.52.22.05.1.09.2.14.31l.42-.18c.01.03.03.07.04.1-.14.06-.28.12-.43.18.05.12.1.23.14.35.19-.08.36-.16.54-.23z" />
        </g>
        <g>
            <path class="st0"
                d="M24.41 42.62c.04 0 .09-.01.13-.01.04.16.14.24.29.28.08.02.14.01.2-.02s.08-.09.09-.14c.01-.05 0-.09-.03-.13a.2.2 0 0 0-.1-.08c-.05-.03-.15-.06-.21-.09a.458.458 0 0 1-.14-.07c-.04-.03-.06-.06-.08-.11s-.03-.1-.02-.15c.02-.09.05-.16.14-.21a.39.39 0 0 1 .28-.04c.2.04.3.15.34.34-.04.01-.08.01-.12.02-.01-.06-.03-.12-.08-.16-.05-.04-.1-.07-.16-.08s-.12-.01-.17.03c-.05.03-.08.05-.09.13-.01.08.06.16.16.19.04.01.15.06.19.08.16.08.24.19.22.36-.01.1-.05.17-.14.23-.09.06-.18.07-.3.05-.21-.08-.35-.21-.4-.42zM26.21 43.08c0 .04-.01.08-.01.12-.25-.03-.5-.07-.75-.12.05-.38.11-.75.18-1.12.23.04.46.08.7.11-.01.04-.01.08-.02.12l-.57-.09c-.02.12-.05.24-.07.35.15.02.31.05.46.07-.01.04-.01.08-.02.11-.15-.02-.31-.05-.46-.07-.02.14-.04.27-.05.41.19.05.4.08.61.11zM27.33 43.29c-.05 0-.1 0-.15-.01-.06-.17-.12-.33-.18-.5-.11-.01-.22-.01-.33-.02-.01.16-.04.33-.05.49-.05 0-.1-.01-.15-.01.04-.38.08-.75.11-1.13.13.01.31.03.43.03.12.01.19.04.25.11s.08.14.08.22c0 .07-.02.11-.05.18-.03.06-.09.09-.16.11.07.17.14.35.2.53zm-.65-.65c.09.01.22.02.3.02.08 0 .12-.01.17-.05s.06-.09.06-.15-.01-.1-.05-.14-.07-.05-.15-.06-.21-.01-.3-.02c-.02.14-.03.27-.03.4zM28.35 42.13c-.11.39-.24.77-.36 1.16-.05 0-.1 0-.15.01-.15-.37-.26-.75-.37-1.14h.14c.09.32.18.63.31.94.09-.32.21-.63.31-.95.04-.01.08-.01.12-.02zM28.77 43.23c-.05 0-.1.01-.15.01-.02-.38-.04-.75-.08-1.12.05 0 .09-.01.14-.01.04.37.07.75.09 1.12zM29.76 42.76h.12c-.03.22-.11.4-.35.44a.392.392 0 0 1-.37-.14.784.784 0 0 1-.17-.42c-.01-.15 0-.3.08-.41.08-.12.16-.18.31-.19.22-.03.35.11.43.3-.04.02-.07.04-.11.05-.05-.13-.17-.24-.3-.23-.13.02-.16.06-.21.15s-.05.24-.04.35c.01.11.05.24.12.32.07.08.14.12.24.1.17-.02.23-.17.25-.32zM30.8 42.81c.01.04.01.08.02.12-.24.04-.47.07-.7.12-.06-.37-.11-.75-.16-1.12.22-.05.45-.09.68-.12.01.04.01.08.02.12-.18.03-.37.06-.55.1.02.12.03.24.05.35.14-.03.28-.06.43-.08.01.04.01.08.02.11-.15.02-.29.04-.43.08l.06.4c.17-.02.36-.05.56-.08z" />
        </g>
        <g>
            <path class="st0"
                d="M34.67 38.71c-.04-.01-.08-.03-.12-.04.12-.33.23-.66.35-.99.04.01.08.03.12.04-.12.32-.23.65-.35.99zM35.73 39.03c-.04-.01-.08-.03-.12-.04-.07-.34-.18-.68-.25-1.02-.01.02-.02.04-.02.07-.01.02-.01.04-.02.06-.09.24-.17.49-.25.73-.04-.01-.07-.02-.1-.03.11-.33.23-.66.35-.99.05.02.11.03.16.05.07.32.17.63.23.95.01-.02.02-.05.02-.07.01-.02.01-.05.02-.07.07-.22.15-.44.23-.65l.11.03c-.13.33-.24.65-.36.98zM36.3 39.25c-.04-.02-.08-.03-.12-.05.11-.29.23-.58.34-.87-.1-.04-.2-.08-.29-.11.01-.04.03-.07.04-.11.24.09.48.19.71.29-.01.04-.03.07-.04.11-.1-.04-.19-.09-.29-.13-.12.29-.23.58-.35.87zM37.44 39.65c-.02.04-.03.07-.05.11-.21-.11-.43-.21-.65-.31.13-.32.27-.64.41-.96.21.1.42.19.63.29-.01.04-.03.07-.04.11-.17-.08-.34-.16-.5-.23-.04.1-.09.2-.13.3.13.06.27.13.4.19-.01.03-.03.07-.04.1-.13-.06-.27-.13-.4-.19-.05.12-.1.23-.15.35.17.07.35.16.52.24zM38.55 39.68c-.06.17-.13.34-.19.51-.02-.01-.05-.02-.07-.03 0-.05.01-.09.01-.14-.11.06-.2.07-.32.02s-.21-.15-.25-.28-.02-.27.03-.4.14-.25.26-.32.24-.07.37-.01c.18.08.24.23.24.42-.04 0-.08-.01-.12-.02a.34.34 0 0 0-.03-.2.276.276 0 0 0-.13-.11c-.1-.04-.17-.04-.26.02s-.14.16-.18.26c-.04.1-.06.23-.04.33.02.1.09.16.17.2.08.04.13.03.2 0s.11-.09.14-.16c.01-.01.01-.04.02-.05-.08-.03-.16-.06-.23-.09.01-.04.02-.07.04-.11.09.07.22.11.34.16zM39.35 40.53c-.04-.01-.09-.03-.13-.04-.01-.17-.03-.33-.04-.5-.1-.03-.19-.07-.29-.1-.05.14-.1.29-.16.43-.04-.01-.08-.03-.12-.04l.36-.99c.11.04.27.1.37.13.1.04.16.09.2.17.04.08.03.15.02.22a.23.23 0 0 1-.09.14c-.03.04-.1.05-.16.05.01.18.03.36.04.53zm-.42-.74c.08.03.19.07.26.09.07.02.12.03.17 0 .05-.03.08-.07.09-.12.02-.05.02-.09-.01-.14-.03-.05-.05-.07-.12-.09-.07-.03-.19-.06-.26-.09-.05.11-.09.23-.13.35zM39.7 40.65c-.04-.01-.08-.03-.12-.04.11-.33.2-.67.31-1 .04.01.08.03.12.04-.11.33-.21.67-.31 1zM40.24 40.84c-.04-.01-.08-.03-.12-.04l.27-.91c-.09-.03-.18-.06-.26-.08l.03-.11c.22.07.43.13.65.19-.01.04-.02.08-.03.11-.09-.02-.18-.05-.27-.07-.09.3-.18.6-.27.91zM41.71 40.02c-.15.18-.29.36-.44.54-.03.15-.05.29-.08.44-.05-.01-.09-.01-.14-.02.02-.14.04-.28.07-.43-.09-.21-.15-.43-.21-.65l.15.03c.05.17.11.34.17.5.12-.14.24-.29.36-.43.04.01.08.02.12.02z" />
        </g>
        <g>
            <path class="st0"
                d="M22.95 27.38s-.16.88-1.79 2.18c0 0 1.32 2.34.21 5.01-1.12 2.68 1.32 4.47 1.32 4.47s.86.62 2.39.99c1.53.36 2.54 1.35 2.54 1.35s1.25-1.09 1.98-1.25 1.87-.55 1.87-.55 3.22-1.4 2.57-4.18c0 0-1.69-3.51-.1-5.98 0 0-1.12-.72-2-2.05 0 0-2.21 1.58-4.49-.73-.01.02-2.06 2.43-4.5.74z" />
            <path class="st0"
                d="M27.61 41.44l-.02-.02a6 6 0 0 0-2.52-1.34c-1.52-.36-2.39-.99-2.4-.99-.02-.02-2.45-1.84-1.34-4.51 1.1-2.63-.19-4.96-.21-4.98l-.02-.03.03-.02c1.6-1.27 1.78-2.15 1.78-2.16l.01-.06.05.03c.62.43 1.22.59 1.76.59 1.55 0 2.67-1.29 2.68-1.31l.03-.03.03.03c2.24 2.26 4.42.74 4.45.72l.03-.02.02.03c.87 1.31 1.98 2.03 1.99 2.04l.03.02-.02.03c-1.55 2.42.09 5.9.11 5.94.65 2.79-2.56 4.22-2.59 4.23-.01.01-1.16.39-1.88.55-.71.15-1.95 1.23-1.97 1.24l-.03.02zM21.2 29.58c.14.28 1.24 2.51.19 5.02-1.09 2.62 1.29 4.41 1.31 4.42.01.01.87.62 2.38.98 1.39.33 2.37 1.18 2.53 1.34.19-.16 1.29-1.09 1.97-1.23.72-.15 1.85-.54 1.87-.54.03-.01 3.18-1.42 2.55-4.14-.01-.03-1.66-3.52-.12-5.97a7.88 7.88 0 0 1-1.96-2.01c-.28.18-2.36 1.39-4.48-.72-.18.2-1.26 1.31-2.72 1.31-.54 0-1.14-.16-1.76-.57-.05.19-.36.99-1.76 2.11z" />
        </g>
        <path class="st1"
            d="M21.26 29.87s1.32 2.26.21 4.84c-.75 1.72.09 3.07.74 3.77v-9.44c-.25.25-.56.53-.95.83zM23.16 27.84v11.41c.23.12.57.29 1.01.44V28.27c-.32-.08-.66-.22-1.01-.43zM25.11 28.33v11.63c.02.01.05.01.07.02.35.08.68.19.97.32V28.05c-.31.14-.66.25-1.04.28zM27.55 27.06s-.17.19-.46.42V40.8c.4.26.63.48.63.48s.16-.14.41-.32V27.55c-.2-.14-.39-.3-.58-.49zM29.06 28.06v12.28c.23-.13.45-.23.64-.27.12-.03.26-.06.4-.09V28.27c-.32-.01-.67-.07-1.04-.21zM31.06 28.17v11.54c.3-.09.51-.16.51-.16s.17-.07.42-.21V27.79c-.11.07-.45.27-.93.38zM34.14 35.51s-1.74-3.42-.16-5.8c0 0-.44-.27-1.03-.85v9.81c.79-.67 1.54-1.73 1.19-3.16z" />
        <path class="st3"
            d="M33.99 29.42s-1.12-.72-2-2.05c0 0-2.21 1.58-4.49-.73 0 0-2.05 2.42-4.49.73 0 0-.16.88-1.79 2.18 0 0 .78 1.38.64 3.22h11.52c-.15-1.07-.06-2.3.61-3.35z" />
        <g>
            <path class="st0"
                d="M27.61 41.66l-.13-.13c-.01-.01-.99-.95-2.44-1.3-1.55-.37-2.43-.99-2.46-1.02-.03-.02-2.56-1.92-1.39-4.71 1.06-2.55-.18-4.81-.2-4.84l-.08-.15.13-.11c1.54-1.22 1.72-2.05 1.72-2.06l.06-.3.25.17c2.27 1.57 4.15-.6 4.23-.69l.14-.17.15.16c2.13 2.16 4.15.77 4.23.71l.17-.12.12.17c.85 1.28 1.93 1.99 1.94 1.99l.17.11-.11.17c-1.5 2.34.1 5.74.12 5.78l.01.04c.68 2.91-2.65 4.4-2.69 4.41l-.02.01c-.05.02-1.16.4-1.89.55-.55.12-1.55.91-1.89 1.2l-.14.13zm-6.2-12.04c.28.58 1.13 2.66.14 5.04-1.04 2.49 1.16 4.16 1.26 4.23.01.01.85.6 2.32.95 1.26.3 2.17.99 2.5 1.28.35-.29 1.31-1.04 1.94-1.18.68-.14 1.74-.5 1.84-.54.2-.09 3.03-1.4 2.45-3.93-.15-.32-1.6-3.54-.18-5.98-.33-.24-1.11-.86-1.79-1.84-.58.32-2.48 1.13-4.43-.71-.52.51-2.31 2.01-4.39.75-.18.36-.59 1.05-1.66 1.93z" />
        </g>
        <path class="st0"
            d="M28.8 31.18l-.09-.06c-.1-.08-.21-.15-.31-.23-.02-.01-.03-.02-.05-.03h-.02c-.06.04-.11.08-.17.12-.1.07-.19.14-.29.2h-.01v-.01c.06-.17.13-.34.19-.51v-.01c-.15-.1-.29-.2-.44-.3-.01 0-.01-.01-.02-.01h.56c.01 0 .01 0 .01-.01.06-.16.11-.32.17-.48 0-.01.01-.02.01-.03 0 .01.01.03.01.04.03.11.07.22.1.33.01.05.03.1.04.14 0 .01.01.01.01.01.14 0 .28 0 .42-.01h.14l-.01.01c-.15.1-.3.2-.46.31-.01 0-.01.01 0 .01.1.18.15.34.21.52zM30.46 31.18l-.09-.06c-.1-.08-.21-.15-.31-.23-.02-.01-.03-.02-.05-.03h-.02c-.06.04-.11.08-.17.12-.1.07-.19.14-.29.2h-.01v-.01c.06-.17.13-.34.19-.51v-.01c-.15-.1-.29-.2-.44-.3-.01 0-.01-.01-.02-.01h.56c.01 0 .01 0 .01-.01.06-.16.11-.32.17-.48 0-.01.01-.02.01-.03 0 .01.01.03.01.04.03.11.07.22.1.33.01.05.03.1.04.14 0 .01.01.01.01.01.14 0 .28 0 .42-.01h.14l-.01.01c-.15.1-.3.2-.46.31-.01 0-.01.01 0 .01.1.18.15.34.21.52zM32.19 31.18l-.09-.06c-.1-.08-.21-.15-.31-.23-.02-.01-.03-.02-.05-.03h-.02c-.06.04-.11.08-.17.12-.1.07-.19.14-.29.2h-.01v-.01c.06-.17.13-.34.19-.51v-.01c-.15-.1-.29-.2-.44-.3-.01 0-.01-.01-.02-.01h.56c.01 0 .01 0 .01-.01.06-.16.11-.32.17-.48 0-.01.01-.02.01-.03 0 .01.01.03.01.04.03.11.07.22.1.33.01.05.03.1.04.14 0 .01.01.01.01.01.14 0 .28 0 .42-.01h.14l-.01.01c-.15.1-.3.2-.46.31-.01 0-.01.01 0 .01.1.18.15.34.21.52zM23.69 31.18l-.09-.06c-.1-.08-.21-.15-.31-.23-.02-.01-.03-.02-.05-.03h-.02c-.06.04-.11.08-.17.12-.1.07-.19.14-.29.2h-.01v-.01c.06-.17.13-.34.19-.51v-.01c-.15-.1-.29-.2-.44-.3-.01 0-.01-.01-.02-.01h.56c.01 0 .01 0 .01-.01.06-.16.11-.32.17-.48 0-.01.01-.02.01-.03 0 .01.01.03.01.04.03.11.07.22.1.33.01.05.03.1.04.14 0 .01.01.01.01.01.14 0 .28 0 .42-.01h.14l-.01.01c-.15.1-.3.2-.46.31-.01 0-.01.01 0 .01.1.18.15.34.21.52zM25.35 31.18l-.09-.06c-.1-.08-.21-.15-.31-.23-.02-.01-.03-.02-.05-.03h-.02c-.06.04-.11.08-.17.12-.1.07-.19.14-.29.2h-.01v-.01c.06-.17.13-.34.19-.51v-.01c-.15-.1-.29-.2-.44-.3-.01 0-.01-.01-.02-.01h.56c.01 0 .01 0 .01-.01.06-.16.11-.32.17-.48 0-.01.01-.02.01-.03 0 .01.01.03.01.04.03.11.07.22.1.33.01.05.03.1.04.14 0 .01.01.01.01.01.14 0 .28 0 .42-.01h.14l-.01.01c-.15.1-.3.2-.46.31-.01 0-.01.01 0 .01.1.18.15.34.21.52zM27.08 31.18l-.09-.06c-.1-.08-.21-.15-.31-.23-.02-.01-.03-.02-.05-.03h-.02c-.06.04-.11.08-.17.12-.1.07-.19.14-.29.2h-.01v-.01c.06-.17.13-.34.19-.51v-.01c-.15-.1-.29-.2-.44-.3-.01 0-.01-.01-.02-.01h.56c.01 0 .01 0 .01-.01.06-.16.11-.32.17-.48 0-.01.01-.02.01-.03 0 .01.01.03.01.04.03.11.07.22.1.33.01.05.03.1.04.14 0 .01.01.01.01.01.14 0 .28 0 .42-.01h.14l-.01.01c-.15.1-.3.2-.46.31-.01 0-.01.01 0 .01.09.18.15.34.21.52-.01 0-.01 0 0 0z" />
        <g>
            <path class="st3"
                d="M6.81 33.96l-.08-.25.17-.05.23.72c.15.47.13.73.02.95-.14.26-.38.41-.6.48-.43.14-.95.05-1.18-.68l-.28-.89.17-.05.08.25 1.47-.48zm-1.3 1.06c.1.33.38.51.89.35.39-.12.72-.42.56-.93l-.04-.12-1.48.48.07.22zM7.5 36l-.1-.24.16-.07.54 1.28-.4.17-.08-.18.24-.1-.21-.5-.62.26.16.38.21-.09.08.18-.63.26-.08-.18.25-.1-.16-.38-.65.27.22.52.26-.11.08.18-.42.18-.54-1.3.16-.07.1.24L7.5 36zM8.13 37.43l-.12-.23.16-.08.41.8c.2.4-.02.67-.23.78-.29.15-.61.04-.76-.25-.04-.08-.06-.15-.09-.26l-.58.3.12.24-.16.07-.41-.81.16-.08.12.23 1.38-.71zm-.45.66c.02.07.03.1.05.13.08.16.25.2.43.11.22-.11.28-.29.18-.49l-.04-.07-.62.32zM9.25 39.04l.1.17-1.17 1.49.08.14-.15.09-.38-.63.15-.09.09.15.31-.4-.29-.49-.49.1.09.14-.15.09-.27-.45.15-.09.08.14 1.85-.36zm-.85.77l.4-.5v-.01l-.62.13.22.38zM9.85 40.38l-.15-.21.14-.11.49.67c.24.33.18.63-.04.79-.17.12-.41.14-.65-.08h-.01c.04.11.07.2.05.32-.02.15-.11.38-.26.67l.11.14-.13.13-.32-.43.01-.02.2-.38c.15-.29.18-.48.12-.57l-.05-.07-.53.39.16.21-.14.11-.55-.73.14-.11.15.21 1.26-.93zm-.31.79c.12.16.3.18.48.05s.22-.31.1-.48l-.04-.06-.58.44.04.05zM11.11 42.16l-.3-.34-.2.17-.13-.15.47-.41.13.15-.07.06.85.98.07-.06.13.15-.47.41-.13-.15.2-.17-.3-.34-1.1.96.17.2-.13.12-.6-.69.13-.12.17.2 1.11-.97zM12.17 43.23l-.19-.18.12-.13.51.47-.12.13-.37 1.19 1.16-.46.12-.13.52.49-.12.13-.19-.17-1.06 1.13.19.17-.12.13-.66-.62.12-.13.2.18.82-.88-1.42.56-.05-.05.44-1.41-.79.84.19.18-.12.13-.54-.5.12-.13.19.18 1.05-1.12zM14.17 45.01l-.21-.16.11-.14 1.1.84-.27.35-.16-.12.16-.21-.43-.33-.41.53.33.25.14-.18.16.12-.42.54-.16-.12.17-.22-.33-.25-.43.56.45.35.17-.22.16.12-.28.36-1.12-.86.11-.14.2.16.96-1.23zM15.41 45.94l-.22-.14.1-.15.52.33-.1.15.28 1.57.63-1-.23-.14.1-.15.64.4-.1.15-.22-.14-.93 1.46-.17-.11-.33-1.79-.62.97.22.14-.1.15-.62-.39.1-.15.22.14.83-1.3zM17.75 47.43l-.4-.2-.12.23-.18-.09.28-.56.18.09-.04.09 1.15.58.04-.09.18.09-.28.56-.18-.09.12-.23-.4-.2-.66 1.3.23.12-.08.16-.81-.41.08-.16.23.12.66-1.31zM20.68 48.35c.58.2.86.74.67 1.28-.19.55-.74.8-1.32.6-.58-.2-.86-.74-.67-1.29.19-.55.74-.79 1.32-.59zm-.59 1.71c.29.1.65-.05.83-.6.13-.38.06-.82-.3-.94-.3-.11-.65.07-.83.57-.18.52 0 .86.3.97zM22.05 49l-.25-.06.04-.17 1.34.33-.11.43-.19-.05.06-.25-.52-.13-.17.67.39.1.06-.23.19.05-.16.66-.19-.05.06-.26-.39-.1-.17.67.26.06-.04.17-.88-.22.04-.17.25.06.38-1.51zM25.49 50.29l.08-.65-.26-.03.02-.18.91.11-.02.18-.26-.03-.18 1.54.26.03-.02.18-.91-.11.02-.18.26.03.08-.67-.87-.1-.08.67.27.03-.02.18-.92-.11.02-.18.27.03.18-1.54-.27-.03.02-.18.92.11-.02.18-.27-.03-.08.65.87.1zM27.46 49.52c.62.01 1.05.43 1.04 1.01-.01.58-.45.99-1.07.98-.61-.01-1.05-.43-1.04-1.01.01-.58.45-.99 1.07-.98zm-.03 1.81c.31 0 .6-.25.61-.83.01-.4-.2-.8-.58-.8-.32-.01-.6.27-.61.8-.01.55.27.83.58.83zM28.95 49.73l-.26.03-.02-.18.69-.07.02.18.66 1.07.42-1.17-.02-.18.71-.07.02.18-.25.03.16 1.55.25-.03.02.18-.9.09-.02-.18.27-.03-.12-1.2h-.01l-.51 1.44-.07.01-.77-1.26h-.01l.12 1.15.26-.03.02.18-.73.07-.02-.18.26-.03-.17-1.55zM31.61 49.4l-.25.05-.04-.18 1.37-.27.09.43-.19.04-.05-.26-.54.11.13.66.4-.08-.05-.23.19-.04.13.67-.19.04-.05-.27-.4.08.14.69.56-.11-.06-.28.2-.03.09.45-1.38.28-.04-.18.25-.05-.31-1.52zM33.13 49.06l-.25.07-.05-.17.87-.24.05.17-.25.07.42 1.5.59-.16-.08-.28.19-.05.13.45-1.4.39-.05-.17.25-.07-.42-1.51zM35.1 48.22l.19-.07 1.25 1.43.15-.06.06.17-.69.26-.06-.17.17-.06-.33-.38-.53.2.01.5.16-.06.06.17-.49.18-.06-.17.15-.06-.04-1.88zm.61.97l-.42-.49h-.01l.01.64.42-.15zM36.53 47.9l-.23.11-.08-.16.55-.27.08.16 1.49.58-.52-1.06-.24.12-.08-.16.68-.33.08.16-.24.12.76 1.55-.18.09-1.7-.65.51 1.04.23-.12.08.16-.66.32-.08-.16.23-.11-.68-1.39zM38.63 46.81l-.22.14-.09-.15.64-.4c.42-.26.68-.31.92-.25.29.07.5.27.62.46.24.38.28.91-.37 1.32l-.79.49-.09-.15.22-.14-.84-1.32zm1.35 1c.29-.18.4-.5.12-.95-.22-.35-.59-.59-1.04-.31l-.1.06.82 1.32.2-.12zM41.6 46.16l.15-.12.14.18c.18.06.36.03.47-.06.11-.09.13-.26.04-.38-.19-.24-.49-.01-.93-.05-.18-.02-.29-.07-.4-.21-.19-.23-.14-.53.12-.74.12-.09.23-.14.37-.15l-.09-.11.15-.12.37.46-.15.12-.14-.17c-.14-.03-.26 0-.35.08-.12.1-.15.26-.07.37.24.3.9-.28 1.31.23.2.25.16.58-.1.79-.13.11-.27.16-.42.16l.09.11-.15.12-.41-.51zM42.21 44.2l-.19.18-.12-.13 1.01-.95.3.32-.14.13-.18-.19-.4.37.46.49.3-.28-.16-.17.14-.13.47.5-.14.13-.18-.2-.3.28.48.52.42-.39-.19-.21.14-.13.31.34-1.03.96-.12-.13.19-.18-1.07-1.13zM45.46 43.1c-.01.21-.14.47-.32.67-.38.42-.96.45-1.37.08-.35-.32-.54-.92-.05-1.46.1-.11.2-.18.33-.27l-.05-.08.09-.1.42.39-.11.12a.432.432 0 0 0-.57.08c-.24.26-.16.61.21.95.45.41.84.31 1.02.1.14-.15.23-.39.24-.61l.16.13zM44.43 41.93l-.14-.11.55-.73.14.11-.16.21.77.58c.28.21.57.24.76-.01.16-.21.12-.47-.22-.73l-.76-.57-.16.21-.14-.11.5-.67.14.11-.15.2.74.56c.43.32.49.74.17 1.16-.33.44-.75.45-1.15.15l-.75-.57-.14.21zM45.96 39.81l-.13.22-.15-.09.43-.71c.21-.35.51-.4.74-.27.18.11.29.33.17.63h.01c.09-.08.16-.14.28-.17.14-.04.39-.05.72-.02l.09-.15.15.09-.27.47h-.02l-.43-.04c-.33-.03-.51.01-.57.11l-.04.07.57.34.14-.22.15.09-.47.77-.15-.09.13-.22-1.35-.81zm.85-.02c.1-.17.05-.35-.13-.46-.19-.12-.37-.08-.48.09l-.04.06.61.37.04-.06zM46.97 38.08l-.12.24-.16-.08.41-.81.16.08-.12.23 1.38.71.12-.23.16.08-.41.81-.16-.08.12-.24-1.38-.71zM47.72 36.71l-.18.42.24.1-.08.18-.58-.25.08-.18.09.04.5-1.19-.09-.04.08-.18.58.25-.08.18-.24-.1-.18.42 1.34.57.1-.24.16.07-.36.84-.16-.07.1-.24-1.32-.58zM47.94 35.51l.27-.85.17.05-.06.2.61-.21-.39-.49-.06.2-.17-.05.2-.63.17.05-.06.19.55.72.77.25.08-.25.17.05-.28.86-.17-.05.08-.25-.77-.25-.87.29-.07.22-.17-.05z" />
            <g>
                <path class="st3"
                    d="M4.14 30.42l-.23.01-.07-1.17.23-.01.02.34 1.24-.07c.46-.03.76-.25.74-.64-.02-.34-.27-.57-.83-.54l-1.21.06.02.33-.23.01-.06-1.08.23-.01.01.32 1.2-.07c.69-.04 1.1.32 1.14 1 .04.71-.36 1.07-1 1.11l-1.22.07.02.34zM5.99 26.91a.324.324 0 1 1-.01.65.324.324 0 1 1 .01-.65zM5.48 26.48l.02-.25.3.02c.21-.11.34-.31.36-.49.02-.18-.13-.35-.32-.37-.39-.03-.44.45-.88.82-.18.15-.32.21-.55.19-.38-.03-.62-.35-.58-.78.02-.19.07-.34.18-.48l-.18-.01.02-.25.77.06-.02.26-.28-.02c-.15.11-.23.24-.24.4-.02.2.1.38.28.39.48.03.54-1.09 1.38-1.02.41.03.68.37.64.8-.02.22-.1.4-.23.53l.19.02-.02.25-.84-.07zM6.27 24.02c.18.03.3.19.27.37a.32.32 0 0 1-.37.27.321.321 0 0 1-.27-.37c.03-.18.19-.3.37-.27zM7.05 20.9c.11.24.12.62.03.96-.19.71-.84 1.09-1.52.9-.59-.16-1.17-.73-.92-1.64.05-.19.11-.33.22-.5l-.11-.06.05-.17.72.19-.06.21c-.3-.02-.52.14-.6.44-.12.44.18.79.81.96.75.2 1.14-.15 1.23-.5.07-.25.03-.58-.09-.84l.24.05zM5.22 20.01l-.21-.09.44-1.09.21.09-.13.32 1.15.47c.42.17.79.1.94-.27.13-.32 0-.63-.52-.84l-1.13-.46-.12.31-.21-.09.41-1 .21.09-.12.3 1.11.45c.64.26.86.76.6 1.39-.27.66-.78.81-1.38.57l-1.12-.46-.13.31zM7.78 17.68l.12-.22.26.14c.24-.02.44-.14.53-.31.09-.16.02-.38-.14-.46-.34-.19-.59.24-1.13.4-.22.07-.38.06-.58-.05-.34-.18-.43-.57-.22-.95.09-.17.2-.28.36-.36l-.16-.08.12-.22.68.37-.12.22-.25-.13c-.19.04-.31.13-.38.27-.1.18-.05.39.1.47.43.23.93-.78 1.67-.37.36.2.47.61.27.99-.1.19-.25.33-.42.4l.17.09-.12.22-.76-.42zM8.03 14.61l-.33.48.28.19-.14.21-.67-.45.14-.21.1.07.93-1.38-.1-.07.14-.21.67.45-.13.21-.28-.19-.33.49 1.56 1.05.19-.28.19.13-.65.97-.19-.13.19-.28-1.57-1.05zM9.57 11.93c.52-.6 1.29-.68 1.86-.19.57.49.6 1.27.09 1.87-.52.6-1.29.68-1.86.19-.57-.5-.61-1.28-.09-1.87zm1.76 1.52c.26-.3.24-.8-.32-1.28-.39-.34-.95-.46-1.28-.09-.27.31-.23.82.29 1.26.55.46 1.05.41 1.31.11zM11.23 10.52l-.25.22-.15-.17.68-.59.15.17 1.48.63-.44-1.54-.15-.17.7-.61.15.17-.25.22 1.32 1.51.25-.22.15.17-.88.77-.15-.17.26-.23-1.02-1.17-.01.01.54 1.9-.07.06-1.75-.75-.01.01.97 1.12.25-.23.15.17-.71.62-.15-.17.25-.22-1.31-1.51zM14.64 9.55l.21-.14.17.25c.22.09.45.07.61-.03.15-.1.19-.32.09-.48-.22-.32-.63-.06-1.19-.17a.656.656 0 0 1-.49-.31c-.21-.32-.12-.7.24-.94a.82.82 0 0 1 .49-.16l-.1-.15.21-.14.43.64-.21.14-.16-.23c-.18-.05-.33-.03-.46.06-.18.11-.23.32-.13.46.28.4 1.18-.26 1.66.44.23.34.14.76-.22 1-.18.12-.37.18-.56.16l.11.16-.21.14-.49-.7zM16.96 6.14l.23-.12 1.79 1.66.18-.09.1.21-.85.42-.1-.21.21-.1-.48-.44-.65.33.08.64.19-.1.1.21-.61.3-.1-.21.19-.09-.28-2.41zm.91 1.17l-.6-.57h-.01l.1.82.51-.25zM18.93 5.53l-.31.11-.08-.22.75-.26.08.22 1.81.98-.5-1.44-.33.12-.08-.22.92-.32.08.22-.32.11.74 2.11-.24.08-2.07-1.1.49 1.41.32-.11.08.22-.89.31-.08-.22.31-.11-.68-1.89zM22 4.54l-.33.07-.05-.23.95-.2c.63-.13.96-.07 1.22.1.32.21.48.55.54.84.12.56-.06 1.22-1.03 1.43l-1.18.25-.05-.23.33-.07-.4-1.96zm1.18 1.8c.43-.09.71-.43.57-1.09-.11-.52-.45-.98-1.11-.84l-.15.03.41 1.96.28-.06zM25.84 3.92l-.33.02-.01-.24 1.05-.05c.55-.03.82.23.84.57.01.27-.13.48-.47.59v.01c.55.03.72.29.73.57.02.32-.22.69-.81.72l-1.22.06-.01-.23.33-.02-.1-2zm.61.84c.24-.01.41-.15.39-.49-.01-.25-.16-.39-.39-.38l-.11.01.04.87.07-.01zm.1 1.13c.4-.02.55-.2.53-.48-.01-.29-.22-.44-.59-.42l-.11.01.04.9.13-.01zM29.44 3.63c.79.05 1.32.63 1.27 1.37-.05.75-.65 1.24-1.44 1.19-.79-.06-1.32-.63-1.27-1.38.05-.74.65-1.24 1.44-1.18zm-.16 2.32c.39.03.79-.28.84-1.02.03-.52-.2-1.04-.69-1.07-.41-.03-.79.31-.83 1-.06.7.28 1.07.68 1.09zM31.53 4.13l-.33-.06.04-.23 1.05.2c.51.1.72.44.65.78-.05.26-.27.5-.69.49v.01c.14.07.24.13.33.26.11.16.23.46.34.86l.23.04-.04.23-.67-.13-.01-.03-.13-.53c-.11-.41-.25-.62-.39-.65l-.11-.02-.16.84.33.06-.04.23-1.14-.22.04-.23.32.06.38-1.96zm.4 1.01c.25.05.44-.09.5-.36.05-.28-.07-.49-.32-.54l-.09-.02-.17.9.08.02zM34.15 4.69l-.33-.1.07-.22.92.3c.61.2.87.41 1.01.69.18.34.15.71.06.99-.18.55-.66 1.03-1.6.73l-1.14-.37.07-.22.33.1.61-1.9zm.14 2.15c.42.13.83-.02 1.03-.67.16-.5.09-1.08-.55-1.28l-.15-.05-.61 1.91.28.09zM36.89 5.65l-.3-.13.09-.21 1.64.72-.23.52-.23-.1.14-.31-.64-.28-.36.78.49.21.12-.27.23.1-.36.81-.23-.1.14-.32-.49-.22-.37.83.67.3.15-.33.23.1-.24.54-1.66-.73.09-.21.3.13.82-1.83zM38.82 6.55l-.29-.16.11-.2.93.53c.45.26.54.65.37.95-.13.23-.41.39-.81.25v.01c.11.11.19.2.23.35.05.19.08.51.05.92l.2.11-.11.19-.6-.34v-.03l.03-.55c.03-.42-.03-.66-.16-.74l-.1-.05-.42.74.29.17-.11.2-1.01-.58.11-.2.29.16 1-1.73zm.06 1.08c.23.13.45.06.59-.19.14-.25.09-.48-.14-.61l-.08-.04-.45.8.08.04zM41.9 8.48l-.26-.2.14-.18.91.71c.45.35.34.8.16 1.03-.26.33-.69.38-1.03.12-.09-.07-.15-.14-.25-.25l-.52.66.27.21-.14.18-.92-.72.14-.18.26.2 1.24-1.58zm-.17 1.02c.06.07.09.1.13.13.18.14.4.1.56-.11.19-.25.17-.5-.05-.67l-.08-.06-.56.71zM43.72 9.96l-.24-.23.16-.17.77.75c.38.36.36.76.12 1.01-.19.19-.5.27-.84.04l-.01.01c.08.14.13.24.14.4 0 .19-.05.51-.18.9l.17.16-.16.17-.49-.48.01-.03.17-.53c.13-.4.13-.65.02-.75l-.08-.08-.59.62.24.23-.16.17-.84-.81.16-.17.24.23 1.39-1.44zm-.22 1.07c.19.18.42.17.62-.03.2-.21.21-.45.02-.63l-.07-.06-.64.66.07.06zM46.36 12.35c.5.61.45 1.39-.13 1.86-.58.48-1.35.38-1.85-.23s-.45-1.39.13-1.86c.58-.48 1.35-.38 1.85.23zm-1.8 1.48c.25.3.75.38 1.32-.09.4-.33.62-.86.3-1.24-.26-.32-.77-.36-1.3.08-.54.44-.57.94-.32 1.25zM47.56 14.64l-.32-.49-.28.18-.14-.21.68-.44.14.21-.1.07.9 1.4.1-.07.14.21-.68.45-.14-.21.28-.18-.32-.49-1.59 1.02.18.28-.19.12-.62-.99.19-.12.18.28 1.59-1.02zM48.73 16.35l-.15-.3.21-.1.81 1.59-.51.26-.12-.23.3-.16-.32-.63-.77.39.24.47.27-.14.12.23-.78.4-.12-.23.31-.16-.24-.47-.81.41.33.65.32-.16.12.23-.53.27-.83-1.62.21-.1.15.3 1.79-.9zM48.47 20.73c-.23-.13-.47-.43-.59-.75-.27-.68.03-1.37.69-1.63.57-.22 1.37-.1 1.72.77.07.18.1.33.12.54l.13-.02.07.17-.69.27-.08-.2c.25-.16.34-.42.23-.71-.16-.42-.61-.53-1.22-.29-.73.28-.83.79-.7 1.13.1.25.32.49.57.63l-.25.09zM50.56 21.22l-.15-.56-.33.09-.07-.25.78-.21.07.25-.12.03.43 1.61.12-.03.07.25-.78.21-.07-.25.33-.09-.15-.56-1.82.49.09.33-.22.06-.3-1.13.22-.06.09.33 1.81-.51zM51.15 23.25l-.06-.34.23-.04.2 1.15-.23.04-.06-.32-1.97.35.06.32-.23.04-.2-1.15.23-.04.06.34 1.97-.35zM51.77 25.84c.06.79-.43 1.39-1.18 1.45-.75.05-1.32-.47-1.38-1.26-.06-.79.43-1.39 1.18-1.45.75-.05 1.32.48 1.38 1.26zm-2.33.17c.03.39.39.74 1.13.68.52-.04 1-.35.97-.84-.03-.41-.42-.74-1.1-.69-.71.06-1.03.45-1 .85zM51.57 27.98l.02-.33.23.01-.05.79-.23-.01-1.6 1.3 1.52.09.02-.35.23.01-.06.97-.23-.01.02-.34-2.23-.13.02-.25 1.81-1.49-1.49-.09-.02.34-.23-.01.06-.94.23.01-.02.33 2 .1z" />
            </g>
            <g>
                <circle class="st2" cx="5.51" cy="32.38" r=".49" />
                <circle class="st2" cx="49.94" cy="32.38" r=".49" />
            </g>
        </g>
    </g>
</svg>