<svg version="1.1" id="Layer_1" xmlns="http://www.w3.org/2000/svg" x="0" y="0" viewBox="0 0 56 56" xml:space="preserve"><style>.st0{fill:#fff}.st1{fill:#c41230}.st2{fill:#989a9d}.st3{fill:#005288}.st5{fill:#cfab7a}.st6{fill:#5e9732}.st7{fill:#0078ae}</style><circle class="st0" cx="28.01" cy="27.99" r="27.06"/><circle class="st0" cx="28.01" cy="27.99" r="20.18"/><path class="st1" d="M28.01 48.43c-11.27 0-20.44-9.17-20.44-20.44S16.74 7.55 28.01 7.55s20.44 9.17 20.44 20.44-9.17 20.44-20.44 20.44zm0-40.36C17.03 8.07 8.09 17 8.09 27.99s8.93 19.92 19.92 19.92 19.92-8.93 19.92-19.92S38.99 8.07 28.01 8.07z"/><circle class="st2" cx="28.01" cy="27.99" r="19.12"/><path class="st2" d="M28.01 55.98c-7.48 0-14.5-2.91-19.79-8.2C2.93 42.49.02 35.46.02 27.99c0-7.48 2.91-14.5 8.2-19.79C13.51 2.91 20.53 0 28.01 0c7.48 0 14.5 2.91 19.79 8.2 5.29 5.29 8.2 12.32 8.2 19.79 0 7.48-2.91 14.5-8.2 19.79s-12.31 8.2-19.79 8.2zm0-54.12C13.6 1.86 1.88 13.58 1.88 27.99S13.6 54.12 28.01 54.12 54.14 42.4 54.14 27.99 42.42 1.86 28.01 1.86z"/><path class="st3" d="M27.94 45.11c-1.39 0-2.67-.17-3.79-.49-1.96-.57-3.09-1.19-3.38-1.83-.12-.28-.04-.46-.02-.5l.97-1.88.01-.02c.02-.02.39-.5 1.02-.5.1 0 .2.01.3.04-.05-.03-.1-.06-.16-.08-.01 0-.04-.01-.12-.01-.27 0-.93.1-2.28.74-1.64.78-3.47 1.54-3.49 1.54-.06.02-1.48.61-2.82.61-.38 0-.72-.05-1.01-.14l-.04-.01-3.63-3.13.99.31c.01 0 1 .3 2.07.3.4 0 .76-.04 1.08-.12 1.41-.36 3.75-1.21 3.87-1.25.13-.05 1.81-.76 2.54-.94.14-.03.28-.05.43-.05.62 0 1.1.3 1.12.31l1.58 1.11c.37.16 1.91.88 1.56 1.72-.08.2-.26.42-.63.53.9.3 2.31.65 4 .65 1.4 0 2.75-.24 4.04-.71-.24-.07-.4-.19-.48-.37-.16-.33-.01-.79.46-1.38.39-.5.49-.66.51-.71l-.08-.09c.05-.05 1.18-1.14 2.68-1.14.33 0 .65.05.96.16 2.07.69 4.15 1.54 4.17 1.55.01 0 1.71.64 2.84.64.1 0 .2-.01.28-.02 1.15-.14 2.44-.41 2.45-.42l.88-.19-3.51 2.86h-.01c-.02.02-.61.39-1.67.39-.79 0-1.64-.2-2.52-.61-2.55-1.16-3.68-1.67-3.68-1.67s-1-.42-1.89-.42c-.24 0-.44.03-.62.09.11-.01.22-.02.33-.02.39 0 .66.09.81.26.35.39.98 1.89 1.05 2.07.01.03.27.74-.83 1.54-.69.5-2.42.86-2.49.88-.04 0-1.7.4-3.85.4z"/><path class="st0" d="M35.24 37.82c.29 0 .58.04.89.14 2.08.7 4.15 1.55 4.15 1.55s1.73.65 2.93.65c.11 0 .21-.01.31-.02 1.17-.14 2.47-.42 2.47-.42L43.18 42s-.54.35-1.55.35c-.63 0-1.45-.14-2.43-.59-2.56-1.16-3.68-1.67-3.68-1.67s-1.03-.44-1.98-.44c-.3 0-.59.04-.84.16-.4.18-.28.45-.28.45s.42-.11.83-.11c.26 0 .52.04.65.19.34.37 1.01 2 1.01 2s.22.57-.75 1.28c-.66.48-2.41.84-2.41.84s-1.68.4-3.83.4c-1.17 0-2.48-.12-3.73-.48-3.74-1.09-3.26-2.03-3.26-2.03l.96-1.86s.31-.41.85-.41c.23 0 .5.08.81.31 0 0-.08-.6-.61-.77 0 0-.05-.02-.19-.02-.3 0-.99.1-2.37.76-1.65.79-3.48 1.54-3.48 1.54s-1.42.59-2.74.59c-.33 0-.65-.04-.95-.13l-2.81-2.42s1.01.31 2.14.31c.38 0 .76-.03 1.13-.13 1.47-.37 3.9-1.26 3.9-1.26s1.77-.75 2.51-.93c.13-.03.26-.05.38-.05.56 0 1 .28 1 .28l1.59 1.12s1.76.75 1.47 1.44c-.16.38-.6.46-.97.46-.32 0-.6-.06-.6-.06s2.14 1.08 5.13 1.08c1.52 0 3.25-.28 5.04-1.11 0 0-.21.03-.45.03-.58 0-1.41-.19-.4-1.47.56-.71.6-.85.54-.85-.04 0-.12.06-.12.06s1.12-1.04 2.55-1.04m0-.43c-1.59 0-2.78 1.15-2.83 1.2l.56.65c-.02.01-.07.03-.14.03a.42.42 0 0 1-.35-.19.376.376 0 0 1-.05-.34c-.01.01-.07.15-.49.68-.19.25-.79.99-.49 1.61.04.07.09.15.16.23-1.13.36-2.31.55-3.52.55-1.38 0-2.57-.24-3.44-.49.15-.13.23-.27.28-.39.42-1.01-1.21-1.8-1.65-1.99l-1.56-1.09-.01-.01-.01-.01a2.44 2.44 0 0 0-1.23-.35c-.17 0-.33.02-.48.06-.74.18-2.41.88-2.57.95-.17.06-2.46.89-3.84 1.24-.3.08-.64.11-1.02.11-1.05 0-2-.29-2.01-.3l-1.98-.62 1.57 1.36 2.81 2.42.07.06.08.03c.31.1.68.15 1.08.15 1.39 0 2.84-.6 2.91-.62.02-.01 1.86-.76 3.5-1.55.35-.17.65-.3.91-.39l-.94 1.81c-.04.07-.14.33.02.68.31.72 1.46 1.36 3.51 1.96 1.14.33 2.44.5 3.85.5 2.13 0 3.79-.38 3.93-.41.22-.04 1.86-.4 2.57-.91 1.21-.88.94-1.69.9-1.78-.11-.26-.63-1.49-1-2.01.53.11.97.29 1.02.31.09.04 1.24.56 3.67 1.67.91.41 1.79.62 2.61.62 1.11 0 1.72-.38 1.79-.42l.02-.01.02-.01 2.81-2.28 1.4-1.14-1.76.38c-.01 0-1.29.28-2.43.41-.08.01-.16.01-.26.01-1.07 0-2.67-.58-2.77-.62-.13-.05-2.16-.88-4.17-1.55-.36-.14-.7-.2-1.05-.2z"/><path fill="none" stroke="#005288" stroke-width=".176" stroke-miterlimit="10" d="M27.81 12.77v-.53"/><ellipse class="st0" cx="27.81" cy="20.74" rx="9.28" ry="9"/><path class="st3" d="M27.81 12.22c-.52 0-1.05.06-1.56.18-.25.06-.5.15-.73.27-.11.06-.22.13-.31.22s-.16.2-.15.32c0 .12.07.22.16.31.09.08.2.15.32.21.23.11.48.18.73.24.5.11 1.03.16 1.54.16.52 0 1.04-.04 1.54-.16.25-.06.5-.13.73-.24.11-.06.22-.12.32-.21.09-.08.16-.19.16-.31s-.07-.23-.15-.32c-.09-.09-.2-.16-.31-.22-.23-.12-.48-.21-.73-.27-.51-.12-1.04-.17-1.56-.18zm0-.01c.52 0 1.05.05 1.56.17.25.06.51.14.74.26.12.06.23.13.33.22.09.09.17.21.17.35 0 .14-.08.26-.17.35-.1.09-.21.16-.33.22-.23.12-.49.2-.74.26-.51.12-1.04.17-1.56.17s-1.05-.05-1.56-.17c-.25-.06-.51-.14-.74-.26-.12-.06-.23-.13-.33-.22a.51.51 0 0 1-.17-.35c0-.14.08-.26.17-.35.1-.09.21-.16.33-.22.23-.12.49-.2.74-.26.51-.12 1.04-.17 1.56-.17z"/><path class="st3" d="M22.85 13.72c-.16.21-.24.48-.18.72.06.25.24.44.45.59.42.3.92.48 1.42.62.5.13 1.02.24 1.54.3l.19.02h.1l.1.01.39.02c.26.01.53.01.79.01 1.05.01 2.11-.04 3.12-.27.25-.06.5-.14.74-.23l.36-.15c.12-.06.23-.12.35-.18.23-.13.45-.27.64-.44.19-.17.38-.37.5-.6h.01c-.11.24-.29.45-.48.63s-.41.34-.64.47c-.11.07-.23.13-.35.19-.12.06-.24.11-.36.16-.24.1-.49.19-.75.25-.51.13-1.04.2-1.56.24-.53.04-1.05.06-1.58.06-.26 0-.53-.01-.79-.02s-.53-.02-.79-.06c-.52-.07-1.04-.17-1.55-.32-.5-.15-1.01-.35-1.43-.67-.21-.16-.39-.37-.45-.64-.06-.24.03-.51.21-.71z"/><path class="st3" d="M20.79 15.62c-.1.29-.07.61.08.87.14.27.37.47.63.62.52.3 1.1.51 1.68.7.29.09.58.17.88.24.3.07.59.13.89.17.6.09 1.21.14 1.82.17 1.22.06 2.44.05 3.64-.14.6-.09 1.2-.21 1.79-.36.29-.08.59-.16.87-.27.28-.1.57-.22.82-.38h.01a2.406 2.406 0 0 0 .72-.59 1.524 1.524 0 0 0 .34-.87h.01c0 .16-.03.32-.09.47-.06.15-.14.29-.23.42-.1.13-.21.25-.33.35-.12.11-.25.2-.39.28-.26.17-.54.29-.83.4-.29.11-.58.2-.87.28-.59.16-1.19.28-1.8.38-1.21.19-2.44.22-3.67.15-.61-.04-1.22-.1-1.83-.19-.61-.09-1.2-.24-1.79-.43-.58-.19-1.16-.42-1.68-.73-.26-.17-.49-.38-.63-.66-.14-.27-.16-.61-.05-.9l.01.02zM19.45 18.11c.05.29.19.57.37.8.18.24.4.44.65.6.12.08.26.15.39.22s.26.14.4.21c.13.07.27.13.41.18.07.03.14.05.21.07l.1.03c.03.01.07.01.09.02h.02c.59.18 1.2.32 1.8.44.61.11 1.22.2 1.84.25.62.04 1.24.06 1.86.06.62 0 1.24 0 1.86-.03l.46-.02.23-.01.23-.03c.31-.04.61-.08.92-.13.61-.1 1.22-.21 1.82-.38.3-.08.6-.17.88-.29.29-.12.57-.25.85-.37.28-.13.56-.27.81-.45s.47-.41.65-.66l.01.01c-.18.26-.39.49-.64.68-.25.19-.52.34-.8.48-.28.14-.56.27-.85.39-.29.12-.58.22-.88.3-.6.17-1.21.29-1.83.4-.31.05-.62.1-.92.14-.15.02-.31.03-.47.04l-.47.03c-1.25.06-2.49.05-3.74-.04-.62-.05-1.24-.14-1.85-.26-.61-.12-1.22-.27-1.81-.46-.15-.02-.29-.07-.43-.13s-.28-.12-.41-.19a7.52 7.52 0 0 1-.78-.45c-.25-.17-.47-.38-.65-.62-.18-.24-.31-.52-.36-.82l.03-.01zM20.94 15.41l.34-.32.17-.16.18-.15.37-.29c.13-.09.26-.17.39-.26l.2-.13c.07-.04.14-.08.21-.11.14-.07.28-.15.42-.22.29-.13.57-.27.87-.37.59-.21 1.2-.39 1.83-.49l.47-.07c.16-.02.31-.04.47-.05.31-.02.63-.03.94-.01v.01c-.63 0-1.25.07-1.87.18-.62.12-1.22.29-1.81.51-.3.1-.58.24-.87.36-.14.07-.28.15-.42.22-.07.04-.14.07-.21.11l-.2.12c-.13.08-.27.16-.4.25l-.38.28c-.06.05-.13.09-.19.14l-.18.15-.33.3z"/><path class="st3" d="M20.13 22.62c-.01-.55.06-1.1.16-1.65.11-.54.27-1.08.46-1.59.19-.52.44-1.02.72-1.5.28-.48.59-.94.94-1.37.08-.11.18-.21.27-.32.09-.1.18-.21.28-.31l.29-.3.3-.28c.1-.1.21-.18.31-.27.11-.09.21-.18.32-.26.22-.17.44-.34.67-.49.12-.08.23-.16.35-.23l.36-.21c.23-.15.48-.27.73-.4s.5-.24.75-.35c.25-.11.51-.21.77-.31v.01c-1.02.42-2 .93-2.9 1.56-.91.62-1.73 1.38-2.42 2.23-.7.85-1.26 1.81-1.66 2.84-.41 1.01-.67 2.09-.7 3.2z"/><path class="st3" d="M27.81 12.77c-.29.34-.54.72-.77 1.11-.23.38-.44.79-.63 1.2-.38.82-.68 1.67-.93 2.53l-.18.65c-.06.22-.1.44-.15.66-.11.44-.16.89-.25 1.33-.04.22-.06.45-.09.67l-.08.67-.12 1.35h-.01c.03-.45.05-.9.08-1.35l.07-.67c.03-.22.04-.45.08-.67.07-.45.13-.89.24-1.34.05-.22.09-.44.15-.66l.17-.66c.25-.87.56-1.72.95-2.54l.15-.3.08-.15.08-.15.16-.3c.06-.1.12-.19.18-.29.25-.39.51-.76.82-1.09zM27.81 12.76c.32.32.58.69.82 1.07.12.19.23.39.34.59.1.2.2.4.3.61.37.82.64 1.69.85 2.56.05.22.1.44.14.66l.11.67c.02.11.04.22.05.33l.04.34c.03.22.05.45.07.67.04.45.05.9.08 1.35l-.01 1.35h-.01l-.03-1.34c-.03-.45-.06-.89-.1-1.34l-.08-.67-.04-.33-.06-.33-.12-.66c-.04-.22-.1-.44-.15-.66-.21-.87-.47-1.73-.83-2.55-.1-.2-.19-.41-.29-.61-.11-.2-.2-.4-.32-.59-.21-.41-.46-.78-.76-1.12z"/><path class="st3" d="M27.81 12.76c1.17.26 2.28.79 3.27 1.48.5.34.95.74 1.37 1.17.42.43.8.91 1.12 1.42.32.51.61 1.05.82 1.61.03.07.06.14.08.21l.07.21c.05.14.1.28.14.43.08.29.17.58.22.88.03.15.06.3.09.44l.06.45.03.22c.01.07.01.15.02.22l.03.45c.01.15.01.3.01.45l.01.45c-.01.3-.02.6-.04.9h-.01c.06-1.2-.02-2.4-.27-3.57-.05-.29-.14-.58-.22-.87-.04-.14-.1-.28-.14-.43l-.07-.21c-.03-.07-.06-.14-.08-.21a9.479 9.479 0 0 0-3.28-4.18c-.49-.35-1-.66-1.55-.91-.54-.24-1.1-.46-1.68-.61z"/><path class="st3" d="M27.81 12.76c.23-.03.47-.03.71-.04.24 0 .47.01.71.03a9.504 9.504 0 0 1 1.74.32c.11.03.23.07.34.1.22.08.45.15.67.25.11.05.22.09.33.14l.32.16c.11.05.21.11.31.18l.3.18c-.41-.23-.83-.46-1.27-.63-.22-.09-.44-.16-.66-.24-.11-.03-.23-.07-.34-.1l-.34-.09c-.46-.11-.92-.19-1.39-.24-.49-.02-.96-.04-1.43-.02zM27.8 12.77c-.01 0-.64-.39-1.28-.42v-.02c.64.04 1.28.42 1.28.42v.02z"/><path class="st3" d="M27.81 12.78l-.01-.02c.01 0 .65-.34 1.58-.38v.02c-.93.04-1.56.37-1.57.38zM28.76 26.76l.05-.64-.19-.18-.38-.15-.29-.23-.19-.48-.24-.2s-.16-.11-.17-.15l-.04-.15v-.14l.09-.08v-.2l.11-.19.01-.17s.16-.09.24-.11.11-.18.11-.18v-.17l-.11-.24v-.14l-.23-.04-.09.1-.21.03-.27-.13-.16-.24-.17-.19-.16-.19-.27-.13s-.09 0-.13-.01c-.04-.01-.21-.1-.21-.1l-.17-.18-.09-.08h-.28l-.36-.05-.44-.15-.17-.22-.16-.28-.14-.24-.04-.36-.17-.2-.1-.3-.13-.23-.08-.2-.16-.05.25.89.09.23-.11.05-.15-.18-.01-.22-.13-.18-.09-.14.07-.13-.01-.1-.11-.27-.01-.24-.05-.12-.15-.26s-.07-.11-.08-.15c-.01-.04.04-.59.04-.59l.08-.37.27-.32.16-.29-.15-.33.15-.23v-.67l.07-.53-.21-.3-.48.21-.6.06.51-.27.14-.32.19-.18.46-.15.11-.29.48-.15.39-.14.24.05.15.25.05.18.14.04.29.05.2.28.4.2.75.04.35-.26.43-.04.25.57-.45.35-.5.33-.17.17v.33l.21.17.34.13.12.14.21.44s.23.24.29 0c.07-.24-.07-.38-.07-.38s.36-.18.16-.57c-.2-.4.06-.43.06-.43l.31-.05.38.37.29-.1.29.33v.19l.37.14.19.14v.09s.03.22-.19.38-.56 0-.56 0l-.39.39.48-.2.15.2v.25l-.28.19-.28.11-.08.43-.3.12-.19.15-.12.23v.28l-.08.14-.24.08-.19.1s-.13.08-.01.49c.12.41-.05.48-.05.48l-.17-.15-.19-.5-.48-.1-.33.01-.11.18-.27-.11-.31.04-.36.18.11.14-.01.11-.15.1.08.17-.05.19.13.3.33.13.31.08.24-.25.28-.14.11.16-.23.54h.28l.25.13.16.1-.04.36.16.27h.55l.19.18.3-.22h.49s1.61.89 1.56 2.68l-1.51 1.37zM28.24 13.07l-.12.25-.13.3.07.21.24.09.29.17.15.25.24.16-.06.17.22.17.07.17.07.16.19.24s.21.15.28.21c.08.06.5.19.5.19l-.12-.72.05-.16.14-.28.06-.26-.08-.2-.28-.22-.15-.25-.41-.14-.18-.16-.1-.18-.22-.04-.23-.06-.14-.14h-.35v.07z"/><path class="st3" d="M25.7 14.19l.14-.28.22.07.15.21.17-.05.15.05v.37l-.2.08h-.22l-.28-.07zM27.23 14.41l.26.15.05.15h.29l.26.23-.09.24-.17.14-.07.16h.33l.36.2.15-.21-.16-.34.27.05v-.24l-.48-.19-.05-.22-.37-.24-.25-.19.09-.37.16-.15.08-.15-.23-.14-.36.26-.28.17s-.19-.06-.19 0v.19l-.13.29.05.21.43-.21.18.08-.13.13zM35.59 17.08l-.05.25h-.65l-.27.42-.13.36v.65l-.08.25v.71l-.04.3.16.33s.03.36.04.39.12.15.18.2.28.27.28.27l.32.14h.24l.26-.24.21-.16.18-.12.09.02.08.32.13.61.07-1.44-.27-1.73-.36-1.06-.28-.48h-.11zM31.55 13.21l.14.7.41.24s.15.22.17.26c.01.05.15.23.15.23l.32.12H33l.13-.12-.36-.3-.43-.15-.24-.42.24.22.49.21.3.21.23.31V15.13l.13.36.06.26v.22l-.1.18.03.19.5.15.09.16-.18.24-.15.12.07.36.39.32.22-.08.13-.17-.11-.53-.07-.34.11-.16h.21s.16-.06.18-.11c.02-.05 0-.28 0-.28l.01-.29-.35-.5-.53-.53-.78-.67-.7-.48-.74-.34-.18-.15-.05.15z"/><path class="st3" d="M33.23 15.56l-.39-.26-.33-.22-.06.14.39.4s.1.06.17.12c.06.06.22.35.22.35l.09.06.05-.34v-.2l-.14-.05zM24.52 12.83l-.08.38-.31.24-.22.35-.4.11h-.43l-.13-.19.25-.3.66-.32z"/><path class="st3" d="M27.81 29.35c-4.9 0-8.88-3.86-8.88-8.61s3.98-8.61 8.88-8.61c4.89 0 8.88 3.86 8.88 8.61s-3.99 8.61-8.88 8.61zm0-17.04c-4.79 0-8.7 3.78-8.7 8.43s3.9 8.43 8.7 8.43c4.79 0 8.7-3.78 8.7-8.43s-3.91-8.43-8.7-8.43z"/><path class="st0" d="M16.34 23.2c.28.2 5.53 2.45 5.85 2.65.32.2 9-1.3 9-1.3l3.81.67 2.82-.83v6.3l-9.84 3.21-8.59-1.6-3.06-5.48v-3.28M12.8 16.97H9.66l-.47 1.48 2.89 2.36.35.9zM47.24 17.93l-3.58-.81-.5 1.61.21 1.89.56.03z"/><path class="st3" d="M31.65 29.5l.65.48c.08.02.3.08.57.08.7 0 1.21-.34 1.53-1 .68-1.42-.97-2.67-.98-2.68l-.03-.02-.02-.03c-.03-.04-.8-1.09.29-2.47 1.39-1.77 4.71-5.11 8.38-6.43.09-.03 2.13-.7 3.56-.7.22 0 .42.02.59.05l.59.11-.49.34c-1.29.91-1.97 1.53-2.3 1.87h.21c.56 0 1.16-.09 1.17-.09l.79-.11-.58.55c-.04.04-.84.79-2.23 1.59l1.65.05-.45.42c-.03.03-.72.66-1.93 1.25l1.6.27-1.97 1.27 1.8.54-1.79.94 1.51.5-1.76.92 1.48.74-1.85.75 1.36.98-2 .41.84 1.12-1.7.17.59 1.12H39.1l.13 1.38-1.34-.21-.04 1.48-1.24-.48-.28 1.25-1.21-.47-.46 1.29-1.24-.7-1.75 2.51V29.5z"/><path class="st0" d="M45.6 16.97c.2 0 .38.01.55.04-2.19 1.54-2.65 2.27-2.65 2.27.19.05.44.07.7.07.59 0 1.2-.09 1.2-.09s-1.12 1.06-3 2l1.99.06s-.96.9-2.64 1.54l1.8.3-1.88 1.22 1.73.52-1.77.93 1.51.5-1.67.87 1.42.71-1.75.71 1.26.91-1.83.37.81 1.08-1.63.17.57 1.08h-1.51l.12 1.33-1.3-.21-.04 1.41-1.18-.46-.28 1.25-1.18-.46-.45 1.25-1.18-.67-1.42 2.04v-7.73l.28.21s.29.1.69.1c.55 0 1.3-.2 1.76-1.14.77-1.62-1.06-2.99-1.06-2.99s-.69-.91.28-2.16c.98-1.25 4.3-4.93 8.27-6.35 0 .01 2.07-.68 3.48-.68m0-.5c-1.48 0-3.55.68-3.64.71h-.02c-3.72 1.33-7.09 4.72-8.49 6.51-1.2 1.54-.33 2.73-.29 2.78l.04.06.06.04c.06.05 1.49 1.15.91 2.37-.27.57-.7.85-1.3.85-.2 0-.37-.03-.46-.06l-.21-.16-.8-.57v10.32l.92-1.31 1.16-1.66.78.44.52.29.2-.56.27-.76.7.27.54.21.13-.57.16-.67.64.25.67.26.02-.71.02-.84.74.12.64.1-.06-.65-.07-.78h1.79l-.4-.75-.22-.42.89-.09.89-.09-.54-.71-.33-.44 1.05-.21 1.12-.23-.93-.67-.52-.38.91-.37 1.04-.42-1.01-.5-.54-.27.79-.41 1.05-.55-1.13-.37-.38-.13.72-.38 1.09-.57-1.18-.36-.69-.21.97-.63 1.09-.71-1.28-.21-.22-.04c.83-.48 1.3-.91 1.33-.94l.89-.84-1.22-.04-.2-.01c.97-.63 1.52-1.15 1.55-1.18l1.16-1.09-1.58.23s-.32.05-.7.07c.39-.34.96-.81 1.81-1.4l.98-.69-1.18-.22c-.2-.03-.41-.05-.65-.05z"/><path class="st5" d="M27.13 21.18a81.986 81.986 0 0 1 .02-5.88c.06-1.46.13-2.68.31-3.92.05-.31.1-.65.19-.98.04-.15.09-.33.19-.5.03-.04.06-.09.11-.13.02-.01.03-.02.05-.03.02-.01.04-.02.06-.02.02-.01.04-.01.07-.01.03 0 .06 0 .08.01.08.03.12.08.16.12.04.05.06.09.08.13.08.16.13.32.18.48.04.14.08.29.12.48.07.31.1.52.15.85l-.1.02c-.06-.27-.12-.45-.19-.7l-.04-.12c-.06-.19-.1-.33-.15-.46-.05-.14-.12-.29-.2-.42-.02-.02-.04-.06-.06-.08l-.02-.02c-.01.01-.02.02-.03.05-.06.12-.09.28-.12.43-.06.32-.08.64-.1.95-.07 1.3-.03 2.63.02 3.87a85.394 85.394 0 0 0 .47 5.8l.23 1.98-1.41.11-.07-2.01z"/><path class="st5" d="M28.12 9.77c.02 0 .05 0 .07.01.07.03.11.07.14.11.03.04.05.08.07.12.08.16.13.31.18.47.05.16.08.32.12.48.07.32.1.52.15.84-.07-.32-.14-.51-.23-.83-.05-.16-.1-.31-.15-.46-.06-.15-.12-.3-.2-.43a.55.55 0 0 0-.07-.09c-.02-.02-.05-.04-.06-.04-.01 0 0 0-.02.01-.02.02-.03.05-.05.08-.06.13-.1.29-.12.44-.05.31-.08.63-.1.96-.07 1.29-.03 2.59.02 3.88.06 1.29.15 2.59.27 3.88.06.65.12 1.29.2 1.93l.22 1.93-1.3.1-.06-1.96c-.02-.65-.03-1.31-.04-1.96-.01-1.31.01-2.61.06-3.92.05-1.3.12-2.61.3-3.91.05-.33.1-.65.19-.97.04-.16.09-.32.18-.48.03-.04.05-.08.1-.12 0-.03.01-.04.03-.05.02-.01.03-.02.05-.02h.05m0-.11c-.03 0-.05 0-.08.01l-.06.03h-.03c-.02.01-.03.02-.05.03-.06.05-.09.1-.12.14-.1.18-.15.35-.19.51-.09.33-.14.67-.19.99-.17 1.24-.25 2.46-.31 3.92-.05 1.24-.07 2.52-.06 3.92 0 .7.01 1.34.04 1.96l.06 1.96v.11l.11-.01 1.3-.1.11-.01-.01-.11-.22-1.93c-.07-.61-.14-1.24-.2-1.93-.12-1.38-.21-2.65-.27-3.87-.05-1.24-.09-2.57-.02-3.87.02-.3.04-.63.1-.94.03-.14.06-.29.11-.4.01.01.02.03.03.04.08.12.14.27.19.41.05.13.1.27.15.46l.04.12c.08.25.13.43.19.7l.2-.04c-.05-.33-.09-.54-.15-.85-.04-.19-.08-.34-.12-.49-.05-.16-.1-.33-.18-.49a.508.508 0 0 0-.09-.13.451.451 0 0 0-.18-.14c-.02.01-.06 0-.1 0z"/><path class="st6" d="M29.23 24.67c-.8-.45-1.6-.91-2.38-1.41-.39-.25-.77-.5-1.15-.77a39.576 39.576 0 0 1-3.24-2.57c-.69-.61-1.36-1.24-1.98-1.92-.31-.34-.61-.69-.9-1.05a9.28 9.28 0 0 1-.78-1.15c-.11-.2-.22-.42-.3-.64-.08-.22-.14-.46-.13-.72.01-.13.04-.26.1-.37a.73.73 0 0 1 .26-.29c.21-.15.46-.19.69-.21.47-.03.93.06 1.37.17.44.11.51.15.94.31-.43-.14-.51-.15-.96-.23-.44-.08-.9-.14-1.34-.09-.22.03-.43.09-.59.21a.59.59 0 0 0-.23.51c0 .2.06.41.15.61.08.2.19.39.31.58.24.37.52.73.81 1.06.3.34.61.66.93.97.65.63 1.34 1.21 2.05 1.77.71.56 1.44 1.09 2.19 1.59.37.25.75.5 1.13.74.38.24.76.47 1.15.69.78.44 1.58.86 2.39 1.26"/><path class="st6" d="M29.21 24.71c-.87-.48-1.65-.95-2.38-1.41-.43-.28-.81-.53-1.16-.77-.37-.27-.75-.54-1.11-.82-.77-.59-1.47-1.16-2.14-1.75-.76-.67-1.41-1.3-1.98-1.93-.34-.36-.63-.71-.9-1.06-.33-.43-.58-.8-.78-1.16-.13-.23-.23-.44-.3-.65-.1-.28-.14-.51-.13-.74.01-.14.04-.28.1-.39a.8.8 0 0 1 .27-.31c.24-.16.51-.2.72-.22.5-.03.98.07 1.39.17.39.1.49.14.8.26l.15.06-.03.1c-.4-.13-.49-.15-.85-.21l-.1-.02c-.37-.07-.85-.14-1.32-.09-.25.03-.44.1-.56.2-.14.11-.22.27-.22.47 0 .18.05.37.14.59.08.18.18.37.31.57.21.33.47.67.81 1.06.28.32.58.64.93.97.6.58 1.27 1.16 2.04 1.77.67.53 1.41 1.06 2.19 1.59.37.25.75.5 1.13.74.35.22.72.44 1.15.69.73.42 1.51.83 2.39 1.26l-.05.09c-.88-.43-1.66-.84-2.39-1.26-.43-.25-.81-.47-1.16-.69-.38-.24-.76-.49-1.13-.74-.78-.53-1.52-1.06-2.19-1.6-.78-.61-1.45-1.19-2.05-1.77-.35-.34-.65-.66-.94-.98-.35-.4-.61-.74-.82-1.07-.13-.21-.24-.4-.31-.59-.1-.24-.15-.44-.15-.63 0-.23.09-.43.26-.56.14-.11.34-.19.62-.22.31-.04.63-.02.92.02-.29-.05-.6-.09-.92-.07-.2.02-.45.05-.67.2a.77.77 0 0 0-.24.27c-.05.11-.09.23-.09.35-.01.21.03.43.12.7.07.2.17.41.29.63.2.36.45.72.78 1.15.27.34.56.69.9 1.05.58.62 1.22 1.25 1.98 1.92.66.59 1.36 1.16 2.13 1.75.36.28.74.55 1.11.82.35.24.72.5 1.15.77.73.46 1.5.92 2.37 1.41l-.08.08z"/><path class="st7" d="M26.27 23.6c.81-.42 1.61-.88 2.4-1.36 1.57-.96 3.1-2 4.56-3.13.73-.56 1.44-1.15 2.12-1.77.68-.62 1.34-1.27 1.89-1.99.14-.18.27-.37.37-.57.11-.19.2-.4.21-.61 0-.1-.01-.2-.07-.27a.526.526 0 0 0-.25-.15c-.21-.05-.44-.04-.66-.02-.45.06-.9.19-1.34.34-.44.15-.71.21-1.14.4.42-.2.68-.29 1.12-.46.43-.17.88-.32 1.34-.4.23-.04.47-.06.72-.01.12.03.25.08.34.19.1.11.13.25.13.38 0 .26-.1.49-.2.71-.11.22-.23.42-.36.61-.54.78-1.18 1.46-1.84 2.12-.66.66-1.35 1.29-2.07 1.89a52.231 52.231 0 0 1-4.46 3.38c-.77.52-1.57 1.02-2.38 1.5"/><path class="st7" d="M26.71 24.44c-.02 0-.04-.01-.04-.03-.01-.02-.01-.06.02-.07.77-.45 1.57-.95 2.37-1.5 1.58-1.07 3.08-2.2 4.46-3.37.77-.66 1.45-1.27 2.06-1.89.62-.63 1.28-1.32 1.83-2.12.15-.23.27-.42.36-.61.1-.21.19-.43.2-.69 0-.08-.01-.23-.12-.35a.552.552 0 0 0-.32-.18c-.25-.05-.49-.02-.7.01-.18.03-.37.08-.54.13.18-.04.36-.08.54-.1.2-.02.46-.04.68.02.12.03.22.09.28.17.06.07.09.18.08.3-.01.23-.12.46-.22.63-.1.18-.22.36-.38.57-.58.77-1.29 1.44-1.9 2-.64.58-1.33 1.16-2.13 1.77a49.42 49.42 0 0 1-4.56 3.13c-.81.5-1.62.95-2.4 1.36-.03.01-.06 0-.07-.02-.01-.03 0-.06.02-.07.78-.41 1.58-.86 2.39-1.36 1.6-.98 3.14-2.03 4.55-3.12.79-.61 1.49-1.19 2.12-1.77.61-.56 1.31-1.23 1.89-1.99.16-.21.27-.39.37-.56.09-.16.19-.38.2-.59 0-.1-.02-.18-.06-.23a.373.373 0 0 0-.22-.13c-.21-.06-.45-.04-.64-.02-.48.06-.94.2-1.33.33-.14.05-.26.09-.37.12-.25.08-.47.15-.76.28l-.04-.09c.31-.15.54-.24.8-.34.1-.04.2-.08.32-.12.39-.15.86-.32 1.35-.41.22-.04.47-.07.74-.01.11.02.26.08.37.21.12.14.14.32.14.42-.01.28-.11.51-.21.73-.09.19-.21.39-.37.62-.56.81-1.25 1.53-1.84 2.13-.62.61-1.29 1.23-2.07 1.89a52.268 52.268 0 0 1-4.47 3.38c-.8.54-1.6 1.05-2.38 1.5.01.04.01.04 0 .04z"/><g><path class="st3" d="M24.68 28.28c.64-1.37 2.03-2.77 2.27-3 .02-.04.02-.07.03-.09h-.03c-.93-.02-1.45-.34-1.57-.43a.464.464 0 0 0-.19-.04c-.21 0-.31.18-.31.19l-.3.56-.09-.62c-.07-.48.03-.88.3-1.19.51-.59 1.45-.68 1.85-.69.08-.15.23-.23.45-.23.13 0 .28.02.47.05.23.03.51.08.86.1 1.17.07 1.9.59 1.93.61l.2.14-.21.21c.23.39.24 1.18.23 1.55.19 2.15.78 2.84.79 2.85l.02.02.01.02.47.93-7.75.02.57-.96z"/><path class="st0" d="M27.09 22.94c.25 0 .66.11 1.32.15 1.12.07 1.83.57 1.83.57l-.17.17c.33.2.3 1.57.3 1.57.2 2.28.84 2.98.84 2.98l.32.64-7.05.02.39-.65c.67-1.46 2.26-2.98 2.26-2.98.17-.39-.06-.42-.14-.42h-.03c-.99-.02-1.47-.4-1.47-.4a.714.714 0 0 0-.29-.07c-.34 0-.49.3-.49.3-.23-1.57 1.7-1.64 2.04-1.64h.05c.02-.18.11-.24.29-.24m0-.41c-.29 0-.46.11-.56.24-.47.03-1.38.16-1.89.75-.31.36-.43.82-.35 1.36l.21 1.45.56-1.33c.01-.02.06-.08.13-.08.03 0 .06.01.1.02.15.1.58.35 1.29.43-.49.51-1.54 1.67-2.07 2.82l-.37.64-.37.62h.73l7.05-.02h.67l-.3-.6-.32-.64-.03-.06-.03-.03c-.04-.05-.56-.75-.73-2.72.01-.5-.02-1.1-.19-1.5l.28-.28-.4-.28c-.03-.02-.81-.57-2.04-.65-.35-.02-.62-.06-.84-.09a4.34 4.34 0 0 0-.53-.05z"/></g><path class="st3" d="M22.55 36.01l-1.24.7-.46-1.29-1.21.47-.28-1.25-1.24.48-.04-1.48-1.34.21.13-1.38h-1.65l.59-1.12-1.7-.17.84-1.12-2-.41 1.36-.98-1.85-.75 1.48-.74-1.76-.92 1.55-.51-1.79-1.06 1.73-.43-1.94-1.25 1.6-.27c-1.21-.59-1.9-1.22-1.93-1.25l-.45-.42 1.65-.05c-1.38-.8-2.19-1.55-2.23-1.59l-.57-.54.79.11c.01 0 .61.09 1.17.09h.21c-.33-.34-1.01-.96-2.3-1.87l-.49-.34.59-.11c.17-.03.37-.05.59-.05 1.44 0 3.47.67 3.56.7 3.67 1.32 7 4.66 8.38 6.43 1.08 1.38.32 2.43.29 2.47l-.02.03-.03.02c-.07.05-1.66 1.27-.98 2.68.32.66.83 1 1.53 1 .27 0 .49-.06.57-.08l.65-.48v9.03l-1.76-2.51z"/><path class="st0" d="M10.35 16.97c1.41 0 3.48.68 3.48.68 3.96 1.42 7.29 5.1 8.27 6.35.98 1.25.28 2.16.28 2.16s-1.83 1.37-1.06 2.99c.45.94 1.2 1.14 1.76 1.14.4 0 .69-.1.69-.1l.28-.21v7.73l-1.42-2.04-1.18.67L21 35.1l-1.18.46-.28-1.25-1.18.46-.04-1.41-1.3.21.12-1.33h-1.51l.57-1.08-1.63-.17.81-1.08-1.83-.37 1.26-.91-1.75-.71 1.42-.71-1.67-.87 1.51-.5-1.74-1.03 1.7-.43-1.88-1.22 1.8-.3c-1.68-.64-2.64-1.54-2.64-1.54l1.99-.06c-1.88-.94-3-2-3-2s.62.09 1.2.09c.26 0 .51-.02.7-.07 0 0-.46-.73-2.65-2.27.17-.03.36-.04.55-.04m0-.51c-.24 0-.45.02-.64.05l-1.18.22.98.69c.84.59 1.42 1.06 1.81 1.4-.38-.02-.7-.07-.7-.07l-1.58-.23 1.16 1.09c.03.03.59.55 1.55 1.18l-.2.01-1.22.04.89.84c.03.03.49.46 1.33.94l-.22.04-1.28.21 1.09.71.9.59-.57.14-1.19.3 1.06.63.79.47-.45.15-1.13.37 1.05.55.79.41-.54.27-1.01.5 1.04.42.91.37-.52.38-.93.67 1.12.23 1.05.21-.33.44-.54.71.89.09.89.09-.22.42-.39.74h1.79l-.07.78-.06.65.64-.1.74-.12.02.84.02.71.67-.26.64-.25.16.68.13.57.51-.2.7-.27.27.76.2.56.52-.29.78-.44 1.16 1.66.92 1.31V29l-.8.58-.21.16c-.09.02-.26.06-.46.06-.6 0-1.03-.28-1.3-.85-.58-1.22.85-2.33.91-2.37l.06-.04.04-.06c.04-.05.91-1.24-.29-2.78-1.4-1.79-4.77-5.18-8.49-6.51h-.02c-.09-.05-2.16-.73-3.64-.73zM28.33 23.72s-.42-.13-.82-.1c0 0-.11.08-.07.17.04.09.36.26.6.18s.29-.25.29-.25z"/><g><path class="st0" d="M14.11 40.73c-.08.37-.16.74-.21 1.12-.04.01-.09.01-.13.02-.19-.32-.34-.67-.51-1 .04-.01.09-.02.13-.02.14.27.27.56.42.82.04-.31.11-.61.17-.92.05-.01.09-.02.13-.02zM14.69 41.73l-.16.03c-.08-.35-.15-.71-.21-1.06.05-.01.1-.01.15-.02.06.35.14.7.22 1.05zM15.86 40.93c.06.18.11.36.16.54-.03.01-.06.02-.09.02-.03-.04-.05-.08-.08-.12-.07.13-.16.19-.31.22s-.31.02-.44-.07a.537.537 0 0 1-.24-.35c-.03-.15-.03-.29.05-.42s.19-.21.34-.24c.21-.05.38.02.51.19-.04.02-.08.05-.12.07a.333.333 0 0 0-.17-.14.452.452 0 0 0-.2-.01c-.11.03-.19.08-.23.18-.04.11-.03.22-.01.33.03.11.09.23.19.29.09.07.21.07.31.05.1-.02.15-.06.2-.13.05-.07.05-.14.03-.22 0-.02-.01-.04-.02-.06-.1.03-.21.05-.31.08l-.03-.11c.16-.02.31-.06.46-.1zM16.46 41.31c-.05.02-.09.03-.14.04-.1-.35-.24-.68-.34-1.03.04-.01.09-.03.13-.04.12.35.24.69.35 1.03zM17.33 40.83c.01.04.03.07.04.11-.2.09-.4.19-.6.26-.12-.34-.24-.67-.35-1.01.04-.01.09-.03.13-.04.1.3.21.6.31.89.16-.07.31-.14.47-.21zM18.23 40.51c-.04.02-.09.04-.13.06-.08-.08-.15-.16-.23-.24-.12.06-.24.12-.36.19l.03.34c-.04.02-.07.03-.1.05-.02-.39-.05-.79-.09-1.18.05-.02.09-.04.14-.06.24.28.49.56.74.84zm-.43-.26l-.35-.41c.02.19.04.38.05.56l.3-.15zM19.14 40.14c-.04.02-.08.03-.12.05a49.6 49.6 0 0 0-.88-.65l.03.06.03.06c.1.24.21.49.31.73-.03.01-.07.03-.1.04l-.42-.99c.05-.02.11-.05.16-.07.28.2.55.4.83.61a.488.488 0 0 1-.03-.07.488.488 0 0 1-.03-.07c-.09-.22-.18-.45-.27-.67.03-.01.07-.03.1-.04.12.35.26.68.39 1.01zM19.96 39.43l.14-.03c.01.23-.07.4-.28.49-.14.06-.26.05-.39-.02s-.21-.2-.26-.33-.07-.28-.02-.42c.05-.14.13-.22.27-.27.21-.08.38-.01.53.16-.04.03-.08.05-.13.08-.08-.12-.23-.18-.36-.13s-.15.09-.19.2c-.03.11 0 .24.03.34s.11.21.2.26c.09.05.17.07.27.02.16-.05.2-.19.19-.35zM21.1 39.22c.02.04.03.07.05.11-.23.1-.46.2-.69.29-.13-.33-.27-.67-.41-1 .22-.09.44-.18.66-.28.02.04.03.07.05.11-.18.08-.35.15-.53.22.05.1.09.21.14.31.15-.06.29-.12.44-.18.01.03.03.07.04.1-.15.06-.29.12-.44.18l.15.36c.17-.06.35-.14.54-.22z"/></g><g><path class="st0" d="M24.62 43.47c.04 0 .09-.01.14-.01.04.16.14.25.3.28.08.02.15.01.21-.03.06-.03.08-.09.09-.14.01-.05 0-.09-.03-.13a.188.188 0 0 0-.11-.08c-.05-.03-.16-.07-.21-.09s-.1-.04-.14-.08c-.04-.03-.07-.06-.08-.11a.285.285 0 0 1-.02-.16c.02-.09.05-.16.14-.21a.41.41 0 0 1 .29-.04c.2.04.31.15.35.34-.04.01-.08.01-.13.02-.01-.06-.03-.12-.08-.17s-.1-.07-.17-.08-.12-.01-.17.03c-.05.03-.09.05-.09.14-.01.08.06.16.17.19.04.01.15.06.2.08.16.08.25.19.22.36-.01.1-.05.17-.14.23-.09.06-.19.07-.31.05-.24-.04-.38-.17-.43-.39zM26.47 43.94c0 .04-.01.08-.01.13-.26-.03-.52-.08-.77-.12.05-.39.12-.77.18-1.15.24.04.48.08.72.11-.01.04-.01.08-.02.13-.2-.03-.39-.06-.58-.09-.02.12-.05.24-.07.36.16.03.31.05.47.07-.01.04-.01.08-.02.12-.16-.02-.32-.05-.47-.07-.02.14-.04.28-.05.42.19.03.4.06.62.09zM27.62 44.16c-.05 0-.1 0-.15-.01l-.18-.51c-.11-.01-.23-.01-.34-.02-.01.17-.04.33-.05.5-.05 0-.1-.01-.15-.01.04-.39.08-.77.11-1.16.13.01.32.03.44.04.12.01.2.04.26.11s.08.15.08.22c0 .08-.02.12-.05.18-.03.06-.09.09-.16.12.05.17.12.36.19.54zm-.67-.66c.09.01.22.02.31.02.08 0 .13-.01.18-.05.05-.04.06-.1.06-.15 0-.06-.01-.1-.06-.15s-.08-.05-.15-.06c-.08-.01-.22-.01-.31-.02-.02.13-.03.27-.03.41zM28.66 42.97c-.11.4-.24.79-.37 1.19-.05 0-.1 0-.15.01-.15-.38-.27-.77-.38-1.17h.14c.09.32.18.65.32.96.09-.33.21-.65.31-.98.05 0 .09 0 .13-.01zM29.09 44.1c-.05 0-.1.01-.15.01-.02-.38-.05-.77-.08-1.15.05 0 .09-.01.14-.01.04.38.07.76.09 1.15zM30.11 43.61h.12c-.03.22-.12.41-.36.45-.16.02-.27-.03-.38-.14a.743.743 0 0 1-.17-.43c-.01-.15 0-.3.08-.42s.16-.18.32-.2c.23-.03.36.11.44.3-.04.02-.08.04-.12.05-.05-.13-.17-.25-.3-.23-.13.02-.16.06-.22.16s-.05.25-.04.36a.6.6 0 0 0 .12.33c.07.08.14.12.25.1.18-.02.23-.18.26-.33zM31.17 43.67c.01.04.01.08.02.13-.24.04-.48.07-.72.13-.06-.38-.11-.77-.17-1.15.23-.05.46-.09.69-.13.01.04.01.08.02.13-.19.03-.38.06-.56.1.02.12.03.24.05.36.15-.03.29-.06.44-.08.01.04.01.08.02.12-.15.02-.3.05-.44.08l.06.41c.19-.04.39-.07.59-.1z"/></g><g><path class="st0" d="M35.14 39.46c-.04-.01-.08-.03-.12-.04l.36-1.02c.04.01.08.03.12.04l-.36 1.02zM36.22 39.79c-.04-.01-.08-.03-.13-.04-.07-.35-.18-.69-.26-1.05-.01.02-.02.05-.02.07-.01.02-.01.04-.02.07-.09.25-.17.5-.25.75l-.11-.03c.12-.34.23-.68.36-1.02.05.02.11.04.16.05.07.33.17.65.24.98.01-.02.02-.05.02-.07.01-.03.02-.05.02-.07.08-.22.15-.45.24-.67l.11.03c-.12.33-.23.67-.36 1zM36.81 40.02c-.04-.02-.08-.03-.12-.05.11-.3.23-.59.35-.89-.1-.04-.2-.08-.3-.11.01-.04.03-.07.04-.11.25.09.49.19.73.3-.01.04-.03.07-.04.11-.1-.04-.2-.09-.3-.13-.12.29-.24.58-.36.88zM37.98 40.43c-.02.04-.03.07-.05.11-.22-.11-.44-.21-.66-.31l.42-.99c.21.1.43.2.64.3-.01.04-.03.07-.04.11-.17-.08-.34-.16-.52-.24-.04.1-.09.21-.13.31.14.06.27.13.41.2-.01.03-.03.07-.04.1-.14-.07-.27-.13-.41-.2l-.15.36c.17.07.35.16.53.25zM39.11 40.46c-.07.17-.13.35-.2.52-.03-.01-.05-.02-.08-.03 0-.05.01-.09.01-.14a.35.35 0 0 1-.33.02.445.445 0 0 1-.26-.29.64.64 0 0 1 .03-.41c.05-.13.14-.26.27-.33s.24-.07.38-.01c.19.08.25.23.24.43-.04 0-.08-.01-.13-.02.01-.07 0-.15-.03-.2a.366.366 0 0 0-.13-.12c-.1-.04-.18-.04-.27.03a.58.58 0 0 0-.19.27c-.04.1-.06.23-.04.34.02.1.09.17.17.2.08.04.13.03.21 0 .08-.03.11-.09.15-.17.01-.01.01-.04.02-.05l-.24-.09c.01-.04.03-.07.04-.11l.38.16zM39.94 41.33c-.05-.02-.09-.03-.14-.05-.01-.17-.03-.34-.04-.51-.1-.03-.2-.07-.29-.1-.05.15-.11.29-.16.44-.04-.01-.08-.03-.12-.04.13-.34.25-.67.37-1.01l.38.14c.11.04.17.09.2.17.04.08.03.15.02.22s-.04.1-.09.15c-.05.05-.11.06-.18.06.02.17.04.35.05.53zm-.43-.76c.08.03.19.07.26.09.07.02.12.03.17 0s.08-.07.1-.12c.02-.05.02-.1-.01-.14-.03-.05-.05-.07-.12-.09-.07-.03-.19-.07-.27-.1-.05.12-.09.24-.13.36zM40.29 41.45c-.04-.01-.08-.03-.12-.04.11-.34.21-.69.31-1.03.04.01.08.03.12.04-.1.34-.2.69-.31 1.03zM40.85 41.65c-.04-.01-.08-.03-.12-.04.09-.31.19-.62.28-.93l-.27-.09c.01-.04.02-.08.03-.11.22.07.45.14.67.19l-.03.12c-.09-.02-.19-.05-.28-.07-.09.3-.19.61-.28.93zM42.36 40.81c-.15.19-.3.37-.45.55-.03.15-.06.3-.08.45-.05-.01-.09-.01-.14-.02.02-.15.05-.29.08-.44-.09-.22-.15-.44-.21-.67l.15.03c.05.18.11.35.18.52.12-.15.25-.3.37-.44.02.01.06.01.1.02z"/></g><g><path class="st0" d="M23.12 27.85s-.16.91-1.84 2.24c0 0 1.36 2.4.21 5.14-1.15 2.74 1.36 4.58 1.36 4.58s.88.64 2.45 1.01c1.57.37 2.6 1.38 2.6 1.38s1.29-1.12 2.03-1.28c.75-.16 1.92-.56 1.92-.56s3.3-1.44 2.64-4.29c0 0-1.73-3.6-.11-6.13 0 0-1.15-.74-2.05-2.1 0 0-2.26 1.62-4.61-.75.01.02-2.1 2.49-4.6.76z"/><path class="st0" d="M27.9 42.26l-.03-.02a6.013 6.013 0 0 0-2.58-1.37c-1.56-.37-2.45-1.01-2.46-1.02-.03-.02-2.51-1.89-1.37-4.63 1.12-2.69-.2-5.08-.21-5.11l-.02-.03.03-.02c1.64-1.3 1.82-2.2 1.82-2.21l.01-.06.05.03c.64.44 1.25.6 1.8.6 1.59 0 2.74-1.32 2.75-1.34l.03-.03.03.03c2.29 2.32 4.54.76 4.56.74l.03-.02.02.03c.89 1.35 2.03 2.09 2.04 2.09l.03.02-.02.03c-1.59 2.48.09 6.05.11 6.09.67 2.86-2.62 4.32-2.66 4.34-.01.01-1.19.4-1.92.56-.73.16-2 1.26-2.01 1.27l-.03.03zM21.33 30.1c.15.28 1.27 2.58.2 5.14-1.12 2.68 1.32 4.52 1.35 4.54.01.01.89.64 2.44 1.01 1.43.34 2.42 1.21 2.59 1.37.19-.16 1.33-1.12 2.02-1.26.73-.16 1.9-.55 1.91-.56.03-.01 3.26-1.46 2.61-4.24-.01-.03-1.7-3.61-.12-6.12-.19-.13-1.2-.85-2.01-2.06-.29.19-2.42 1.43-4.6-.74-.19.2-1.3 1.34-2.78 1.34-.56 0-1.17-.16-1.8-.59-.06.2-.37 1.02-1.81 2.17z"/></g><path class="st1" d="M21.39 30.4s1.36 2.31.21 4.96c-.76 1.77.1 3.15.75 3.87v-9.68c-.24.26-.56.54-.96.85zM23.34 28.32v11.69c.24.13.59.29 1.04.45v-11.7c-.33-.08-.68-.22-1.04-.44zM25.34 28.82v11.92c.02.01.05.01.07.02.36.08.7.2.99.33V28.54c-.31.14-.67.25-1.06.28zM27.84 27.52s-.17.19-.47.43V41.6c.41.27.65.49.65.49s.17-.14.42-.33V28.03c-.21-.15-.41-.31-.6-.51zM29.39 28.55v12.59c.23-.13.46-.23.66-.27.13-.03.27-.06.41-.1V28.76c-.34-.01-.7-.07-1.07-.21zM31.44 28.66v11.83c.31-.09.52-.17.52-.17s.17-.07.43-.22V28.27c-.11.08-.46.27-.95.39zM34.6 36.19s-1.78-3.51-.16-5.95c0 0-.45-.28-1.06-.88v10.06c.8-.69 1.57-1.77 1.22-3.23z"/><path class="st3" d="M34.44 29.94s-1.15-.74-2.05-2.1c0 0-2.26 1.62-4.61-.75 0 0-2.1 2.48-4.61.75 0 0-.16.91-1.84 2.24 0 0 .8 1.41.65 3.3H33.8c-.13-1.1-.05-2.36.64-3.44z"/><g><path class="st0" d="M27.9 42.49l-.14-.13c-.01-.01-1.01-.98-2.51-1.33-1.59-.38-2.49-1.02-2.52-1.05-.03-.02-2.62-1.97-1.43-4.83 1.09-2.61-.19-4.94-.2-4.96l-.09-.15.14-.11c1.58-1.25 1.76-2.11 1.76-2.11l.06-.31.26.18c2.32 1.61 4.25-.61 4.33-.71l.15-.17.16.16c2.19 2.21 4.25.78 4.34.72l.17-.12.12.18c.87 1.31 1.98 2.04 1.99 2.04l.17.11-.11.17c-1.54 2.4.1 5.89.12 5.92l.01.04c.7 2.98-2.72 4.51-2.76 4.52l-.02.01c-.05.02-1.19.41-1.94.57-.57.12-1.59.93-1.94 1.23l-.12.13zm-6.36-12.35c.29.59 1.16 2.73.14 5.16-1.07 2.56 1.19 4.26 1.29 4.33.01.01.87.62 2.38.98 1.29.31 2.22 1.02 2.56 1.31.36-.3 1.34-1.07 1.98-1.21.69-.15 1.78-.51 1.89-.55.21-.09 3.1-1.43 2.52-4.03-.15-.33-1.64-3.63-.19-6.14-.34-.25-1.13-.88-1.83-1.88-.59.33-2.54 1.16-4.54-.73-.53.52-2.37 2.06-4.5.77-.17.39-.6 1.1-1.7 1.99z"/></g><path class="st0" d="M29.12 31.75l-.09-.06c-.11-.08-.21-.16-.32-.23-.02-.01-.03-.02-.05-.03h-.02c-.06.04-.11.08-.17.12l-.3.21h-.01v-.01c.07-.17.13-.35.2-.52v-.01c-.15-.1-.3-.21-.45-.31-.01 0-.01-.01-.02-.01H28.47c.01 0 .01 0 .01-.01.06-.17.12-.33.17-.5 0-.01.01-.02.01-.03 0 .01.01.03.01.04.03.11.07.22.1.34.01.05.03.1.04.15 0 .01.01.01.01.01.14 0 .29 0 .43-.01h.14l-.01.01c-.16.1-.31.21-.47.31-.01 0-.01.01 0 .01.1.17.16.34.21.53 0-.01 0-.01 0 0zM30.82 31.75l-.09-.06c-.11-.08-.21-.16-.32-.23-.02-.01-.03-.02-.05-.03h-.02c-.06.04-.11.08-.17.12l-.3.21h-.01v-.01c.07-.17.13-.35.2-.52v-.01c-.15-.1-.3-.21-.45-.31-.01 0-.01-.01-.02-.01H30.17c.01 0 .01 0 .01-.01.06-.17.12-.33.17-.5 0-.01.01-.02.01-.03 0 .01.01.03.01.04.03.11.07.22.1.34.01.05.03.1.04.15 0 .01.01.01.01.01.14 0 .29 0 .43-.01h.14l-.01.01c-.16.1-.31.21-.47.31-.01 0-.01.01 0 .01.1.17.16.34.21.53 0-.01 0-.01 0 0zM32.59 31.75l-.09-.06c-.11-.08-.21-.16-.32-.23-.02-.01-.03-.02-.05-.03h-.02c-.06.04-.11.08-.17.12l-.3.21h-.01v-.01c.07-.17.13-.35.2-.52v-.01c-.15-.1-.3-.21-.45-.31-.01 0-.01-.01-.02-.01H31.94c.01 0 .01 0 .01-.01.06-.17.12-.33.17-.5 0-.01.01-.02.01-.03 0 .01.01.03.01.04.03.11.07.22.1.34.01.05.03.1.04.15 0 .01.01.01.01.01.14 0 .29 0 .43-.01h.14l-.01.01c-.16.1-.31.21-.47.31-.01 0-.01.01 0 .01.1.17.16.34.21.53 0-.01 0-.01 0 0zM23.88 31.75l-.09-.06c-.11-.08-.21-.16-.32-.23-.02-.01-.03-.02-.05-.03h-.02c-.06.04-.11.08-.17.12l-.3.21h-.01v-.01c.07-.17.13-.35.2-.52v-.01c-.15-.1-.3-.21-.45-.31-.01 0-.01-.01-.02-.01H23.23c.01 0 .01 0 .01-.01.06-.17.12-.33.17-.5 0-.01.01-.02.01-.03 0 .01.01.03.01.04.03.11.07.22.1.34.01.05.03.1.04.15 0 .01.01.01.01.01.14 0 .29 0 .43-.01h.14l-.01.01c-.16.1-.31.21-.47.31-.01 0-.01.01 0 .01.1.17.16.34.21.53 0-.01 0-.01 0 0zM25.58 31.75l-.09-.06c-.11-.08-.21-.16-.32-.23-.02-.01-.03-.02-.05-.03h-.02c-.06.04-.11.08-.17.12l-.3.21h-.01v-.01c.07-.17.13-.35.2-.52v-.01c-.15-.1-.3-.21-.45-.31-.01 0-.01-.01-.02-.01H24.93c.01 0 .01 0 .01-.01.06-.17.12-.33.17-.5 0-.01.01-.02.01-.03 0 .01.01.03.01.04.03.11.07.22.1.34.01.05.03.1.04.15 0 .01.01.01.01.01.14 0 .29 0 .43-.01h.14l-.01.01c-.16.1-.31.21-.47.31-.01 0-.01.01 0 .01.1.17.16.34.21.53 0-.01 0-.01 0 0zM27.35 31.75l-.09-.06c-.11-.08-.21-.16-.32-.23-.02-.01-.03-.02-.05-.03h-.02c-.06.04-.11.08-.17.12l-.3.21h-.01v-.01c.07-.17.13-.35.2-.52v-.01c-.15-.1-.3-.21-.45-.31-.01 0-.01-.01-.02-.01H26.7c.01 0 .01 0 .01-.01.06-.17.12-.33.17-.5 0-.01.01-.02.01-.03 0 .01.01.03.01.04.03.11.07.22.1.34.01.05.03.1.04.15 0 .01.01.01.01.01.14 0 .29 0 .43-.01h.14l-.01.01c-.16.1-.31.21-.47.31-.01 0-.01.01 0 .01.1.17.16.34.21.53 0-.01 0-.01 0 0z"/><g><path class="st3" d="M6.57 34.59l-.08-.26.17-.06.23.73c.16.49.14.75.02.98-.14.27-.39.42-.62.5-.44.14-.97.05-1.21-.7l-.28-.9.17-.06.08.26 1.52-.49zm-1.32 1.09c.11.33.39.53.91.36.4-.13.74-.44.58-.95l-.04-.12-1.52.48.07.23zM7.29 36.68l-.1-.24.17-.07.55 1.31-.42.18-.08-.19.25-.1-.22-.52-.63.26.16.39.22-.09.08.19-.65.27-.08-.19.26-.11-.16-.39-.67.28.23.54.27-.11.08.19-.43.18-.56-1.33.17-.07.1.24 1.46-.62zM7.93 38.15l-.12-.23.16-.08.42.82c.21.41-.02.69-.23.8-.29.15-.63.04-.78-.26a.881.881 0 0 1-.09-.26l-.59.3.12.24-.16.08-.42-.83.16-.08.12.23 1.41-.73zm-.46.68c.02.07.03.1.05.14.08.16.25.21.44.11.22-.11.29-.3.19-.5l-.04-.08-.64.33zM9.08 39.8l.11.18-1.2 1.53.08.14-.16.09-.39-.64.16-.1.09.16.32-.41-.3-.5-.5.1.09.15-.16.1-.28-.46.16-.09.09.14 1.89-.39zm-.87.8l.41-.51v-.01l-.64.14.23.38zM9.69 41.18l-.16-.21.15-.11.51.69c.25.33.18.65-.04.81-.17.13-.42.15-.67-.08h-.01c.05.12.07.2.05.33-.01.15-.1.39-.25.68l.11.15-.15.11-.32-.44.01-.02.2-.39c.16-.3.19-.49.12-.59l-.05-.07-.55.4.16.22-.15.11-.55-.75.15-.11.16.21 1.28-.94zm-.31.81c.12.17.31.19.49.06.18-.14.22-.32.1-.49l-.04-.06-.59.43.04.06zM10.98 43l-.3-.35-.2.18-.13-.15.49-.42.13.15-.07.06.87 1 .07-.06.13.15-.49.42-.13-.15.2-.18-.3-.35-1.13.98.18.2-.14.12-.61-.7.14-.12.18.2 1.11-.98zM12.08 44.09l-.19-.18.13-.13.52.49-.14.13-.38 1.22 1.19-.47.12-.13.54.5-.12.13-.19-.18-1.09 1.16.19.18-.12.13-.68-.64.12-.13.2.19.84-.9-1.46.58-.05-.05.45-1.44-.81.86.19.18-.12.13-.55-.51.13-.13.19.18 1.09-1.17zM14.13 45.92l-.21-.16.11-.15 1.13.87-.28.36-.16-.12.17-.22-.44-.34-.42.54.33.26.15-.19.16.12-.43.56-.16-.12.17-.22-.33-.26-.44.57.46.35.18-.23.16.12-.29.37-1.15-.88.11-.15.21.16.97-1.24zM15.39 46.87l-.22-.14.1-.15.53.34-.1.15.29 1.61.65-1.02-.23-.15.1-.15.65.41-.1.15-.23-.15-.95 1.5-.17-.11-.34-1.83-.63 1 .23.14-.1.15-.64-.4.1-.15.22.14.84-1.34zM17.79 48.4l-.41-.21-.12.24-.18-.09.29-.58.18.09-.04.09 1.18.6.04-.09.18.09-.29.58-.18-.09.12-.24-.41-.21-.67 1.34.24.12-.08.16-.83-.42.08-.16.24.12.66-1.34zM20.8 49.34c.6.21.88.76.69 1.31-.19.56-.76.82-1.35.61-.59-.21-.88-.76-.69-1.32.19-.55.75-.8 1.35-.6zm-.61 1.75c.3.1.66-.05.86-.61.13-.39.06-.84-.31-.97-.31-.11-.67.07-.85.59-.19.54 0 .89.3.99zM22.2 50.01l-.26-.06.04-.18 1.37.34-.11.44-.2-.05.06-.26-.54-.13-.17.68.4.1.06-.23.2.05-.17.68-.2-.05.07-.27-.4-.1-.17.69.26.07-.04.18-.9-.22.04-.18.26.06.4-1.56zM25.73 51.33l.08-.67-.27-.03.02-.18.93.11-.02.18-.27-.03-.19 1.58.27.03-.02.18-.93-.11.02-.18.27.03.08-.68-.9-.11-.08.68.28.05-.02.18-.94-.11.02-.18.27.03.19-1.58-.27-.03.02-.18.94.11-.02.18-.27-.03-.08.67.89.09zM27.74 50.55c.63.01 1.07.44 1.06 1.03-.01.6-.46 1.01-1.1 1-.63-.01-1.07-.44-1.06-1.04.02-.59.48-1 1.1-.99zm-.03 1.85c.31.01.61-.26.62-.85.01-.41-.2-.82-.59-.82-.33-.01-.61.28-.62.82-.01.57.28.85.59.85zM29.28 50.76l-.26.03-.02-.19.71-.07.02.18.67 1.09.43-1.2-.02-.18.73-.07.02.18-.26.03.16 1.58.26-.03.02.18-.93.09-.02-.18.27-.03-.12-1.23h-.01l-.52 1.48-.07.01-.79-1.29h-.01l.12 1.17.26-.03.02.18-.75.08-.02-.18.26-.03-.15-1.57zM32.01 50.42l-.26.05-.04-.18 1.4-.28.09.45-.2.04-.05-.27-.55.11.14.67.41-.08-.05-.23.2-.04.14.69-.2.04-.05-.27-.41.08.14.71.57-.11-.06-.28.2-.04.09.46-1.42.29-.04-.18.26-.05-.31-1.58zM33.56 50.08l-.25.07-.05-.18.89-.25.05.18-.26.07.43 1.53.6-.17-.08-.29.2-.05.13.46-1.43.4-.05-.18.25-.07-.43-1.52zM35.58 49.21l.19-.07 1.28 1.46.15-.06.06.17-.7.26-.06-.17.17-.06-.34-.39-.55.2.01.51.16-.06.06.17-.51.19-.06-.17.16-.06-.02-1.92zm.63 1l-.43-.5h-.01l.01.65.43-.15zM37.05 48.88l-.24.12-.08-.16.56-.28.08.16 1.52.6-.53-1.09-.25.12-.08-.16.69-.34.08.16-.24.12.78 1.59-.18.09-1.74-.67.52 1.06.24-.12.08.16-.67.33-.08-.16.23-.12-.69-1.41zM39.2 47.77l-.23.14-.1-.16.65-.41c.43-.27.69-.32.94-.26.3.07.51.28.63.48.24.39.29.93-.38 1.35l-.81.51-.1-.16.23-.14-.83-1.35zm1.38 1.02c.3-.19.41-.51.13-.97-.22-.35-.61-.61-1.06-.32l-.11.07.85 1.35.19-.13zM42.25 47.1l.16-.13.15.18c.18.06.36.03.48-.06a.28.28 0 0 0 .04-.38c-.2-.24-.5-.01-.95-.05-.18-.02-.3-.07-.41-.21-.19-.24-.14-.55.13-.76.12-.1.23-.15.37-.16l-.09-.11.16-.13.38.48-.16.13-.14-.17c-.15-.03-.27 0-.36.08-.13.1-.16.27-.07.38.24.3.92-.28 1.34.24.21.25.16.59-.11.81-.13.11-.28.16-.43.16l.09.12-.16.13-.42-.55zM42.87 45.09l-.19.18-.12-.13 1.04-.97.31.33-.15.14-.19-.2-.41.38.47.5.31-.29-.16-.17.15-.14.48.51-.15.14-.19-.2-.31.29.49.53.43-.4-.2-.21.15-.14.32.34-1.06.99-.12-.13.19-.18-1.09-1.17zM46.2 43.97c-.01.21-.14.49-.33.69-.39.43-.99.46-1.41.08-.36-.33-.56-.94-.05-1.5.11-.12.2-.19.34-.27l-.06-.09.1-.11.43.4-.11.13c-.2-.13-.42-.09-.58.09-.24.27-.16.63.22.98.46.42.86.31 1.05.1.14-.15.24-.4.25-.63l.15.13zM45.15 42.76l-.15-.11.56-.75.15.11-.16.22.79.59c.29.22.59.24.78-.01.16-.22.13-.49-.23-.75l-.77-.58-.16.21-.15-.11.52-.69.14.11-.15.2.76.57c.44.33.5.76.18 1.19-.34.45-.77.46-1.18.15l-.77-.58-.16.23zM46.72 40.6l-.14.22-.16-.09.44-.73c.22-.35.53-.41.76-.27.18.11.3.34.18.65h.01c.09-.09.16-.14.29-.17.15-.04.4-.05.73-.02l.09-.16.16.09-.28.47h-.02l-.44-.04c-.34-.03-.53.01-.59.11l-.05.08.58.35.14-.23.16.09-.48.79-.16-.1.14-.22-1.36-.82zm.86-.03c.11-.18.06-.36-.13-.47-.2-.12-.38-.08-.49.09l-.04.06.62.38.04-.06zM47.75 38.82l-.12.24-.16-.08.42-.83.16.08-.12.23 1.42.73.12-.23.16.08-.42.83-.16-.08.12-.24-1.42-.73zM48.52 37.41l-.18.43.25.1-.08.19-.59-.25.08-.19.09.04.52-1.22-.09-.04.08-.19.59.25-.08.19-.25-.1-.18.43 1.38.59.1-.25.17.07-.36.86-.17-.07.1-.25-1.38-.59zM48.74 36.18l.28-.88.17.06-.07.2.62-.21-.4-.5-.06.2-.16-.05.21-.64.17.06-.06.19.56.73.79.25.08-.25.17.06-.28.88-.17-.06.08-.26-.79-.25-.9.3-.07.22-.17-.05z"/><g><path class="st3" d="M3.85 30.96l-.24.01-.07-1.2.24-.01.02.35 1.27-.07c.47-.03.78-.25.76-.66-.02-.35-.28-.58-.85-.55l-1.25.07.02.34-.24.01-.07-1.11.24-.01.02.33 1.23-.07c.71-.04 1.13.33 1.17 1.03.04.73-.37 1.09-1.03 1.13l-1.25.07.03.34zM5.74 27.37c.19 0 .33.15.33.34 0 .19-.15.33-.34.33-.19 0-.33-.15-.33-.34 0-.19.15-.33.34-.33zM5.21 26.93l.02-.26.3.03c.21-.12.35-.31.37-.5.02-.18-.13-.36-.32-.38-.4-.03-.45.46-.9.84-.18.15-.33.21-.57.19-.39-.03-.63-.36-.6-.8.02-.2.07-.35.19-.49l-.18-.02.02-.26.79.07-.02.26-.29-.02c-.16.11-.24.25-.25.41-.02.21.11.39.29.4.5.04.55-1.11 1.42-1.04.42.04.7.38.66.82-.02.22-.1.41-.23.55l.19.02-.02.25-.87-.07zM6.03 24.4c.18.03.31.2.28.38-.03.18-.2.31-.38.28a.336.336 0 0 1-.28-.38c.03-.18.19-.3.38-.28zM6.82 21.21c.11.25.13.64.03.98-.19.73-.85 1.12-1.55.93-.61-.16-1.2-.75-.95-1.68.05-.2.12-.34.23-.51l-.12-.07.05-.18.73.2-.06.21c-.3-.02-.54.14-.62.45-.12.45.18.81.83.99.77.21 1.17-.15 1.26-.51.07-.26.03-.6-.09-.87l.26.06zM4.95 20.29l-.22-.09.45-1.12.22.09-.13.33 1.18.48c.43.18.81.11.97-.27.13-.32 0-.65-.53-.86l-1.16-.47-.13.31-.22-.09.42-1.03.22.09-.12.3 1.14.46c.66.27.88.78.62 1.43-.27.68-.8.83-1.41.58l-1.16-.47-.14.33zM7.57 17.9l.12-.23.27.14c.24-.02.45-.15.54-.31.09-.16.02-.39-.15-.48-.35-.19-.6.24-1.16.41-.23.07-.39.07-.6-.05-.35-.19-.44-.58-.23-.97.09-.17.2-.29.37-.37l-.16-.09.12-.23.71.38-.12.23-.25-.14c-.19.04-.32.13-.39.27-.1.19-.06.4.1.48.44.24.95-.79 1.72-.38.37.2.49.63.28 1.02-.11.2-.25.33-.43.41l.17.09-.12.23-.79-.41zM7.83 14.76l-.33.5.29.19-.15.22-.69-.47.15-.22.1.07.96-1.42-.1-.07.15-.22.69.46-.15.22-.29-.19-.33.5 1.6 1.08.19-.29.2.13-.67 1-.2-.13.19-.29-1.61-1.07zM9.41 12c.53-.62 1.32-.7 1.9-.2.58.5.62 1.3.09 1.91-.53.61-1.32.7-1.91.19-.58-.48-.61-1.28-.08-1.9zm1.81 1.57c.26-.31.25-.82-.32-1.32-.4-.35-.98-.48-1.31-.09-.28.32-.23.84.3 1.3.55.47 1.06.42 1.33.11zM11.11 10.57l-.26.22-.15-.18.69-.6.16.18 1.52.65-.44-1.59-.16-.18.72-.62.16.18-.25.22 1.35 1.55.25-.22.16.18-.91.79-.16-.18.27-.23L13 9.53l-.01.01.55 1.95-.07.06-1.79-.77-.01.01 1 1.15.26-.22.16.18-.73.64-.16-.18.26-.22-1.35-1.57zM14.61 9.57l.22-.15.17.26c.23.09.47.08.62-.03.15-.1.2-.33.09-.49-.22-.33-.64-.06-1.22-.17a.693.693 0 0 1-.51-.32c-.22-.32-.12-.72.25-.97.16-.11.31-.16.5-.16l-.1-.15.22-.15.44.65-.22.15-.16-.24c-.19-.05-.34-.03-.47.06-.17.12-.23.33-.13.48.28.42 1.21-.27 1.7.45.24.35.14.78-.22 1.03-.2.13-.39.18-.58.17l.11.16-.22.15-.49-.73zM16.98 6.08l.24-.12 1.84 1.7.19-.09.11.21-.87.43-.12-.21.21-.11-.48-.45-.67.33.08.65.2-.1.11.21-.62.31-.11-.21.19-.1-.3-2.45zm.93 1.19l-.61-.58h-.01l.11.84.51-.26zM19 5.45l-.32.11-.08-.22.76-.27.08.22 1.86 1-.51-1.47-.34.12-.08-.22.94-.33.08.22-.33.12.76 2.16-.25.09-2.13-1.12.5 1.44.33-.11.08.22-.92.32-.07-.23.32-.11L19 5.45zM22.15 4.44l-.35.07-.05-.23.97-.2c.64-.13.98-.08 1.25.1.33.22.49.56.55.86.12.58-.07 1.25-1.06 1.46l-1.21.25-.05-.23.34-.07-.39-2.01zm1.21 1.84c.44-.09.73-.44.59-1.12-.11-.53-.46-1.01-1.14-.86l-.16.03.42 2.01.29-.06zM26.09 3.8l-.34.02-.01-.24 1.08-.05c.56-.03.84.23.86.58.01.28-.13.49-.48.6v.01c.56.03.74.3.75.58.02.33-.23.71-.83.74l-1.26.06-.01-.24.34-.02-.1-2.04zm.62.86c.25-.01.42-.15.4-.5-.01-.26-.16-.4-.4-.39h-.11l.04.89h.07zm.11 1.16c.41-.02.56-.2.55-.49-.01-.3-.23-.45-.6-.43h-.12l.05.93.12-.01zM29.78 3.5c.81.05 1.35.64 1.3 1.4-.05.77-.67 1.27-1.48 1.22-.81-.05-1.35-.64-1.3-1.41.05-.76.67-1.27 1.48-1.21zm-.16 2.38c.4.03.81-.29.86-1.05.04-.53-.21-1.07-.71-1.1-.42-.03-.81.32-.86 1.02-.05.73.3 1.11.71 1.13zM31.92 4.01l-.33-.06.04-.23 1.08.21c.53.1.74.45.67.8-.05.27-.27.51-.7.5v.01c.15.07.25.13.34.27.11.16.24.47.35.88l.23.04-.04.23-.69-.13-.02-.03-.15-.55c-.11-.42-.25-.63-.4-.66l-.1-.02-.17.86.34.07-.04.23-1.18-.23.04-.23.33.06.4-2.02zm.41 1.04c.26.05.46-.09.51-.37.06-.29-.07-.5-.33-.55l-.09-.02-.18.92.09.02zM34.6 4.59l-.33-.11.07-.22.95.3c.63.2.89.42 1.04.71.18.35.15.73.06 1.02-.18.56-.67 1.06-1.64.75l-1.17-.37.07-.22.33.11.62-1.97zm.15 2.2c.43.14.85-.02 1.06-.68.16-.51.1-1.1-.57-1.31l-.15-.05-.63 1.95.29.09zM37.42 5.57l-.32-.14.1-.22 1.68.74-.24.55-.24-.11.14-.32-.66-.29-.36.81.5.22.12-.28.24.11-.36.83-.24-.11.14-.33-.5-.22-.38.85.69.3.15-.34.24.11-.25.56-1.7-.75.1-.22.31.14.84-1.89zM39.39 6.49l-.29-.17.12-.21.96.54c.47.26.55.66.38.97-.14.24-.42.39-.83.25v.01c.11.11.19.2.24.36.05.19.08.52.05.94l.21.12-.12.21-.61-.35v-.03l.04-.57c.03-.43-.04-.68-.17-.75l-.1-.06-.43.76.3.17-.13.22-1.04-.59.12-.21.29.17 1.01-1.78zm.06 1.12c.23.13.46.06.6-.19.15-.26.09-.5-.14-.63l-.08-.05-.46.82.08.05zM42.55 8.47l-.27-.21.15-.19.93.73c.47.36.35.82.16 1.06-.26.34-.71.39-1.05.12-.1-.08-.16-.14-.25-.26l-.53.68.28.22-.15.19-.95-.74.15-.19.27.21 1.26-1.62zm-.17 1.05c.06.07.1.1.13.13.19.15.41.1.57-.11.2-.26.18-.51-.06-.69l-.08-.06-.56.73zM44.42 9.99l-.24-.23.16-.17.79.76c.39.37.37.78.13 1.04-.19.2-.51.28-.86.04l-.01.01c.08.14.14.24.14.41 0 .2-.05.52-.19.93l.17.16-.16.17-.51-.49.01-.03.18-.54c.14-.41.13-.67.03-.77l-.08-.08-.61.63.25.24-.16.17-.86-.83.16-.17.24.23 1.42-1.48zm-.22 1.1c.19.18.43.17.63-.03.21-.21.21-.46.02-.64l-.07-.06-.65.68.07.05zM47.12 12.44c.52.63.46 1.42-.13 1.91-.59.49-1.38.39-1.9-.24-.51-.63-.46-1.42.13-1.91.6-.49 1.39-.39 1.9.24zm-1.84 1.52c.26.31.77.39 1.35-.1.41-.34.63-.88.31-1.27-.27-.33-.78-.37-1.33.08-.56.46-.59.97-.33 1.29zM48.35 14.79l-.32-.5-.29.19-.14-.22.7-.45.14.22-.11.07.92 1.44.11-.07.14.22-.7.45-.14-.22.29-.19-.32-.5L47 16.27l.19.29-.2.13-.65-1.01.2-.13.19.29 1.62-1.05zM49.55 16.54l-.16-.3.21-.11.83 1.63-.52.27-.11-.23.31-.16-.33-.64-.79.4.25.48.27-.14.12.23-.8.41-.12-.23.32-.16-.25-.48-.83.42.34.67.33-.17.12.23-.54.28-.85-1.66.21-.11.16.3 1.83-.93zM49.28 21.04c-.24-.13-.48-.44-.61-.77-.27-.7.03-1.41.71-1.67.59-.23 1.41-.11 1.76.79.07.19.11.34.12.55l.13-.02.07.17-.71.28-.08-.2c.26-.16.35-.43.23-.72-.17-.43-.63-.55-1.25-.3-.75.29-.85.81-.72 1.16.1.25.33.5.58.65l-.23.08zM51.43 21.54l-.16-.58-.33.09-.07-.25.8-.22.07.25-.12.03.44 1.65.12-.03.07.25-.8.22-.07-.25.33-.09-.16-.58-1.87.5.09.33-.23.06-.31-1.16.23-.06.09.33 1.88-.49zM52.04 23.62l-.06-.34.23-.04.21 1.18-.23.04-.06-.33-2.02.35.06.33-.23.04-.21-1.18.23-.04.06.34 2.02-.35zM52.67 26.27c.06.81-.45 1.43-1.21 1.48-.77.06-1.35-.48-1.41-1.29-.06-.81.45-1.43 1.21-1.48.76-.06 1.35.49 1.41 1.29zm-2.39.18c.03.4.4.76 1.16.7.53-.04 1.03-.35.99-.86-.03-.42-.43-.76-1.13-.7-.72.05-1.05.45-1.02.86zM52.47 28.46l.02-.34.24.01-.05.81-.24-.01-1.64 1.33 1.56.09.02-.35.24.01-.07.99-.24-.01.02-.35-2.29-.14.02-.26 1.86-1.53-1.52-.09-.02.35-.24-.01.06-.97.24.01-.02.34 2.05.12z"/></g><g><circle class="st2" cx="5.25" cy="32.97" r=".5"/><circle class="st2" cx="50.79" cy="32.97" r=".5"/></g></g></svg>