<svg width="44" height="44" xmlns="http://www.w3.org/2000/svg" xmlns:xlink="http://www.w3.org/1999/xlink"><defs><path id="a" d="M0 0h44v44H0z"/><path id="c" d="M0 0h44v44H0z"/></defs><g fill="none" fill-rule="evenodd"><path d="M.823 22.296c0-11.701 9.486-21.187 21.187-21.187 11.7 0 21.186 9.486 21.186 21.187 0 11.7-9.486 21.186-21.186 21.186-11.701 0-21.187-9.486-21.187-21.186" fill="#FEFEFE"/><g><mask id="b" fill="#fff"><use xlink:href="#a"/></mask><path d="M44 22c0 12.15-9.85 22-22 22S0 34.15 0 22 9.85 0 22 0s22 9.85 22 22" fill="#FFF" mask="url(#b)"/></g><path d="M35.366 14.096a6.589 6.589 0 0 1-.732.205 14.723 14.723 0 0 1 2.159 7.698c0 8.168-6.622 14.79-14.79 14.79-8.169 0-14.79-6.622-14.79-14.79 0-2.944.86-5.687 2.342-7.991a4.736 4.736 0 0 1-.698-.267 15.445 15.445 0 0 0-2.377 8.258c0 8.573 6.95 15.523 15.523 15.523s15.523-6.95 15.523-15.523a15.45 15.45 0 0 0-2.16-7.903M13.403 9.964a14.726 14.726 0 0 1 8.6-2.755c3.582 0 6.867 1.273 9.426 3.392.29-.082.57-.156.858-.23a15.461 15.461 0 0 0-10.284-3.895 15.454 15.454 0 0 0-9.408 3.175 18.938 18.938 0 0 1 .808.313" fill="#B03C3E"/><g><mask id="d" fill="#fff"><use xlink:href="#c"/></mask><path d="M22 0C9.85 0 0 9.85 0 22s9.85 22 22 22 22-9.85 22-22S34.15 0 22 0m0 42.637c-11.398 0-20.637-9.24-20.637-20.637 0-11.398 9.24-20.637 20.637-20.637S42.637 10.603 42.637 22 33.397 42.637 22 42.637" fill="#ACADB0" mask="url(#d)"/></g><path d="M16.692 17.588a3.878 3.878 0 0 1-.882-.614c-.944-.86-1.167-1.765-.888-2.803.166-.619.42-.93.333-1.576-.05-.37-.311-.666-.573-.917-.63-.607-1.38-.982-2.485-1.354-.683-.23-2.669-.846-3.545-1.64-.198.584.226 1.358.73 1.462-.446.045-.829.279-1.006.532.337.39 1.01.797 1.566.808-.257.172-.57.536-.674.741.48.256 1.247.47 1.836.43-.247.198-.462.45-.602.68.399.182 1.174.446 1.913.501-.272.135-.66.599-.86.884.415.186 1.314.298 1.872.354-.4.21-.816.63-1.047 1.008.404.194 1.166.41 1.787.39-.306.293-.509.652-.625.997.47.096.966.099 1.539.022-.348.441-.488 1.023-.538 1.44.467-.014 1.086-.12 1.523-.381-.095.356-.074.838.08 1.178.182-.04.395-.117.627-.243-.033-.662-.062-1.34-.081-1.899M35.649 9.755c-.877.794-2.278 1.006-3.75 1.491-1.108.366-1.795.58-2.788 1.371-.283.226-.553.556-.522 1.127.033.633.136.907.152 1.792.012.63-.205 1.139-.47 1.439a3.58 3.58 0 0 1-.97.763c-.02.539-.045 1.08-.074 1.708.23.126.525.243.708.284.153-.34.175-.821.08-1.178.436.262 1.055.367 1.522.38-.05-.416-.19-.998-.538-1.44.573.078 1.068.076 1.539-.02a2.475 2.475 0 0 0-.625-.998c.622.02 1.383-.196 1.787-.39-.23-.379-.647-.798-1.047-1.008.558-.056 1.482-.164 1.898-.35-.201-.286-.615-.753-.886-.888.739-.055 1.514-.319 1.914-.5a2.75 2.75 0 0 0-.603-.682c.693-.046 1.356-.173 1.837-.429a2.52 2.52 0 0 0-.674-.741c1.483-.413 1.508-1.155 1.51-1.731" fill="#015589"/><path d="M29.413 11.321A12.95 12.95 0 0 0 22 9.005c-2.512 0-4.857.712-6.845 1.944.515.401.822.824.896 1.265.066.386.11.85-.113 1.529-.236.72-.366 1.46.165 2.21.53.748 1.216 1.07 1.785 1.18.746-.131 1.572-.239 2.394-.304.107-.348.425-.651.743-.898.462-.36.36-.674.251-.918-.085-.191-.25-.347-.489-.47-.208-.108-.97-.187-.95.3a.857.857 0 0 1-.15-.72c.102-.425.797-.534.97-.52-.135-.114-.051-.297.253-.381.369-.102.719-.118 1.058-.11.696.019.806.19 1.16.503.426.38.989.51 1.211.282-.159.362-.665.555-.99.499.158.502.215.938.272 1.464.025.24.075.643.14.972.934.077 1.871.206 2.688.362a2.08 2.08 0 0 0 1.004-.661c.3-.345.574-.783.46-1.885-.031-.31-.187-1.105-.165-1.478.05-.847.678-1.4 1.665-1.849" fill="#015589"/><path d="M20.773 13.643c.129.097.204.109.247.1.004.023.046.054.056.063a.154.154 0 0 1 .05.074c.059-.025.214-.088.355-.139.144-.051.342-.11.342-.11-.615-.129-.708.059-1.05.012" fill="#00578D"/><path d="M21.998 28.538h-.139c-.069-.438-.387-.709-.85-.851-.352-.109-.862-.275-1.954-.61-1.267-.387-1.913-1.406-2-2.687a243.837 243.837 0 0 1-.37-7.008c1.428-.351 3.537-.627 5.313-.627 1.777 0 3.886.276 5.315.627-.066 2.022-.249 5.2-.372 7.008-.086 1.28-.731 2.3-1.998 2.688-1.092.334-1.603.5-1.955.609-.463.142-.781.413-.85.85h-.14z" fill="#FFF"/><path d="M21.636 23.92l-.258-.13-.168-.437-.38-.166-.426-.381-.254.28-.378.089-.202.32-.306.324-.415.219-.287.486-.162.216-.28.218-.155-.164-.165.158-.207.383a2.91 2.91 0 0 1-.21-.967c-.06-.85-.122-1.917-.182-3.01a24.92 24.92 0 0 1 4.636-.516v3.311c-.065-.039-.133-.07-.2-.233" fill="#0276A5"/><path d="M21.837 25.515h-4.17a2.387 2.387 0 0 0 1.483 1.262c.737.226 1.207.374 1.549.482l.407.127a1.7 1.7 0 0 1 .731.42v-2.291z" fill="#649342"/><path d="M26.242 23.904c.114-.092.246-.199.419-.262.024-.388.05-.805.075-1.235-.046.03-.095.069-.153.117-.2.16-.448.361-.885.361-.41 0-.676-.163-.889-.294-.174-.107-.313-.192-.516-.192-.225 0-.42.116-.625.24-.22.132-.472.282-.78.282a1.44 1.44 0 0 1-.729-.199v1.171c.044.025.085.05.124.074.187.115.348.214.606.214.158 0 .316-.095.5-.206.249-.148.529-.316.904-.316.356 0 .591.145.8.272.186.116.348.215.605.215.246 0 .378-.107.544-.242M22.889 26.571c-.315 0-.543-.095-.73-.198v1.433a1.7 1.7 0 0 1 .732-.42l.407-.127c.342-.108.81-.256 1.548-.482.215-.066.412-.155.59-.265-.268-.05-.462-.17-.627-.27-.174-.108-.313-.193-.516-.193-.225 0-.42.117-.625.24-.22.133-.472.282-.78.282" fill="#015589"/><path d="M26.242 22.103c.137-.11.3-.242.53-.293.007-.15.016-.3.025-.452a25.057 25.057 0 0 0-4.638-.516v1.251c.044.024.085.049.124.074.187.114.348.214.606.214.158 0 .316-.095.5-.206.249-.149.529-.317.904-.317.356 0 .591.146.8.273.186.115.348.214.605.214.246 0 .378-.107.544-.242M22.16 24.523v1.22c.043.024.084.05.123.074.187.115.348.214.605.214.159 0 .317-.095.501-.206.249-.148.529-.316.904-.316.356 0 .591.145.8.272.186.115.347.214.605.214.2 0 .324-.07.454-.169.267-.396.423-.886.461-1.458l.005-.072-.035.028c-.2.16-.448.362-.885.362-.41 0-.676-.163-.889-.294-.174-.108-.313-.193-.516-.193-.225 0-.42.116-.625.24-.22.132-.472.282-.78.282-.314 0-.543-.095-.729-.198" fill="#0276A5"/><path d="M17.183 21.04a197.64 197.64 0 0 1-.16-3.413 24.632 24.632 0 0 1 4.975-.557c1.54 0 3.499.221 4.977.557-.036.968-.094 2.194-.16 3.412a24.97 24.97 0 0 0-4.817-.513c-1.58 0-3.421.218-4.815.513" fill="#015589"/><path fill="#FFF" d="M18.154 18.432l.055-.263-.244-.11.265-.028.028-.266.108.245.26-.055-.197.18.133.233-.231-.136zM19.777 18.217l-.225-.146-.186.192.067-.26-.239-.121.266-.016.04-.266.097.25.261-.043-.204.17zM20.995 18.123l-.217-.157-.196.182.08-.256-.232-.133.266-.003.053-.263.085.255.264-.03-.214.16zM22.21 18.097l-.206-.17-.206.17.095-.252-.223-.147.265.014.07-.259.068.259.265-.014-.223.147zM25.677 18.234l-.23.135.133-.233-.197-.179.259.054.109-.245.027.267.265.028-.243.11.055.263zM24.353 17.978l-.206-.17.262.043.097-.25.04.265.265.015-.237.121.067.26-.187-.19-.224.146zM23.125 17.878l-.214-.16.265.03.084-.254.053.263.266.003-.232.132.08.257-.196-.182-.216.156zM18.331 20.402l.057-.262-.243-.112.265-.026.03-.266.106.245.26-.052-.198.178.13.235-.229-.138zM19.91 20.203l-.223-.147-.189.19.07-.26-.238-.123.266-.014.042-.265.095.25.262-.04-.206.169zM21.08 20.118l-.216-.158-.196.181.081-.256-.232-.134.267-.001.053-.263.084.255.264-.029-.214.16zM22.251 20.096l-.207-.17-.206.17.095-.251-.222-.147.265.014.068-.26.07.26.265-.014-.224.147zM25.58 20.218l-.23.137.133-.234-.198-.178.26.053.107-.246.028.266.265.027-.243.111.057.263zM24.302 19.972l-.207-.17.263.043.096-.251.04.265.266.015-.237.122.068.26-.188-.19-.224.146zM23.119 19.878l-.213-.16.264.03.084-.256.053.264.266.003-.232.132.08.257-.196-.183-.216.157zM18.913 19.239l.062-.261-.24-.118.265-.02.036-.265.101.248.26-.047-.201.174.125.237-.226-.142zM17.748 19.423l.053-.263-.244-.108.264-.03.026-.267.11.245.259-.056-.196.18.135.233-.231-.134zM20.488 19.075l-.22-.153-.193.186.075-.258-.234-.127.266-.009.047-.264.09.253.263-.035-.21.164zM21.653 19.019l-.211-.163-.201.177.087-.255-.228-.14.266.006.06-.261.078.256.264-.022-.218.154zM22.82 19.034l-.2-.176-.213.162.104-.248-.218-.154.265.022.077-.256.06.261.266-.005-.228.14zM26.139 19.231l-.234.132.138-.231-.193-.183.258.06.114-.244.021.267.264.034-.245.105.05.264zM24.866 18.958l-.203-.174.262.047.101-.249.036.267.265.02-.24.117.062.261-.183-.195-.227.143zM23.689 18.837l-.21-.164.263.035.09-.252.048.263.265.01-.234.127.074.258-.192-.186-.22.152z"/><path d="M35.989 23.802l-1.077.332.243.1-.377.238c.042-.219.078-.44.109-.664l.59-.494.014.262.665-.909-1.023.47.253.066-.472.394c.033-.271.058-.545.074-.822l.582-.644.048.258.538-.99-.952.602.26.031-.465.499a13.014 13.014 0 0 0-.533-4.25c-.59.054-1.179-.135-1.462-.19.754.443 1.016.921 1.126 1.47-.603.135-1.41-.063-1.85-.409.432.378.704.972.723 1.584-.623.032-1.197-.26-1.62-.683.273.302.614 1.066.534 1.61-.519-.055-1.131-.395-1.462-.801.274.608.406 1.1.374 1.646-.518-.098-.91-.242-1.371-.684.223.555.305 1.112.255 1.571-.597-.21-.993-.448-1.328-1.01.178.495.295 1.146.171 1.524-.504-.151-.838-.454-1.1-.97.26.546.227 1.183.14 1.513a1.319 1.319 0 0 1-.635-.35l-.02.288c-.025.37-.097.717-.217 1.034l.144.169c.265.285.628.557.914.647-.124.018-.293.124-.464.143.19.215.575.263.815.506-.187.022-.23.157-.455.132.429.331.822.344 1.043.369.088.01.377.037.56.01.26-.041.527.088.631.149.16.092.15.311.12.421a.302.302 0 0 1-.168.209c-.069.019-.112.024-.043-.027.063-.046.12-.323-.025-.43a.671.671 0 0 0-.429-.134c-.194.01-.49.027-.634.012-.131-.014-.213.16-.232.233-.048.172-.1.387-.35.28-.306-.176-.745-.162-1.246-.364.071.155.04.288.117.46-.447-.11-.56-.337-.986-.487.07.156.051.276.148.424-.36-.064-.695-.386-1.194-.52-.015.006-.03.01-.046.015l-.498.153c.353.401.645.892.781 1.486 0 0-.247.008-.617-.12.105.323.171.672.176 1.044 0 0-.28-.052-.662-.289.034.352.021.718-.052 1.096 0 0-.324-.133-.706-.522a3.95 3.95 0 0 1-.292 1.098s-.294-.2-.597-.669a4.255 4.255 0 0 1-.54 1.065s-.323-.338-.541-1.021c-.292.437-.568.625-.568.625a4.023 4.023 0 0 1-.292-1.099c-.381.39-.706.523-.706.523a3.784 3.784 0 0 1-.052-1.096c-.383.237-.664.289-.664.289.007-.372.072-.72.178-1.045-.37.129-.617.121-.617.121.14-.606.536-1.229.802-1.51h.001l-.422-.13a2.21 2.21 0 0 1-.046-.013c-.499.133-.834.455-1.193.519.096-.148.077-.268.147-.424-.426.15-.54.377-.985.487.076-.172.045-.305.118-.46-.414.202-.982.344-1.234.397-.277.058-.294-.355-.385-.446-.04-.04-.263-.058-.355-.042-.138.023-.407.012-.607.007a.684.684 0 0 0-.444.136c-.145.107-.077.396-.014.442.07.05.027.045-.042.026a.3.3 0 0 1-.168-.208c-.03-.11-.04-.33.12-.422.103-.06.371-.19.63-.15.183.029.472.002.56-.009.088-.01.735-.128 1.164-.46-.224.026-.268-.11-.455-.13.24-.244.625-.292.815-.507-.17-.019-.32-.155-.444-.173.378-.211.629-.332.894-.617l.144-.164a3.618 3.618 0 0 1-.22-1.039l-.02-.278c-.092.103-.282.206-.591.317-.145-.35-.075-1.006.108-1.512-.262.516-.56.852-1.065 1.003-.124-.379-.05-1.04.127-1.534-.336.561-.695.846-1.293 1.056a3.53 3.53 0 0 1 .219-1.618c-.46.442-.853.586-1.37.684-.032-.546.1-1.038.375-1.646-.33.406-1.02.684-1.538.739.039-.472.37-1.118.563-1.498-.49.353-1.01.603-1.574.633a3.04 3.04 0 0 1 .723-1.584c-.485.36-1.226.555-1.785.478.136-.588.497-1.161.986-1.468-.282.055-.797.173-1.387.118a13.026 13.026 0 0 0-.544 3.674c-.295-.231-.5-.29-.703-.49.039.276.074.426.105.768.056.615.288.968.673 1.188.02.176.041.35.067.523-.286-.184-.668-.297-1.175-.291.308 1.002.747 1.075 1.338 1.17.02.093.04.184.063.275-.314-.082-.69-.084-1.12.035.296.46.707.738 1.364.838l.004.01c-.404-.033-.841.026-1.19.204.499.429.988.592 1.454.544l.074.183c-.37.098-.695.29-.878.467.39.123.787.19 1.148.15l.012.028c-.211.16-.395.422-.509.832.277-.071.56-.09.844-.17.056.104.115.208.175.31-.15.285-.201.642-.114 1.038.238-.056.435-.15.596-.267l.17.245c-.059.454.047.911.317 1.215.108-.123.196-.241.27-.356.587-.895.232-1.54.245-2.121l.014-.037c.048.692.65 1.374-.056 2.21l-.039.045A12.977 12.977 0 0 0 22 35.025c5.598 0 10.37-3.535 12.205-8.496l.592-.256-.045.258.851-.737-1.103.228.233.121-.456.186c.08-.229.155-.46.223-.695l.648-.357-.022.26.782-.81-1.078.327.242.1-.518.285c.07-.254.131-.511.185-.77l.492-.313-.02.261.778-.815z" fill="#015589"/><path d="M15.15 28.54c1.059.798 1.66 1.905 1.814 2.796-.133-.097-.383-.198-.536-.17-.138-.94-.63-1.7-1.4-2.318a.987.987 0 0 1 .121-.307M14.34 29.369c.251.098.378.062.441-.027.135-.191.07-.442-.015-.487a.566.566 0 0 1-.002.25c-.014.075-.052.198-.191.18a.756.756 0 0 1-.293-.1c-.058-.039-.057-.139-.025-.223.016-.042.035-.102.087-.145-.086.02-.137.065-.205.118-.067.052-.167.062-.223 0a.73.73 0 0 1-.139-.19c-.06-.137.116-.238.218-.291-.176.002-.208.07-.35.045-.143-.025-.18-.255-.18-.331.001-.056.07-.11.154-.129a.738.738 0 0 1 .224-.006.547.547 0 0 1-.01-.125c-.145-.032-.424.016-.476.096-.067.1-.05.154.004.333.052.172.093.233.206.25.03.005.09.013.157-.012a.164.164 0 0 0-.077.086c-.019.045-.049.124.086.287.12.144.236.199.334.146.056-.031.075-.066.102-.093a.641.641 0 0 0-.04.12c-.027.142.079.196.212.248" fill="#FFF"/><path d="M14.155 28.267c.072-.09.246-.101.345-.04a.654.654 0 0 0-.036.443c-.25-.04-.295-.277-.31-.403M14.545 28.252c.147-.01.202-.082.229-.154.026-.07.105-.115.106-.007.001.107.002.155-.059.185a.303.303 0 0 1-.276-.024M14.62 28.485a.546.546 0 0 1-.09.224c-.038.054-.091.088-.13.121.067.051.162.08.243.077.08-.004.082-.016.078-.047a1.516 1.516 0 0 0-.1-.375M29.385 28.137a.657.657 0 0 1 .036.442c.25-.04.295-.277.31-.403-.073-.09-.246-.1-.346-.039M29.34 28.162c-.148-.01-.201-.083-.228-.154-.027-.071-.106-.115-.107-.008-.001.108-.002.156.059.185.061.03.17.04.276-.023M29.356 28.618a.562.562 0 0 1-.092-.224c-.03.053-.081.242-.1.376-.004.03-.001.042.079.047a.396.396 0 0 0 .243-.077c-.04-.033-.093-.067-.13-.122" fill="#FFF"/><path d="M33.71 24.644l.253.07-3.81 3.008h.002l-.09.072-.017.002a.53.53 0 0 1-.006.126.69.69 0 0 1 .189.014c.083.022.15.077.148.133-.001.076-.043.305-.187.326-.144.02-.173-.047-.35-.056.1.057.274.162.21.298a.775.775 0 0 1-.143.187c-.059.06-.158.046-.224-.008s-.115-.1-.2-.123c.05.045.068.105.081.148.03.084.028.184-.03.222a.773.773 0 0 1-.296.092c-.14.013-.174-.111-.186-.186a.58.58 0 0 1 .005-.25c-.086.042-.158.292-.029.487.06.09.186.13.441.04.135-.049.243-.1.22-.242-.008-.042-.023-.084-.036-.122.026.028.043.063.099.095.096.056.213.004.337-.136.139-.159.111-.239.094-.284a.164.164 0 0 0-.075-.088c.066.027.126.02.157.016.113-.013.156-.074.214-.245.06-.177.076-.23.012-.332-.027-.043-.118-.08-.22-.1l3.78-2.982.01.263.678-.9-1.03.455zM31.679 25.568l2.684-3.398.072.252.45-1.032-.897.681.262.01-2.43 3.08-.584.884.005.004.438-.48" fill="#FFF"/><path d="M31.359 26.578l.69-.545 2.236-2.07.031.26.604-.951-.99.536.257.049-2.243 2.08-.585.641M33.842 26.091l-3.148 1.577-.127.1c.022.019.04.039.054.06l.016.029 3.27-1.637-.044.26.848-.744-1.102.236.233.12zM29.085 29.426a.334.334 0 0 1-.124-.072l-.563 1.169.002.001-.206.07-.667 1.277.323-.098.118.317.63-1.296-.073-.209.56-1.159z" fill="#FFF"/><path d="M31.28 27.207c.215-.108.464-.234.718-.36l2.093-1.368-.014.262.757-.834-1.067.36.245.091-2.277 1.49-.456.359M28.828 29.113a.573.573 0 0 1-.017-.19l-.748.815-.22.018-.018.019-1.041 1.04.05-.001-.005.003.013-.004.257-.012.045.254.862-1.133.166-.035.656-.774zM30.207 27.488l.381-.3 3.674-4.018.052.258.526-.998-.945.614.26.028-3.846 4.208-.102.208M26.918 30.235l1.37-.964.389-.425-1.71 1.129v.003l-.212-.045-.126.078-1.098.685.309.064.037.232.886-.764.155.007zM25.784 30.361l.548-.342.512-.348.174.033s1.246-.768 1.551-.968l.024-.016.01-.006-1.637.817-.207-.065-1.302.618.293.107.034.17zM31.957 22.8l.259-.045-2.353 4.766a.63.63 0 0 1 .049.027.24.24 0 0 1 .069.059l2.364-4.788.121.234.23-1.104-.739.851zM32.24 23.604l.262-.013-1.478 2.243-.49.99a.465.465 0 0 0 .024-.025l2.065-3.128.091.246.362-1.068-.836.755zM10.59 26.429c.034.003.027 0-.011-.012-.393-.22-.671-.294-1.211-.221.507.037.863.106 1.223.233M10.833 29.193c.059-.376.307-.826.674-1.129.257-.212.402-.29.189-.066-.326.34-.704.892-.863 1.195M11.636 30.22c-.14-.354-.019-.923.134-1.295.107-.257.37-.648.452-.685-.292.45-.602 1.639-.586 1.98M10.458 25.275a.248.248 0 1 0-.486.1.248.248 0 0 0 .486-.1M12.615 25.616c.009-.371-.048-.753-.004-1.186-.74.539-.991 1.483-.685 2.143a.257.257 0 1 0 .096.037c-.123-.584-.021-1.313.285-1.62-.096.365-.27 1.13-.157 1.837.12-.137.21-.271.278-.403.013.111.04.227.087.347.016-.561.205-1.118.787-1.505-.427.541-.672 1.175-.723 1.65.31-.394 1.017-.51 1.067-2.055-.357.108-.786.37-1.031.755M13.102 27.203a.269.269 0 1 0-.527.105.269.269 0 0 0 .527-.105M13.01 28.016a.268.268 0 1 0 0 0" fill="#FFF"/><path d="M11.453 24.053c-.544.456-.697 1.029-.639 1.53a.208.208 0 0 0-.227.247.207.207 0 0 0 .315.135c.051.146.12.28.199.395a3.09 3.09 0 0 1-.103-.548.205.205 0 0 0-.002-.064l-.005-.014c-.029-.428.038-.869.275-1.187-.075.466-.184 1.368-.08 1.927.16-.596 1.018-.859.267-2.421M13.636 27.567a.21.21 0 0 0-.246-.163.21.21 0 0 0 .083.41.21.21 0 0 0 .163-.247M12.48 27.527a.19.19 0 0 0-.225-.149.191.191 0 0 0-.15.225.19.19 0 0 0 .226.151.191.191 0 0 0 .15-.227M9.85 24.88a.179.179 0 0 0-.174-.147c-.27-.364-.658-.755-1.306-.824.354.169.888.496 1.259.83a.178.178 0 1 0 .22.141M9.857 23.653a.225.225 0 0 0-.265-.176c-.005 0-.01.003-.015.004-.147-.573-.29-1.02-.942-1.469.328.418.705 1.028.916 1.477a.224.224 0 0 0-.135.253c.025.122.143.2.265.177a.226.226 0 0 0 .176-.266M10.519 25.91a.177.177 0 0 0-.318-.076c-.577-.51-.974-.512-1.278-.526.183.066.844.255 1.262.55a.175.175 0 0 0-.017.111.179.179 0 0 0 .205.147.179.179 0 0 0 .146-.207M11.003 26.63a.258.258 0 0 0-.302-.201.257.257 0 1 0 .303.201" fill="#FFF"/><path d="M11.376 27.071a.177.177 0 0 0-.206-.144.176.176 0 0 0-.132.102c-.501-.066-1.048.003-1.507.26.516-.12 1.054-.23 1.496-.232h.001a.174.174 0 0 0-.004.074.179.179 0 0 0 .352-.06M11.893 27.373a.235.235 0 0 0-.274-.183.233.233 0 0 0-.181.272l-.017-.001c-.371-.015-.99.084-1.37.533.39-.23 1.009-.465 1.38-.515h.011a.232.232 0 0 0 .27.167.234.234 0 0 0 .181-.273" fill="#FFF"/><path d="M38.305 14.092c.606-.266 1.3-.145 1.477.257.176.406-.204.999-.81 1.264-.61.268-1.306.147-1.484-.26-.175-.401.205-.994.817-1.261m.914 2.087c.767-.336 1.114-1.192.79-1.93-.323-.74-1.186-1.06-1.953-.723-.767.335-1.12 1.19-.797 1.928.325.739 1.194 1.062 1.96.725M38.148 18.178l-.293-1.156.178-.046.082.323 2.447-.62-.081-.324.178-.045.445 1.75.118-.03.059.23-.676.171-.057-.225.306-.077-.225-.884-1.003.254.174.68.288-.073.062.228-.836.212-.063-.228.297-.075-.172-.68-1.122.285.072.284z" fill="#015589"/><path d="M3.925 15.075l-.106.353 1.58.47c.475.142.724.395.786.802.029.21.014.43-.052.648-.203.68-.708 1.01-1.288.837l-1.697-.505-.095.319-.176-.052.35-1.177.177.053-.094.315 1.566.467c.425.127.641.108.818-.072a.827.827 0 0 0 .184-.325c.15-.504-.06-.886-.573-1.04l-1.563-.466-.104.35-.18-.055.29-.974.177.052z" fill="#00578D"/><path d="M6.701 15.758a.294.294 0 1 1-.542-.227.294.294 0 0 1 .542.227M7.248 14.507l-.119.21-.687-.387.118-.21.283.159c.234-.095.357-.197.462-.384.133-.236.088-.488-.11-.6-.172-.097-.356-.054-.786.172-.447.242-.511.265-.682.3a.752.752 0 0 1-.513-.097c-.42-.236-.526-.703-.263-1.17.084-.148.174-.254.316-.365l-.115-.064.117-.207.653.368-.116.206-.264-.148c-.193.103-.29.184-.369.326-.112.198-.056.43.123.532.154.086.298.052.738-.184.213-.111.344-.184.398-.209a.985.985 0 0 1 .38-.093c.159-.006.304.03.453.114.436.246.563.734.312 1.182-.125.22-.26.356-.463.473l.134.076zM8.397 12.521c0 .16-.127.288-.287.288a.285.285 0 0 1-.286-.288c0-.16.127-.286.286-.286.16 0 .287.127.287.286M15.18 6.883l-1.855.955-.085-.164.296-.152-1.156-2.245-.296.152L12 5.265l1.605-.826-.055-.11.21-.108.319.62-.206.106-.145-.28-.81.417.473.92.623-.32-.137-.265.21-.113.395.768-.209.112-.14-.273-.624.321.496.963.846-.436-.149-.289.21-.107zM16.965 6.238l-1.207.4-.058-.175.317-.105-.795-2.397-.316.105-.058-.175 1.261-.418c.516-.17.957.03 1.115.509.15.453-.125.96-.612 1.121-.07.024-.118.035-.233.05l-.068-.204a.428.428 0 0 0 .117-.025c.283-.094.373-.35.25-.72-.129-.392-.35-.545-.65-.445l-.25.083.775 2.338.354-.117.058.175zM18.394 4.642l.25-1.156.597 1.009-.847.147zm2.133.622l-.181.031-1.55-2.573-.264.045-.635 2.954-.268.046.031.181.894-.155-.031-.181-.345.06.159-.748 1.05-.183.388.653-.302.053.03.181 1.055-.182-.031-.182zM21.776 2.801h.276c.312.002.491.204.49.555 0 .346-.208.587-.51.586l-.259-.001.003-1.14zm1.779 2.464h-.18c-.088 0-.14-.04-.24-.194l-.62-.957c.412-.126.613-.38.614-.774a.763.763 0 0 0-.213-.566c-.157-.159-.368-.216-.745-.217l-1.293-.003v.184h.333l-.006 2.526-.333-.001v.185l1.227.002v-.184h-.329l.003-1.105h.118l.655 1.032c.149.233.193.259.451.26h.557v-.188zM25.539 5.802l-1.393-.236.03-.181.42.07.408-2.415-.748-.127-.06.359-.238-.04.124-.735.239.04-.021.12 2.049.348.02-.122.237.04-.124.735-.237-.04.06-.358-.743-.126-.408 2.416.414.07zM29.634 7.186l-1.213-.471.066-.172.343.134.685-1.767-1.666 1.63-.232-2.323-.67 1.729.343.133-.067.171-.944-.366.066-.171.343.133.914-2.355-.344-.133.067-.171.724.28.232 2.276 1.59-1.569.81.314-.067.171-.343-.133-.913 2.355.343.133zM31.769 8.581l-1.76-1.123.1-.155.28.18 1.36-2.129-.28-.18.099-.154 1.522.972.065-.104.2.128-.375.587-.196-.125.17-.266-.768-.49-.557.871.59.378.162-.252.202.124-.466.728-.201-.124.165-.258-.592-.378-.582.913.802.512.174-.273.2.127zM12.323 6.788c-.48-.654-1.373-.78-2.04-.29l-1.102.81.108.148.269-.198L11.05 9.29c.07.028.14.054.21.08l.732-.537c.347-.254.527-.534.594-.91a1.48 1.48 0 0 0-.263-1.134m-.562 1.915l-.286.21-1.425-1.94.3-.22c.413-.304 1.094-.118 1.476.4.407.556.38 1.223-.065 1.55M35.502 7.98l-.124.137.256.234-1.238 1.357.313-2.451-.645-.587-.123.136.233.212-.048.26-1.55 1.7-.27-.245-.123.136.732.668.123-.137-.255-.233 1.29-1.415L33.799 10c.267-.07.553-.146.863-.233l.074-.02 1.103-1.21.273.247.124-.135-.733-.668zM38.453 11.168l-.097.075-1.261-1.651.097-.075-.147-.192-.592.452.147.192.289-.22.46.602-1.947 1.488-.1-.132c-.056.03-.113.059-.17.082l.722.945.147-.111-.256-.335 1.948-1.487.457.599-.29.22.148.192.592-.452-.147-.192zM25.636 41.27l-.235.051-.17-.77.237-.053.07.317c.225.112.383.136.593.09.265-.058.424-.258.375-.482-.042-.192-.197-.302-.651-.472-.478-.174-.539-.205-.678-.31a.746.746 0 0 1-.27-.447c-.103-.471.177-.86.699-.975a1.15 1.15 0 0 1 .483-.007l-.028-.128.23-.05.161.732-.23.05-.066-.295c-.205-.076-.33-.094-.488-.06-.223.05-.36.245-.316.447.039.171.16.257.628.428.226.086.367.135.421.159a.976.976 0 0 1 .322.221c.111.116.18.248.217.416.107.487-.173.908-.675 1.018-.248.054-.44.042-.661-.031l.032.15zM30.093 39.868l-1.942.763-.067-.172.31-.121-.923-2.352-.31.123-.067-.171 1.682-.661-.046-.114.22-.087.255.649-.216.085-.115-.294-.85.334.379.962.653-.256-.11-.278.22-.09.315.804-.218.09-.112-.285-.654.256.396 1.008.886-.347-.12-.302.221-.086zM33.015 38.088c-.248.31-.421.472-.707.644-.79.48-1.676.289-2.128-.457-.448-.739-.22-1.63.535-2.087.242-.148.43-.217.706-.255l-.095-.157.205-.126.407.671-.205.126-.146-.24c-.305-.021-.45.01-.649.131-.52.316-.62.971-.243 1.593.368.608 1.055.837 1.573.523a1 1 0 0 0 .407-.452l-.172-.284.21-.128.302.498zM34.334 33.563l-.272.249 1.111 1.218c.334.366.417.71.26 1.091-.083.195-.209.376-.377.528-.524.48-1.128.502-1.536.055l-1.194-1.308-.246.224-.123-.136.906-.827.124.136-.243.221 1.102 1.209c.299.327.493.422.738.36a.822.822 0 0 0 .325-.185c.389-.354.405-.791.045-1.186l-1.1-1.205-.269.245-.127-.14.752-.685.124.136zM39.258 31.007l-.586 1.079-.161-.088.159-.293-2.22-1.203-.16.293-.16-.088.583-1.08.162.089-.157.289 2.22 1.203.158-.289zM40.377 28.383l-.497 1.32-.172-.064.15-.398-2.293-.864-.268.71.34.128-.084.226-.698-.263.085-.225.115.043.732-1.945-.115-.043.085-.225.698.262-.085.226-.34-.128-.266.705 2.293.864.148-.394zM41.154 25.157l-.235 1.205-.181-.035.063-.323-1.188-.232-1.457.6-.053.27-.18-.035.234-1.204.182.035-.063.318 1.062-.426-.831-.757-.071.366-.18-.036.196-1.002.18.036-.06.31 1.038.948 1.3.254.063-.327zM38.202 32.587l-.107.144c-.052.07-.115.09-.299.078l-1.139-.07c.145-.406.06-.72-.256-.955a.764.764 0 0 0-.582-.165c-.222.033-.392.168-.617.47l-.77 1.039.146.11.2-.268 2.027 1.506-.199.267.148.11.732-.985-.148-.11-.196.264-.887-.66.07-.094 1.22.086c.275.02.322 0 .477-.208l.332-.447-.152-.112zm-3.038-.034l.164-.222c.186-.25.456-.274.737-.065.277.207.348.515.168.759l-.154.207-.915-.679zM3.463 27.87l-.292-1.193.18-.044.077.32 1.12-.274-.338-1.384-1.12.273.078.32-.179.044-.291-1.193.179-.044.078.325 2.454-.6-.08-.324.18-.043.29 1.191-.178.044-.078-.32-1.082.265.338 1.384 1.083-.264-.08-.32.18-.044.292 1.193-.18.044-.078-.323-2.454.599.08.324zM5.134 28.536c.602-.274 1.298-.162 1.48.236.184.404-.189 1.002-.792 1.277-.606.276-1.302.164-1.486-.238-.181-.4.19-.997.798-1.275m.945 2.075c.762-.347 1.097-1.208.763-1.941-.335-.735-1.203-1.043-1.964-.696-.762.348-1.104 1.206-.769 1.94.334.734 1.208 1.045 1.97.697M7.193 34.776l-.765-1.055.15-.107.215.298 1.533-1.113-2.283.466 1.063-2.078-1.5 1.089.216.298-.149.11-.595-.821.15-.108.216.298 2.043-1.484-.216-.297.149-.109.455.627-1.038 2.04 2.188-.458.51.703-.15.109-.216-.298-2.044 1.483.217.299zM9.474 37.018l-1.535-1.414.124-.135.246.225 1.711-1.856-.245-.226.125-.136 1.328 1.225.083-.091.175.16-.473.513-.17-.157.213-.232-.67-.619-.701.76.515.477.202-.22.177.157-.585.636-.178-.157.208-.227-.515-.474-.734.796.7.645.219-.24.174.161zM12.084 38.808l-1.717-1.155.103-.154.277.188 1.41-2.096-.278-.186.103-.153 1.019.685-.103.153-.273-.183-1.368 2.033.775.522.182-.27.195.132zM13.833 38.435l.858-.814-.076 1.17-.782-.356zm1.41 1.717l-.166-.077.17-3-.243-.11-2.19 2.08-.247-.112-.077.167.826.377.076-.169-.319-.145.553-.528.97.441-.046.76-.28-.127-.076.167.973.443.077-.167zM18.277 41.186l-.298-.072-.984-2.445-.446 1.864.337.08-.043.18-.964-.231.043-.18.354.085.536-2.237-.085-.251-.306-.073.043-.18.848.204.91 2.296.429-1.787-.337-.08.043-.18.964.231-.044.179-.358-.086zM21.123 38.51l-1.366-.048-.008.184.334.011-.09 2.524h-.001l-.334-.012-.006.185 1.362.048h-.003.004c.43.015.745-.092 1.03-.345.308-.278.484-.65.498-1.052.03-.81-.592-1.464-1.42-1.494m.803 1.472c-.025.688-.46 1.194-1.012 1.174l-.355-.013.086-2.405.372.014c.513.018.931.586.909 1.23" fill="#015589"/><path d="M10.946 22.817c-.837.367-1.226 1.41-.797 2.175.391-.557 1.13-.678.797-2.175m-.795 2.135c-.1-.42.163-1.542.538-1.772-.243.544-.343 1.048-.538 1.772M10.095 21.25c-.268.11-.648.482-.818.973.066.076.122.157.17.24.095-.36.297-.777.502-.955-.134.229-.321.734-.413 1.132.095.22.136.452.13.67.51-.467.688-1.277.429-2.06" fill="#FFF"/></g></svg>