<svg width="200" height="84" xmlns="http://www.w3.org/2000/svg" xmlns:xlink="http://www.w3.org/1999/xlink"><defs><path id="a" d="M0 84.739h200V0H0z"/></defs><g fill="none" fill-rule="evenodd"><path fill="#0778AE" d="M0 84.739h200V0H0z"/><g><path d="M28.788 18.423c10.52-4.315 22.546.715 26.861 11.235 4.315 10.52-.715 22.546-11.235 26.862-10.52 4.315-22.546-.716-26.861-11.236-4.316-10.52.715-22.546 11.235-26.86" fill="#FEFEFE"/><path d="M28.588 26.176c2.236-1.648 5.06-2.589 8-2.589 3.294 0 6.353 1.177 8.824 3.177.235-.118.588-.118.823-.236-2.588-2.235-5.882-3.647-9.647-3.647-3.294 0-6.353 1.06-8.823 2.942.117 0 .235.117.353.117.235.118.353.236.47.236m20.47 3.882c-.234.118-.47.118-.705.235 1.294 2.118 2 4.588 2 7.177 0 7.647-6.235 13.764-13.765 13.764-7.647 0-13.764-6.235-13.764-13.764 0-2.706.823-5.294 2.235-7.412-.235-.118-.47-.118-.706-.235-1.412 2.235-2.235 4.823-2.235 7.764 0 8 6.47 14.47 14.47 14.47s14.47-6.47 14.47-14.47c0-2.823-.705-5.411-2-7.53" fill="#C32032"/><path d="M36.588 56.764c-10.588 0-19.294-8.588-19.294-19.294 0-10.589 8.588-19.294 19.294-19.294 10.588 0 19.294 8.588 19.294 19.294 0 10.588-8.588 19.294-19.294 19.294m0-39.883C25.294 16.881 16 26.058 16 37.47c0 11.294 9.176 20.588 20.588 20.588 11.294 0 20.588-9.177 20.588-20.588A20.536 20.536 0 0 0 36.588 16.88" fill="#C0C1C3"/><path d="M49.294 26.058c-.823.706-2.118.941-3.53 1.412-1.058.353-1.646.588-2.588 1.294-.235.235-.47.47-.47 1.059 0 .588.118.823.118 1.647 0 .588-.236 1.058-.471 1.294a1.83 1.83 0 0 1-.941.706c0 .47 0 1.058-.118 1.647.235.117.47.235.706.235.118-.353.118-.824.118-1.059.353.235.94.353 1.411.353 0-.353-.117-.941-.47-1.294.588.118.941.118 1.412 0a2.562 2.562 0 0 0-.589-.941c.589 0 1.294-.235 1.647-.353a3.58 3.58 0 0 0-.94-.941c.47 0 1.411-.118 1.764-.353-.235-.236-.588-.706-.824-.824.706 0 1.412-.353 1.765-.47a1.418 1.418 0 0 0-.588-.589c.588 0 1.294-.117 1.765-.353-.118-.235-.353-.588-.589-.705 1.412-.589 1.412-1.295 1.412-1.765m-17.647 7.294a3.575 3.575 0 0 1-.823-.588c-.824-.824-1.06-1.647-.824-2.588.118-.589.353-.824.353-1.412 0-.353-.235-.588-.588-.824-.589-.588-1.294-.94-2.353-1.294-.588-.235-2.47-.823-3.294-1.53-.236.589.235 1.295.706 1.412-.471 0-.824.236-.942.471.353.353.942.706 1.412.706-.235.118-.588.47-.588.706.47.235 1.176.47 1.765.353l-.589.588c.353.118 1.06.47 1.765.47-.235.118-.588.589-.823.824.352.118 1.176.235 1.764.353a3.58 3.58 0 0 0-.94.941c.352.236 1.058.353 1.646.353-.235.235-.47.588-.588.941.47.118.941.118 1.412 0-.353.353-.47.942-.47 1.294.47 0 1.058-.117 1.41-.352-.117.352-.117.823.118 1.058.118 0 .353-.117.589-.235-.118-.47-.118-1.176-.118-1.647" fill="#045287"/><path d="M43.53 27.47c-2-1.412-4.354-2.118-6.942-2.118-2.353 0-4.588.706-6.353 1.765.47.353.824.823.824 1.176.117.353.117.824-.118 1.412-.235.706-.353 1.412.118 2.118.47.705 1.176.94 1.647 1.058.706-.117 1.412-.235 2.235-.235.118-.353.353-.588.706-.823.47-.353.353-.589.235-.824a.919.919 0 0 0-.47-.47c-.236-.118-.941-.118-.941.235-.118-.118-.236-.353-.118-.706s.706-.47.941-.47c-.118-.118 0-.236.235-.354.353-.117.706-.117.942-.117.705 0 .705.117 1.058.47.353.353.942.47 1.177.236-.118.353-.588.47-.941.47.117.47.235.824.235 1.412 0 .235.118.588.118.941.823.118 1.764.235 2.47.353.353-.118.588-.235.941-.588.236-.353.589-.706.471-1.765 0-.235-.118-1.059-.118-1.412.118-.823.706-1.294 1.647-1.764" fill="#045287"/><path d="M35.412 29.587c.117.118.235.118.235.118v.235s.235-.117.353-.117.353-.118.353-.118c-.47-.235-.588 0-.941-.118" fill="#045287"/><path d="M36.588 43.587h-.117c-.118-.353-.353-.706-.824-.823-.353-.118-.823-.236-1.882-.588-1.177-.353-1.765-1.295-1.883-2.471-.117-1.647-.235-4.706-.353-6.588 1.295-.353 3.295-.589 4.942-.589 1.647 0 3.647.236 4.94.589-.117 1.882-.235 4.823-.352 6.588-.118 1.176-.706 2.118-1.883 2.47-1.058.353-1.529.471-1.882.589-.47.117-.706.353-.823.823h.117" fill="#FEFEFE"/><path d="M36.235 39.234L36 39.117l-.118-.353-.353-.118-.353-.353-.235.235-.353.118-.235.353-.235.353-.353.235-.236.47-.117.236-.47-.117-.118-.118-.118.118-.235.352c-.118-.235-.118-.47-.236-.94 0-.824-.117-1.765-.117-2.824 1.294-.236 2.94-.47 4.353-.47v3.176c-.118 0-.118-.118-.236-.236" fill="#0778AE"/><path d="M36.47 40.764h-3.882c0 .117.118.235.236.353.235.353.705.706 1.176.823.706.236 1.176.353 1.412.47l.353.118c.353.118.588.236.706.353v-2.117" fill="#5E9741"/><path d="M37.412 41.705c-.236 0-.47-.118-.706-.235v1.294c.118-.118.353-.353.706-.353l.353-.118 1.411-.47c.236-.118.353-.118.589-.236a.899.899 0 0 1-.589-.235c-.117-.118-.235-.235-.47-.235s-.353.117-.588.235c-.118.235-.353.353-.706.353m3.176-2.47c.118-.118.236-.236.353-.236 0-.353 0-.706.118-1.176l-.118.117c-.235.118-.47.353-.941.353-.353 0-.588-.117-.824-.235-.117-.118-.235-.235-.47-.235s-.353.117-.588.235c-.236.118-.47.235-.706.235s-.47-.117-.706-.235v1.059s.118 0 .118.117a.899.899 0 0 0 .588.236c.117 0 .353-.118.47-.236.236-.117.47-.353.824-.353.353 0 .588.118.706.236a.899.899 0 0 0 .588.235c.235.118.353 0 .588-.118" fill="#045287"/><path d="M36.706 39.823v1.176s.118 0 .118.118a.899.899 0 0 0 .588.235c.117 0 .353-.118.47-.235.236-.118.47-.353.824-.353.353 0 .588.117.706.235a.899.899 0 0 0 .588.235c.235 0 .353-.117.47-.117.236-.353.354-.824.471-1.412v-.118c-.235.118-.47.353-.823.353s-.589-.117-.824-.235c-.118-.118-.235-.235-.47-.235-.236 0-.353.117-.589.235-.235.118-.47.235-.706.235-.353 0-.588 0-.823-.117m3.882-2.236c.118-.117.236-.235.47-.235v-.47c-1.293-.236-2.94-.471-4.352-.471v1.176s.118 0 .118.118a.899.899 0 0 0 .588.235c.117 0 .353-.117.47-.235.236-.118.47-.353.824-.353.353 0 .588.118.706.235a.899.899 0 0 0 .588.236c.235 0 .353-.118.588-.236" fill="#0778AE"/><path d="M32.118 36.528C32 35.352 32 34.293 32 33.352c1.412-.353 3.176-.47 4.588-.47s3.294.235 4.588.47c0 .941-.117 2-.117 3.176-1.294-.235-3.059-.47-4.47-.47-1.413 0-3.177.235-4.471.47" fill="#045287"/><path d="M38.235 34.528L38 34.293l.235.118.118-.235v.235h.235l-.235.117.118.236-.236-.236-.117.236.117-.236zm1.06.118l-.236-.235.235.117.118-.235v.235h.353l-.236.118v.235l-.117-.235-.236.235.118-.235zm1.176.235l-.236.118.118-.235-.118-.118h.236l.117-.235v.235h.236l-.236.118v.235l-.117-.118zm-3.06-.235l-.235-.118-.235.118.118-.235-.235-.118h.352v-.235l.118.235h.235l-.235.118.118.235zm-1.176 0l-.117-.118-.236.118.118-.235-.235-.118H36l.118-.235v.235h.235l-.118.118v.235zm-1.059.118l-.235-.236-.117.236v-.236l-.118-.117h.235v-.235l.118.235.235-.118-.235.235.117.236zm-2.588.235l.118-.235-.235-.118h.235v-.235l.118.235h.235l-.118.118.118.235-.235-.118-.236.118zm1.177-.118v-.235l-.236-.118h.236l.117-.235v.235l.236-.117-.118.235.118.118-.236-.118-.117.235zm3.882.589l-.235-.118h.235l.118-.235v.235h.353l-.236.118v.235l-.117-.118-.236.118.118-.235zm1.059.117l-.118-.235.236.118.117-.236v.236h.235l-.235.117.118.236-.235-.236-.236.236.118-.236zm1.294.236l-.235.117.117-.235-.235-.235.235.117.118-.235v.235h.235l-.235.118.118.235-.118-.117zm-3.176-.118l-.236-.235-.117.235.117-.235-.235-.118h.235v-.235l.118.235h.235l-.235.118.118.235zm-1.06 0l-.235-.118-.117.118v-.235l-.236-.118h.236l.117-.235.118.235h.235l-.235.118.118.235zm-1.058.118l-.235-.236-.236.236.118-.236-.235-.117h.235v-.236l.118.236.235-.118-.118.235.118.236zm-1.53.117v-.235l-.117-.118h.235v-.235l.118.235.235-.117-.235.235.117.235-.235-.117-.118.117zm4.471-2.353l-.235-.117h.235l.118-.236.117.236h.236l-.236.117v.236l-.117-.118-.236.118.118-.236zm1.177.118l-.236-.118h.236l.117-.235v.235h.235l-.117.118v.235l-.118-.117-.235.117.118-.235zM40 33.94l-.235.118.235-.235-.235-.118H40l.118-.235v.235l.235.118h-.235l.117.235L40 33.94zm-3.176-.117l-.236-.236-.117.236v-.236l-.118-.117h.235v-.236l.118.236h.235l-.235.117.118.236zm-1.177 0l-.235-.118-.118.118.118-.236-.236-.117h.236v-.236l.117.236h.236l-.236.117.118.236zm-1.176.117l-.118-.117-.235.117.117-.235-.235-.118h.235v-.235l.118.235h.235l-.117.118v.235zm-1.412.118v-.235h-.235l.235-.118v-.235l.117.235h.236l-.118.118.118.235-.236-.118-.117.118z" fill="#FEFEFE"/><path d="M49.647 39.117l-.941.353.235.117-.353.236c0-.236.118-.353.118-.589l.588-.47v.235l.588-.823-.94.47.234.118-.47.353c0-.236 0-.47.118-.824l.588-.588v.235l.47-.94-.94.587h.234l-.47.47v-.47c0-1.176-.235-2.353-.47-3.53a4.388 4.388 0 0 1-1.412-.234c.705.47.94.823 1.058 1.411-.588.118-1.294 0-1.764-.353.353.353.706.942.706 1.53-.589 0-1.06-.235-1.53-.588.353.117.588.823.588 1.294-.47 0-1.058-.353-1.411-.706.235.588.353 1.059.353 1.53-.471-.118-.824-.236-1.295-.589.236.47.236 1.059.236 1.412-.589-.236-.941-.47-1.294-.941.117.47.235 1.058.117 1.411-.47-.117-.823-.47-1.059-.94.236.47.236 1.058.118 1.41a.647.647 0 0 1-.588-.352v.235c0 .353-.118.706-.235.941l.117.118c.235.235.588.47.824.588-.118 0-.236.118-.47.118.234.235.587.235.705.47-.118 0-.235.118-.47.118.352.353.823.353.94.353h.471c.235 0 .47.118.588.118.118.117.118.235.118.353 0 .117 0 .117-.118.235-.117 0-.117 0 0 0 0 0 .118-.353 0-.353-.117-.118-.235-.118-.353-.118h-.588a.253.253 0 0 0-.235.236c0 .117-.118.353-.353.235s-.706-.118-1.176-.353c.117.118 0 .235.117.47-.47-.117-.47-.352-.941-.47.118.118 0 .235.118.353-.353-.118-.706-.353-1.06-.47-.117 0-.352.117-.47.117.353.353.588.824.706 1.412 0 0-.235 0-.588-.118.118.353.118.588.118.941 0 0-.236 0-.589-.235v1.059s-.353-.118-.706-.47c0 .352-.117.705-.235 1.058l-.588-.588c-.118.353-.235.706-.47.941 0 0-.354-.353-.471-.941-.236.353-.589.588-.589.588.236-.235.118-.588.118-.941-.353.353-.706.47-.706.47a1.632 1.632 0 0 1 0-1.058c-.353.235-.588.235-.588.235 0-.353.118-.706.118-.941-.353.118-.589.118-.589.118.118-.589.471-1.177.706-1.412-.117 0-.235-.118-.353-.118-.47.118-.823.47-1.058.47.117-.117.117-.235.117-.352-.353.117-.47.353-.941.47.118-.117 0-.235.118-.47-.353.235-.942.353-1.177.353-.235 0-.235-.353-.353-.47h-.94c-.236 0-.354 0-.472.117a.358.358 0 0 0 0 .47c.118 0 0 0 0 0-.117 0-.117-.117-.117-.235 0-.118 0-.353.117-.353.118 0 .353-.235.589-.118h.47c.118 0 .706-.117 1.06-.47-.236 0-.236-.118-.471-.118.235-.235.588-.235.705-.47-.117 0-.353-.118-.47-.118.353-.235.588-.353.823-.588l.118-.118c-.118-.353-.235-.588-.235-.941v-.235c-.118.117-.236.235-.589.353-.117-.353-.117-.942.118-1.412-.235.47-.47.823-.941.941-.118-.353 0-.941.118-1.412-.353.47-.706.824-1.177.941 0-.47 0-.94.235-1.529-.47.47-.823.588-1.294.588 0-.47.118-.94.353-1.53-.353.354-.94.59-1.412.707 0-.47.353-1.06.471-1.412-.47.353-.941.588-1.412.588.118-.47.236-1.059.706-1.53-.47.354-1.176.471-1.647.471.118-.588.47-1.058.941-1.411-.235 0-.706.117-1.294.117-.353 1.06-.47 2.236-.47 3.412-.236-.235-.471-.235-.706-.47 0 .235.117.352.117.705 0 .589.236.941.589 1.06 0 .117 0 .352.117.47a2.35 2.35 0 0 0-1.059-.236c.236.942.706 1.06 1.295 1.06 0 .117 0 .117.117.235-.235-.118-.588-.118-1.059 0 .236.47.706.705 1.294.823-.352 0-.823 0-1.058.235.47.353.94.589 1.411.47 0 0 0 .119.118.119-.353.117-.706.235-.823.47.352.118.705.118 1.058.118-.235.117-.353.353-.47.823.235-.117.47-.117.823-.117 0 .117.118.235.118.235-.118.235-.235.588-.118.941.236 0 .353-.117.589-.235 0 .118.117.118.117.235 0 .47 0 .824.353 1.177.118-.118.235-.236.235-.353.589-.824.236-1.412.236-2 0 .588.588 1.294 0 2.117 2.235 2.589 5.53 4.236 9.176 4.236 5.177 0 9.647-3.294 11.412-7.883l.588-.235v.235l.824-.706-1.53.353.236.118-.471.118c.118-.236.118-.47.235-.706l.589-.353v.235l.705-.706-1.058.353.235.118-.353.235c.118-.235.118-.47.118-.706l.47-.235v.235l.706-.823" fill="#045287"/><path d="M29.412 44.293c.235.118.353 0 .47 0 .118-.235.118-.47 0-.47v.235c0 .118 0 .235-.235.118-.118 0-.235 0-.235-.118v-.235s0-.118.117-.118c-.117 0-.117.118-.235.118h-.235c-.118-.118-.118-.118-.118-.236 0-.117.118-.235.235-.235-.117 0-.235.118-.352 0-.118 0-.118-.235-.118-.353l.118-.118h.235v-.117c-.118 0-.353 0-.47.117-.118.118 0 .118 0 .353 0 .118.117.236.235.236h.117l-.117.117s0 .118.117.236c.118.117.235.235.353.117l.118-.117v.117c-.236.236-.118.353 0 .353m.823-.706c.941.706 1.53 1.765 1.647 2.589-.117-.118-.353-.236-.47-.118-.118-.824-.588-1.53-1.294-2.118 0-.235 0-.353.117-.353" fill="#FEFEFE"/><path d="M29.65 43.236c.119 0 .238-.119.238-.119 0-.118.118-.118.118 0v.12c-.118.118-.237.118-.356 0m-.356 0c.119-.12.238-.12.356 0a.361.361 0 0 0 0 .474c-.356-.119-.356-.356-.356-.475" fill="#FEFEFE"/><path d="M43.412 43.592c0-.118-.118-.118-.118-.237 0 0-.118.237-.118.356h.118c.118 0 .118 0 .235-.119 0 .119 0 .119-.117 0zm0-.356c-.118 0-.236-.119-.236-.119 0-.118-.117-.118-.117 0v.12h.353zm.117-.119a.364.364 0 0 1 0 .475c.236 0 .236-.237.236-.356s-.118-.119-.236-.119zm-13.764.357c0 .118 0 .118-.118.237l-.118.119c.118 0 .118.118.236.118h.117c-.117-.237-.117-.356-.117-.474z" fill="#FEFEFE"/><path d="M45.647 40.764l2.47-3.177.118.236.47-.942-.823.589h.236l-2.236 2.823c-.235.235-.353.588-.588.824.118 0 .235-.236.353-.353m1.882-.824l.236.118-3.53 2.823-.117.118v.118h.235c.118 0 .118.117.118.117 0 .118 0 .236-.118.353H44c.118 0 .235.118.235.236l-.117.117h-.236c-.117 0-.117-.117-.235-.117l.118.117v.236c-.118 0-.236.117-.236.117-.117 0-.117-.117-.117-.117v-.236c-.118 0-.118.236 0 .47 0 .118.117.118.353 0a.253.253 0 0 0 .235-.234v-.118l.118.118c.117 0 .235 0 .353-.118.117-.118.117-.235.117-.235s0-.118-.117-.118h.117c.118 0 .118-.118.236-.235 0-.118.117-.236 0-.353 0 0-.118-.118-.236-.118l3.53-2.823v.235l.588-.824-1.177.353" fill="#FEFEFE"/><path d="M43.176 44.41s0-.117 0 0l-.588.942-.235.118-.588 1.176.353-.118.117.353.589-1.176-.118-.235.47-1.06zm4.471-3.176l-2.941 1.53-.118.117 3.06-1.529v.235l.823-.706-1.06.236.236.117zm-2.353.47c.235-.117.47-.352.588-.47L48 39.352v.235l.588-.94-.94.47h.234l-2 2-.588.588z" fill="#FEFEFE"/><path d="M44.235 42.528c.118-.117.236-.117.353-.235L48 38.528v.236l.47-.941-.823.588h.235l-3.647 3.882c.118.118 0 .235 0 .235m-1.294 1.53v-.235l-.706.705H42l-.941.942h.235v.235l.824-1.059h.117l.706-.588m2.353-1.765L46 41.94l2-1.294v.235l.706-.823-.941.353.235.117-2.118 1.412c-.353.118-.47.236-.588.353" fill="#FEFEFE"/><path d="M27.882 40.764v-1.06c-.706.472-.94 1.413-.588 2h-.118a.253.253 0 0 0-.235.236c0 .118.118.236.235.236a.253.253 0 0 0 .236-.236c0-.117 0-.117-.118-.117-.118-.589 0-1.177.235-1.53-.117.353-.235 1.059-.117 1.765.117-.118.235-.235.235-.353 0 .118 0 .235.118.353 0-.47.235-1.059.706-1.412-.353.47-.589 1.059-.706 1.53.235-.353.94-.471.94-1.883-.234-.117-.587.118-.823.47m-2-.235a.253.253 0 0 0-.235-.235.253.253 0 0 0-.235.235c0 .118.117.236.235.236a.253.253 0 0 0 .235-.236m1.06 4.589c-.118-.353 0-.824.117-1.177.117-.235.353-.588.47-.588-.353.353-.588 1.412-.588 1.765m-.706-.941c0-.353.236-.824.589-1.06.235-.235.352-.235.117-.117-.235.353-.588.824-.706 1.177M26 41.587c-.353-.235-.588-.235-1.176-.235.47 0 .823.118 1.176.235m20.118-2.706h.235L44.94 41c-.117.353-.353.588-.47.941L46.353 39l.118.234.353-.94-.706.587m-.236-.705h.236l-2.236 4.47H44l2.235-4.47.118.235.235-1.059-.706.824m-5.764 7.058l.47-.353.47-.353h.118s1.177-.705 1.412-.94l-1.53.705-.234-.117-1.177.588.235.117.236.353m1.058-.117l1.295-.941.353-.353-1.648 1.058h-.235l-.117.118-1.06.588.236.118v.235l.824-.706.352-.117" fill="#FEFEFE"/><path d="M25.294 39c0-.119-.118-.236-.235-.119-.118-.588-.235-.94-.824-1.411.353.353.706.94.824 1.411-.118 0-.118.118-.118.236 0 .117.118.235.235.117 0 0 .118-.117.118-.235m0 1.177c0-.118-.118-.118-.118-.118-.235-.353-.588-.706-1.176-.824.353.118.824.47 1.176.824-.117 0-.117.118-.117.235 0 .118.117.118.235.118-.118-.118 0-.235 0-.235m2.47 2.47c0-.118-.117-.118-.235-.118-.117 0-.117.118-.117.236 0 .117.117.117.235.117 0-.117.118-.235.118-.235m1.059 0c0-.118-.118-.118-.236-.118-.117 0-.117.118-.117.236 0 .117.117.117.235.117 0 0 .118-.117.118-.235m-2.118-3.294c-.47.47-.706.941-.588 1.412H26c-.118 0-.118.117-.118.235 0 .118.118.118.236.118h.117c0 .117.118.235.236.353 0-.118-.118-.353-.118-.47v-.119c0-.353 0-.823.235-1.058-.117.47-.117 1.294-.117 1.764.235-.47.94-.823.235-2.235m1.53 3.765c0-.118-.118-.236-.354-.236-.117 0-.235.118-.235.353 0 .118.118.236.353.236.118-.118.235-.236.235-.353m.118-.824c0-.117-.118-.235-.353-.235-.118 0-.235.118-.235.353 0 .117.117.235.353.235.117-.118.235-.235.235-.353" fill="#FEFEFE"/><path d="M27.176 42.41c0-.117-.117-.234-.235-.117-.117 0-.235.118-.117.235-.353 0-.942.118-1.295.471.353-.235.942-.47 1.295-.47 0 .117.117.235.235.117 0 0 .117-.118.117-.235m-.47-.235c0-.118-.118-.118-.235-.118 0 0-.118 0-.118.118-.47-.118-.941 0-1.412.235.47-.118.941-.235 1.412-.235v.117c0 .118.118.118.235.118 0 0 .118-.118.118-.235m-.353-.353a.253.253 0 0 0-.235-.236c-.236 0-.236.118-.236.236 0 .117.118.235.236.235a.253.253 0 0 0 .235-.235m-.47-.706c0-.118-.118-.118-.236-.118 0 0-.118 0-.118.118-.588-.47-.94-.47-1.176-.47.118.117.823.234 1.176.47v.117c0 .118.118.118.236.118.117-.118.117-.118.117-.235" fill="#FEFEFE"/><path d="M36.588 54.176c0 .588-.47 1.058-.94 1.058h-.354L35.412 53h.353c.353.118.823.588.823 1.177zm-.823-1.295H34.47V53h.353l-.118 2.353h-.353v.118h1.294c.353 0 .706-.118.941-.353.236-.236.47-.589.47-.941.118-.706-.47-1.295-1.293-1.295zm-2.589 2.471l-.235-.118L32 53l-.47 1.765.352.117V55l-.94-.235v-.118l.352.118.47-2.118-.117-.235-.235-.118v-.117l.823.235.824 2.117.353-1.647-.353-.117v-.118l.941.235V53l-.353-.118-.47 2.471zm-2.823-.941l-.118-.118.118-2.823-.235-.118-2 2-.236-.118-.117.118.823.353.118-.118-.47-.117.47-.47.941.352v.706l-.235-.118-.118.118.941.47.118-.117zm-1.412-1.647l.824-.706-.118 1.059-.706-.353zm-1.647.353l-1.647-1.06.118-.117.235.118 1.294-2-.235-.118.117-.117.942.588-.118.117-.235-.117-1.294 1.882.705.47.118-.235.235.118-.235.47zm-2.353-1.647l-1.412-1.294.118-.118.235.235 1.647-1.765-.235-.235.118-.117 1.294 1.176.118-.118.117.118-.47.47-.118-.117.235-.235-.823-.589-.706.706.47.47.236-.234.117.117-.588.588-.118-.117.236-.235-.47-.471-.707.706.706.588.235-.235.118.117-.353.589zm-2.117-2.118l-.706-.941.117-.118.236.235 1.411-1.058-2.117.47.94-1.882-1.41 1.059.234.235-.117.118-.588-.824.117-.118.235.236 1.883-1.412-.235-.235.117-.118.47.588-.94 1.883 2-.47.47.705-.117.118-.236-.236L22.706 49l.235.235-.117.118zm-1.06-3.882c.707-.353 1.06-1.177.707-1.765-.353-.706-1.177-.941-1.883-.706-.706.353-1.059 1.177-.706 1.765.353.706 1.177 1.059 1.883.706zm-.94-1.883c.588-.235 1.176-.117 1.411.236.118.353-.117.94-.706 1.176-.588.235-1.176.118-1.411-.235-.118-.353.117-.941.706-1.177zm-1.53-.706l-.235-1.058h.117l.118.353 1.059-.236L20 40.528l-1.059.236.118.353h-.118l-.235-1.06h.118l.117.354 2.235-.588-.117-.353h.117l.236 1.058h-.118l-.118-.352-1.058.235.353 1.294 1.058-.235-.117-.353h.117l.236 1.059h-.118l-.118-.353-2.235.588.118.353-.118.117zm29.647 4.471l.118-.235c.117-.236.47-.236.706-.118.235.235.353.47.117.706l-.117.235-.824-.588zm2.824 0l-.118.118c0 .117-.118.117-.235.117l-1.06-.117a.915.915 0 0 0-.234-.942c-.118-.117-.353-.235-.589-.117-.235 0-.353.117-.588.47l-.706.942.118.117.235-.235 1.883 1.412-.236.235.118.118.706-.942-.118-.117-.235.235-.824-.588.118-.118 1.176.118c.236 0 .353 0 .471-.235l.353-.471h-.235zm2.706-6.941l-.236 1.176h-.117l.117-.353L53.176 41l-1.411.588v.236h-.118l.235-1.177H52V41l.941-.353-.823-.706-.118.353h-.118l.236-.941h.117v.235l.941.941 1.177.236.118-.353zm-.706 2.941l-.47 1.176-.119-.117.118-.353-2.118-.824-.235.706.353.118-.118.235-.705-.117.117-.236h.118l.706-1.764h-.118l.118-.236.706.236-.118.235-.353-.118-.235.706 2.117.824.118-.353.118-.118zm-1.06 2.47l-.587 1.06-.118-.118.118-.236L50 45.352l-.118.235-.117-.117.588-1.06.118.118-.118.236 2.118 1.176.117-.235.118.118zm-4.587 2.471l-.236.235 1.06 1.177c.352.353.352.706.234 1.059a1.624 1.624 0 0 1-.352.47c-.471.47-1.06.47-1.412 0l-1.06-1.176-.234.235-.236-.235.824-.824.118.118-.236.235 1.06 1.177c.234.353.47.353.705.353.118 0 .235-.118.353-.118.353-.353.353-.706 0-1.059l-1.059-1.176-.235.117-.118-.117.706-.588.118.117zm-1.177 4.118c-.235.235-.353.47-.706.588-.706.47-1.53.235-2-.47-.47-.706-.235-1.53.47-2 .236-.118.354-.236.707-.236l-.118-.117.235-.118.353.588-.235.118-.118-.236c-.235 0-.47 0-.588.118-.47.353-.588.941-.235 1.53.353.588.941.823 1.412.47.117-.118.235-.235.353-.47l-.118-.236.235-.117.353.588zm-2.823 1.765l-1.765.705-.118-.117.236-.118-.706-2.235-.236.117-.117-.117 1.53-.588v-.118l.234-.118.236.589-.236.117-.117-.235-.824.353.353.941.588-.235-.117-.236.235-.117.353.706-.235.117-.118-.235-.588.235.353.941.823-.352-.117-.236.235-.117.118.353zM40 55.47h-.235l-.118-.706h.235l.118.353c.235.117.353.117.588.117.236 0 .353-.235.353-.47 0-.236-.235-.236-.588-.47-.47-.118-.47-.236-.588-.236-.118-.118-.236-.235-.236-.47-.117-.471.118-.824.706-.942h.47v-.118h.236l.118.706h-.235L40.706 53c-.235-.118-.353-.118-.47 0-.236 0-.354.235-.354.47 0 .118.118.236.589.354.235.117.353.117.353.117.117 0 .235.118.352.236.118.117.118.235.236.352.117.471-.118.824-.588.942H40zm12-28.118l-1.294-1.53.118-.117-.236-.118-.588.47.118.236.235-.235.47.588-1.764 1.412-.118-.118s-.117 0-.117.118l.705.823.118-.117-.235-.353 1.764-1.412.471.588-.235.118.117.235.589-.47-.118-.118zm-2.824-2.941l-.117.117.235.236-1.176 1.294.235-2.235-.588-.589-.118.118.235.235v.236l-1.411 1.529-.236-.235-.117.117.706.589.117-.118-.235-.235 1.176-1.294-.235 2.117c.235-.117.47-.117.824-.235h.117l1.06-1.177.234.236.118-.118-.824-.588zm-22.117.588l-.235.235-1.295-1.764.236-.236c.353-.235 1.059-.117 1.411.353.353.47.236 1.177-.117 1.412zm.47-1.765c-.47-.588-1.294-.706-1.882-.235l-1.059.706.118.118.235-.236 1.412 1.883c.118 0 .118 0 .235.117l.706-.47c.353-.236.47-.47.588-.824 0-.353-.117-.706-.353-1.059zm18.236 1.647l-1.647-1.058.117-.118.236.118 1.294-2-.236-.118.118-.118 1.412.941.117-.117.236.117-.353.589-.353-.118.118-.235-.706-.47-.47.823.587.353.118-.236.235.118-.47.706-.236-.235.118-.236-.588-.353-.588.824.705.47.118-.235.235.118-.117.47zm-2-1.294l-1.177-.47.118-.118.353.118.588-1.647-1.53 1.53-.235-2.119-.706 1.53.353.117-.117.118-.824-.353.118-.117.353.117.823-2.235-.353-.118.118-.117.706.235.235 2.118 1.53-1.412.706.235-.118.118-.353-.118-.824 2.353.353.118-.117.117zm-3.883-1.294l-1.294-.235v-.118l.353.118.353-2.235-.706-.118v.353h-.235l.118-.706h.235v.118l1.882.353v-.118h.236l-.118.706h-.235v-.353l-.706-.118-.353 2.236.353.117h.117zM38 21.823h-.118c-.117 0-.117 0-.235-.236l-.588-.94c.353-.119.588-.354.588-.707 0-.235-.118-.353-.235-.47-.118-.118-.353-.236-.706-.236h-1.177v.236h.353v2.353h-.353v.117h1.177v-.117h-.353v-1.06h.118l.588.942c.117.235.235.235.47.235H38v-.117zm-1.647-2.353h.235c.236 0 .47.235.47.47 0 .353-.234.588-.47.588h-.235V19.47zm-1.177 2.353h-.117l-1.412-2.353h-.235l-.588 2.706h-.236v.117l.824-.117v-.118h-.353l.117-.706.942-.118.353.589h-.236v.117l.941-.117zm-1.882-.589l.235-1.058.589.94-.824.118zm-1.412 1.53l-1.176.353v-.118l.353-.118-.824-2.235H30v-.118l1.176-.352c.471-.118.942 0 1.06.47.117.47-.118.941-.589 1.059h-.235l-.118-.235h.118c.235-.118.353-.353.235-.706s-.353-.47-.588-.47l-.235.117.705 2.235.353-.118v.236zm-1.647.588l-1.764.824-.118-.118.235-.118-.94-2.117-.236.117-.118-.117 1.53-.824v-.118l.235-.117.353.588-.236.118-.117-.236-.706.353.47.824.589-.353-.118-.235.235-.118.353.706-.47.235-.118-.235-.588.353.47.94.824-.352-.235-.353.235-.118.235.471zm-6.353 5.294a.253.253 0 0 1-.235.235.253.253 0 0 1-.235-.235c0-.118.117-.235.235-.235.118-.118.235 0 .235.235zm-1.058 1.765l-.118.235-.588-.353.117-.235.236.118c.235-.118.353-.236.47-.353.118-.236.118-.471-.117-.589-.118-.117-.353 0-.706.118-.47.235-.47.235-.589.235-.117 0-.353 0-.47-.117-.353-.236-.47-.706-.235-1.06.117-.117.117-.234.352-.352l-.117-.118.117-.235.589.353-.118.235-.235-.117c-.236.117-.236.117-.353.352-.118.236 0 .353.117.471.118.118.236 0 .706-.118.236-.117.353-.117.353-.235.118 0 .236-.118.353-.118.118 0 .236 0 .47.118.354.235.471.706.236 1.059a.919.919 0 0 1-.47.47v.236zm-.471 1.176c0 .118-.235.236-.353.118-.118 0-.235-.235-.118-.353 0-.118.236-.235.353-.118.118.118.118.236.118.353zM19.765 31l-.118.353 1.53.47c.47.118.705.354.705.706v.589c-.235.588-.706.94-1.176.823l-1.53-.47-.117.353h-.118l.353-1.06h.118l-.118.354 1.412.47c.353.118.588.118.706-.117.117-.118.117-.236.117-.353.118-.47 0-.824-.588-.941l-1.412-.471-.117.353h-.118l.235-.941.236-.118zm31.882 2.824l-.235-1.06h.117l.118.354 2.235-.589-.117-.352h.117l.47 1.647h.119v.235l-.589.118v-.236l.236-.117-.236-.824-.94.235.117.589.235-.118v.235l-.823.236v-.236l.235-.117-.118-.589-.823.353.117.236h-.235zm1.059-1.765c.706-.353 1.059-1.059.706-1.765s-1.06-.941-1.883-.706c-.705.353-1.058 1.06-.705 1.765.352.706 1.176.941 1.882.706zm-.941-2c.588-.235 1.176-.118 1.411.235.118.353-.235.941-.705 1.177-.589.235-1.177.117-1.412-.236-.118-.353.235-.94.706-1.176z" fill="#045287"/><path d="M183.647 68.528h-2.235v-.352h.823v-4.471L180 68.528h-.118l-2.235-4.823v4.47h.824v.353h-2v-.352h.823v-5.177h-.823v-.353h1.647V63l2.117 4.47 2.118-4.47v-.353H184V63h-.824v5.177H184v.352h-.353zm-7.882 0h-4v-.352h.823v-5.177h-.823v-.353h3.882v1.177h-.353v-.824h-2v2.353h1.647v-.706h.353v1.882h-.353v-.823h-1.647v2.47h2.118v-.823h.353v1.176zm-4.47-4.588h-.354v-.706h-1.647v4.942h.824v.352h-2.236v-.352h.824v-4.942h-1.647v.706h-.353v-1.53h.353v.236h4v-.235h.353v1.53h-.118zM166 67.117c0 .235 0 .47-.118.588a1.624 1.624 0 0 1-.353.47c-.117.118-.353.236-.588.353-.235.118-.47.118-.706.118-.47 0-.823-.118-1.176-.47v.47h-.353v-1.765h.353v.824c.117.235.353.353.47.47.236.118.353.118.589.118.353 0 .588-.117.823-.353.235-.235.353-.47.353-.706 0-.353-.118-.588-.353-.706-.235-.235-.588-.352-1.059-.705-.47-.236-.823-.471-1.058-.824-.236-.235-.353-.588-.353-.941 0-.235 0-.47.117-.588.118-.236.236-.353.353-.47.118-.119.353-.236.47-.354.118-.118.471-.118.707-.118.47 0 .823.118 1.058.353v-.353h.353v1.53h-.353v-.588c-.235-.353-.588-.47-1.058-.47-.353 0-.589.117-.824.234-.235.118-.235.353-.235.706s.117.588.353.706c.235.235.588.353 1.059.706.47.353.823.47 1.058.706.353.235.471.588.471 1.059zm-3.53-4h-.588l-1.764 2.353v2.823h.823v.353h-2.235v-.353h.823v-2.941l-1.764-2.353h-.706v-.353h2.117V63h-.588L160 64.881 161.412 63h-.706v-.353h1.765v.47zm-5.882 4c0 .235 0 .47-.117.588a1.624 1.624 0 0 1-.353.47c-.118.118-.353.236-.589.353-.235.118-.47.118-.705.118-.471 0-.824-.118-1.177-.47v.47h-.353v-1.765h.353v.824c.118.235.353.353.47.47.236.118.354.118.589.118.353 0 .588-.117.823-.353.236-.235.353-.47.353-.706 0-.353-.117-.588-.353-.706-.235-.235-.588-.352-1.058-.705-.471-.236-.824-.471-1.06-.824-.235-.235-.352-.588-.352-.941 0-.235 0-.47.117-.588.118-.236.236-.353.353-.47.118-.119.353-.236.471-.354s.47-.118.706-.118c.47 0 .823.118 1.059.353v-.353h.353v1.53h-.353v-.588c-.236-.353-.589-.47-1.06-.47-.352 0-.587.117-.823.234-.235.118-.235.353-.235.706s.118.588.353.706c.235.235.588.353 1.059.706.47.353.823.47 1.059.706.353.235.47.588.47 1.059zm-6.235-4h-.588L148 65.47v2.823h.824v.353h-2.236v-.353h.824v-2.941l-1.765-2.353h-.706v-.353h2.118V63h-.588l1.411 1.882L149.294 63h-.706v-.353h1.765v.47zm-6.706 1.176c0-.235 0-.353-.118-.588a.919.919 0 0 0-.47-.47c-.235-.118-.47-.118-.706-.118h-.588v2.353H142c.47 0 .824-.118 1.176-.353.353-.236.471-.47.471-.824zm2 4.235h-1.059L143.882 67c-.235-.47-.47-.706-.706-.941-.235-.235-.588-.235-.94-.235h-.354v2.353h.824v.352h-2.353v-.352h.823v-5.177h-.823v-.353h2.235c.47 0 .706.118 1.06.235.234.118.47.353.587.589.118.235.236.47.236.706 0 .235 0 .47-.118.588-.118.235-.235.353-.47.588l-.707.353c.236.118.471.235.589.353.117.118.353.235.47.47.118.236.236.353.353.706l.47 1.06h.59v.234zm-6.588-2.94c0-.471-.118-.942-.235-1.412-.236-.353-.471-.706-.824-.942a1.988 1.988 0 0 0-1.176-.353c-.471 0-.824.118-1.177.353-.353.236-.588.47-.823.942-.236.352-.236.94-.236 1.411 0 .353 0 .706.118 1.06.118.352.235.587.47.823.236.235.471.47.706.588.236.118.589.235.942.235.235 0 .588 0 .823-.117.235-.118.47-.236.706-.471.235-.235.353-.47.47-.824.118-.353.236-.823.236-1.294zm.823 0c0 .47-.117.94-.353 1.411-.235.47-.588.824-1.058 1.177-.471.352-1.06.47-1.647.47-.471 0-.942-.118-1.412-.235-.47-.118-.706-.47-.941-.706a2.562 2.562 0 0 1-.589-.941c-.117-.353-.235-.706-.235-1.06 0-.352.118-.705.235-1.058.118-.353.353-.706.589-.941a1.83 1.83 0 0 1 .94-.706c.354-.118.824-.235 1.295-.235.47 0 .941.117 1.294.235.353.235.706.47.941.706.235.353.47.588.588.941.236.235.353.588.353.941zm-6.823 1.529c0 .235 0 .47-.118.588a1.624 1.624 0 0 1-.353.47c-.117.118-.353.236-.588.353-.235.118-.47.118-.706.118-.47 0-.823-.118-1.176-.47v.47h-.353v-1.765h.353v.824c.117.235.353.353.47.47.236.118.353.118.588.118.353 0 .589-.117.824-.353.235-.235.353-.47.353-.706 0-.353-.118-.588-.353-.706-.235-.235-.588-.352-1.059-.705-.47-.236-.823-.471-1.059-.824-.235-.235-.353-.588-.353-.941 0-.235 0-.47.118-.588.118-.236.235-.353.353-.47.118-.119.353-.236.47-.354.118-.118.471-.118.706-.118.471 0 .824.118 1.06.353v-.353h.352v1.53h-.353v-.588c-.235-.353-.588-.47-1.059-.47-.352 0-.588.117-.823.234-.235.118-.235.353-.235.706s.117.588.353.706c.235.235.588.353 1.058.706.471.353.824.47 1.06.706.352.235.47.588.47 1.059zm-4 1.411h-2.353v-.352h.823v-5.177h-.823v-.353h2.353V63h-.824v5.177h.824v.352zm-2.706-5.411h-.706l-1.882 5.647h-.118l-2-5.647h-.706v-.353h2.118v.353h-.706l1.412 4.117 1.411-4.117h-.705v-.353h1.882v.353zm-5.882 2.823c0-.588-.118-1.176-.353-1.647-.236-.47-.589-.706-.942-.941-.352-.235-.94-.235-1.529-.235h-.588v5.176h.823c.942 0 1.647-.235 2-.588a2.89 2.89 0 0 0 .589-1.765zm.705-.235c0 .353 0 .706-.117 1.059-.118.353-.235.588-.588.94-.236.236-.589.472-.942.59a4.388 4.388 0 0 1-1.411.234h-2.706v-.352h.823v-5.177h-.823v-.353h2.706c.47 0 .823.118 1.176.235.353.118.706.353.941.589.236.235.47.588.589.94.352.471.352.824.352 1.295zm-8 .353l-.94-2.588-.824 2.588h1.764zm2 2.47h-1.764v-.352h.47l-.588-1.765h-2.118l-.588 1.765h.588v.352h-1.411v-.352h.47l2-5.648h.353l2.118 5.648h.47v.352zm-7.529 0h-2.235v-.352h.823v-4.471L104 68.528h-.118l-2.235-4.823v4.47h.824v.353h-2v-.352h.823v-5.177h-.823v-.353h1.647V63l2.117 4.47 2.118-4.47v-.353H108V63h-.824v5.177H108v.352h-.353zm-8-1.411c0 .235 0 .47-.118.588-.117.235-.235.353-.353.47-.117.118-.352.236-.588.353-.235.118-.47.118-.706.118-.47 0-.823-.118-1.176-.47v.47h-.353v-1.765h.353v.824c.118.235.353.353.47.47.236.118.353.118.589.118.353 0 .588-.117.823-.353.236-.235.353-.47.353-.706 0-.353-.117-.588-.353-.706-.235-.235-.588-.352-1.059-.705-.47-.236-.823-.471-1.058-.824-.236-.235-.353-.588-.353-.941 0-.235 0-.47.117-.588.118-.118.236-.353.353-.47.118-.119.353-.236.47-.354.118-.118.471-.118.707-.118.47 0 .823.118 1.059.353v-.353h.352v1.53h-.352v-.588c0-.353-.353-.47-.824-.47-.353 0-.588.117-.824.234-.235.118-.235.353-.235.706s.118.588.353.706c.235.235.588.353 1.059.706.47.235.823.47 1.059.706.117.235.235.588.235 1.059zm-3.882 1.411h-2.353v-.352h.823v-5.177h-.823v-.353h2.353V63h-.824v5.177h.824v.352zm-4.589-4.235c0-.235 0-.353-.117-.588a.919.919 0 0 0-.47-.47c-.236-.118-.471-.118-.707-.118h-.588v2.353h.235c.471 0 .824-.118 1.177-.353.353-.236.47-.47.47-.824zm1.883 4.235H92L91.294 67c-.235-.47-.47-.706-.706-.941-.235-.235-.588-.235-.94-.235h-.354v2.353h.824v.352h-2.353v-.352h.823v-5.177h-.823v-.353H90c.47 0 .706.118 1.059.235.235.118.47.353.588.589.118.235.235.47.235.706 0 .235 0 .47-.117.588-.118.235-.236.353-.47.588l-.707.353c.236.118.47.235.588.353s.353.235.471.47c.118.236.235.353.353.706l.47 1.06h.589v.234zm-6.588-2.94c0-.471-.118-.942-.236-1.412-.235-.353-.47-.706-.823-.942C85.059 63 84.706 63 84.235 63c-.47 0-.823.118-1.176.353s-.588.47-.824.941c-.235.353-.235.941-.235 1.412 0 .353 0 .706.118 1.059.117.353.235.588.47.823.236.236.47.47.706.589.235.117.588.235.941.235.236 0 .589 0 .824-.118.235-.117.47-.235.706-.47.235-.236.353-.471.47-.824.118-.353.236-.941.236-1.412zm.823 0c0 .47-.118.94-.353 1.411-.235.47-.588.824-1.059 1.177-.47.352-1.058.47-1.647.47-.47 0-.94-.118-1.411-.235-.353-.235-.706-.47-.942-.706-.235-.353-.47-.588-.588-.941-.118-.47-.118-.824-.118-1.177 0-.353.118-.706.236-1.059.117-.352.353-.705.588-.94a1.83 1.83 0 0 1 .941-.707c.353-.235.824-.235 1.294-.235.47 0 .941.118 1.294.235.353.236.706.471.942.706.235.353.47.589.588.941.235.353.235.706.235 1.06zm-8.118-1.295c0-.235 0-.353-.117-.588a.919.919 0 0 0-.47-.47c-.236-.118-.471-.118-.707-.118h-.588v2.353h.353c.47 0 .824-.118 1.177-.353.235-.236.352-.47.352-.824zm2 4.235H80L79.294 67c-.235-.47-.47-.706-.706-.941-.235-.235-.588-.235-.94-.235h-.354v2.353h.824v.352h-2.353v-.352h.823v-5.177h-.823v-.353H78c.47 0 .706.118 1.059.235.235.118.47.353.588.589.118.235.235.47.235.706 0 .235 0 .47-.117.588-.118.235-.236.353-.47.588l-.707.353c.236.118.47.235.588.353s.353.235.471.47c.118.236.235.353.353.706l.47 1.06h.706v.234zm-7.529-4.235c0-.235 0-.353-.118-.588a.919.919 0 0 0-.47-.47c-.235-.118-.47-.118-.706-.118h-.588v2.353H72c.47 0 .824-.118 1.176-.353.353-.236.471-.47.471-.824zm2 4.235h-1.059L73.882 67c-.235-.47-.47-.706-.706-.941-.235-.235-.588-.235-.94-.235h-.354v2.353h.824v.352h-2.353v-.352h.823v-5.177h-.823v-.353h2.235c.47 0 .706.118 1.06.235.234.118.47.353.587.589.118.235.236.47.236.706 0 .235 0 .47-.118.588-.118.235-.235.353-.47.588l-.707.353c.236.118.471.235.589.353.117.118.353.235.47.47.118.236.236.353.353.706l.47 1.06h.59v.234zm-5.647 0h-4.118v-.352h.824v-5.177h-.824v-.353h3.883v1.177h-.353v-.824h-2v2.353h1.647v-.706h.353v1.882h-.353v-.823h-1.647v2.47h2.117v-.823h.353v1.176H70zm-4.47-4.588h-.354v-.706H63.53v4.942h.824v.352h-2.235v-.352h.823v-4.942h-1.765v.706h-.352v-1.53h.352v.236h4v-.235h.353v1.53zm-6.589 4.588h-4v-.352h.824v-5.177h-.824v-.353h2.353V63h-.823v5.177h2.117v-.824h.353v1.176zm-6.353-2.47l-.94-2.588-.824 2.588h1.764zm1.883 2.47h-1.765v-.352h.47l-.588-1.765h-2L50 68.176h.588v.352h-1.412v-.352h.471l2-5.648H52l2.118 5.648h.47v.352h-.117zm-5.53-5.411h-.706v5.53h-.353L44 63.822v4.353h.706v.352h-2v-.352h.823v-5.177h-.823v-.353h1.412V63l3.647 4.47V63h-.824v-.353h2v.47zm-7.647 2.47c0-.47-.118-.94-.235-1.411-.235-.353-.47-.706-.824-.942a1.988 1.988 0 0 0-1.176-.353c-.47 0-.824.118-1.177.353-.353.236-.588.47-.823.942-.235.352-.235.94-.235 1.411 0 .353 0 .706.117 1.06.118.352.235.587.47.823.236.235.471.47.707.588.235.118.588.235.94.235.236 0 .59 0 .824-.117.236-.118.47-.236.706-.471s.353-.47.47-.824c.118-.353.236-.823.236-1.294zm.824 0c0 .47-.118.941-.353 1.412-.236.47-.589.824-1.06 1.177-.47.352-1.058.47-1.646.47-.47 0-.941-.118-1.412-.235-.353-.235-.706-.47-.941-.706-.235-.353-.47-.588-.588-.941s-.236-.706-.236-1.06c0-.352.118-.705.236-1.058.117-.353.353-.706.588-.941a1.83 1.83 0 0 1 .941-.706c.353-.235.824-.235 1.294-.235.47 0 .941.117 1.294.235.353.235.706.47.941.706.236.353.471.588.589.941.235.235.353.588.353.941zm-6.824 2.941h-2.353v-.352h.824v-5.177h-.824v-.353h2.353V63h-.823v5.177h.823v.352zm-2.823-4.588h-.353v-.706H30.47v4.942h.823v.352H29.06v-.352h.823v-4.942h-1.647v.706h-.353v-1.53h.353v.236h4v-.235h.353v1.53h-.117zm-6.236 2.118l-.94-2.588-.824 2.588h1.764zm1.883 2.47h-1.765v-.352h.47l-.588-1.765h-2.117l-.589 1.765h.589v.352h-1.412v-.352h.47l2-5.648h.353l2.118 5.648h.47v.352zm-5.53-5.411h-.823v5.53h-.353l-3.883-4.824v4.353h.824v.352h-2v-.352h.823v-5.177h-.823v-.353h1.412V63l3.647 4.47V63h-.824v-.353h2v.47zM183.53 44.764c0 1.764-.353 3.294-1.176 4.706-.824 1.411-2 2.47-3.412 3.294-1.412.823-3.176 1.176-4.941 1.176-2.824 0-5.176-.823-7.059-2.353v2.47h-3.412V43h3.295v3.765c.823 1.294 1.882 2.235 3.058 2.94 1.177.707 2.47 1.06 3.647 1.06 1.177 0 2.236-.47 3.06-1.294.823-.942 1.293-1.883 1.293-3.177 0-1.53-.47-2.588-1.294-3.294-.823-.706-2.47-1.765-4.823-3.176-2.353-1.295-4.118-2.706-5.412-4-1.059-1.06-1.882-2.118-2.353-3.177-.47-1.059-.706-2.235-.706-3.765 0-1.647.353-3.058 1.177-4.353.823-1.294 1.882-2.235 3.294-2.94 1.411-.707 3.059-1.06 4.94-1.06 2.471 0 4.59.589 6.354 1.883v-2.235h3.294v9.882h-3.294V26.41c-1.53-1.765-3.294-2.706-5.412-2.706-.941 0-1.647.235-2.353.588-.706.353-1.294.824-1.647 1.412-.47.588-.588 1.294-.588 2 0 1.412.47 2.353 1.412 3.059.94.706 2.705 1.764 5.294 3.294 2.588 1.53 4.588 2.941 5.882 4.47 1.294 1.765 1.882 3.765 1.882 6.236zm-37.294-5.294l-3.647-10.118h-.117l-3.53 10.118h7.294zm13.294 13.764h-12.235v-2.94h2.941l-2.94-7.766h-9.413l-2.823 7.765h2.823v2.941h-8.823v-2.94h2.706l10.588-29.53h3.294l11.177 29.53h2.705v2.94zm-29.058-22.94h-3.295V25.94h-7.529v24.353H124v2.941h-15.176v-2.94h4.352V25.94h-7.529v4.353h-3.294v-10.47h3.294v1.529h21.53v-1.53h3.294v10.471zM99.41 24.41h-4.47v28.823h-3.294L71.06 31v19.177h4.353v2.94H63.176v-2.94h4.236V24.293h-4.236v-2.941h10.236v2.941l18 19.647V24.41h-4.47v-2.94h12.587v2.94h-.117zM25.53 36.764c-.235.117-.588.47-.705.94.117.119.117.119.117.236.118-.353.235-.706.47-.94-.117.234-.352.705-.352 1.058.117.235.117.47.117.588.353-.47.589-1.176.353-1.882zm0 3.412c-.117-.353.118-1.412.471-1.648-.235.471-.235.942-.47 1.648zm.706-2c-.823.352-1.176 1.294-.706 2 .353-.471 1.06-.589.706-2z" fill="#FEFEFE"/><mask id="b" fill="#fff"><use xlink:href="#a"/></mask><path d="M7.059 78.176H192.94V7.588H7.06v70.588zm2.353-2.352h181.176V9.94H9.412v65.883z" fill="#FEFEFE" mask="url(#b)"/></g></g></svg>